<?xml version="1.0" encoding="UTF-8"?>
<!DOCTYPE svg PUBLIC "-//W3C//DTD SVG 1.1//EN" "http://www.w3.org/Graphics/SVG/1.1/DTD/svg11.dtd">
<svg version="1.2" width="74.84mm" height="70.17mm" viewBox="6798 2792 7484 7017" preserveAspectRatio="xMidYMid" fill-rule="evenodd" stroke-width="28.222" stroke-linejoin="round" xmlns="http://www.w3.org/2000/svg" xmlns:ooo="http://xml.openoffice.org/svg/export" xmlns:xlink="http://www.w3.org/1999/xlink" xmlns:presentation="http://sun.com/xmlns/staroffice/presentation" xmlns:smil="http://www.w3.org/2001/SMIL20/" xmlns:anim="urn:oasis:names:tc:opendocument:xmlns:animation:1.0" xmlns:svg="urn:oasis:names:tc:opendocument:xmlns:svg-compatible:1.0" xml:space="preserve">
 <defs class="EmbeddedBulletChars">
  <g id="bullet-char-template-57356" transform="scale(0.00048828125,-0.00048828125)">
   <path d="M 580,1141 L 1163,571 580,0 -4,571 580,1141 Z"/>
  </g>
  <g id="bullet-char-template-57354" transform="scale(0.00048828125,-0.00048828125)">
   <path d="M 8,1128 L 1137,1128 1137,0 8,0 8,1128 Z"/>
  </g>
  <g id="bullet-char-template-10146" transform="scale(0.00048828125,-0.00048828125)">
   <path d="M 174,0 L 602,739 174,1481 1456,739 174,0 Z M 1358,739 L 309,1346 659,739 1358,739 Z"/>
  </g>
  <g id="bullet-char-template-10132" transform="scale(0.00048828125,-0.00048828125)">
   <path d="M 2015,739 L 1276,0 717,0 1260,543 174,543 174,936 1260,936 717,1481 1274,1481 2015,739 Z"/>
  </g>
  <g id="bullet-char-template-10007" transform="scale(0.00048828125,-0.00048828125)">
   <path d="M 0,-2 C -7,14 -16,27 -25,37 L 356,567 C 262,823 215,952 215,954 215,979 228,992 255,992 264,992 276,990 289,987 310,991 331,999 354,1012 L 381,999 492,748 772,1049 836,1024 860,1049 C 881,1039 901,1025 922,1006 886,937 835,863 770,784 769,783 710,716 594,584 L 774,223 C 774,196 753,168 711,139 L 727,119 C 717,90 699,76 672,76 641,76 570,178 457,381 L 164,-76 C 142,-110 111,-127 72,-127 30,-127 9,-110 8,-76 1,-67 -2,-52 -2,-32 -2,-23 -1,-13 0,-2 Z"/>
  </g>
  <g id="bullet-char-template-10004" transform="scale(0.00048828125,-0.00048828125)">
   <path d="M 285,-33 C 182,-33 111,30 74,156 52,228 41,333 41,471 41,549 55,616 82,672 116,743 169,778 240,778 293,778 328,747 346,684 L 369,508 C 377,444 397,411 428,410 L 1163,1116 C 1174,1127 1196,1133 1229,1133 1271,1133 1292,1118 1292,1087 L 1292,965 C 1292,929 1282,901 1262,881 L 442,47 C 390,-6 338,-33 285,-33 Z"/>
  </g>
  <g id="bullet-char-template-9679" transform="scale(0.00048828125,-0.00048828125)">
   <path d="M 813,0 C 632,0 489,54 383,161 276,268 223,411 223,592 223,773 276,916 383,1023 489,1130 632,1184 813,1184 992,1184 1136,1130 1245,1023 1353,916 1407,772 1407,592 1407,412 1353,268 1245,161 1136,54 992,0 813,0 Z"/>
  </g>
  <g id="bullet-char-template-8226" transform="scale(0.00048828125,-0.00048828125)">
   <path d="M 346,457 C 273,457 209,483 155,535 101,586 74,649 74,723 74,796 101,859 155,911 209,963 273,989 346,989 419,989 480,963 531,910 582,859 608,796 608,723 608,648 583,586 532,535 482,483 420,457 346,457 Z"/>
  </g>
  <g id="bullet-char-template-8211" transform="scale(0.00048828125,-0.00048828125)">
   <path d="M -4,459 L 1135,459 1135,606 -4,606 -4,459 Z"/>
  </g>
  <g id="bullet-char-template-61548" transform="scale(0.00048828125,-0.00048828125)">
   <path d="M 173,740 C 173,903 231,1043 346,1159 462,1274 601,1332 765,1332 928,1332 1067,1274 1183,1159 1299,1043 1357,903 1357,740 1357,577 1299,437 1183,322 1067,206 928,148 765,148 601,148 462,206 346,322 231,437 173,577 173,740 Z"/>
  </g>
 </defs>
 <g class="Page">
  <g class="com.sun.star.drawing.PolyPolygonShape">
   <g id="id3">
    <rect class="BoundingBox" stroke="none" fill="none" x="8542" y="2792" width="1501" height="5251"/>
    <path fill="rgb(175,208,149)" stroke="none" d="M 8542,8042 L 8542,2792 10042,2792 10042,8042 8542,8042 Z "/>
   </g>
  </g>
  <g class="Group">
   <g class="com.sun.star.drawing.PolyPolygonShape">
    <g id="id4">
     <rect class="BoundingBox" stroke="none" fill="none" x="9042" y="6042" width="501" height="2001"/>
     <path fill="rgb(42,96,153)" stroke="none" d="M 9042,8042 L 9042,6042 9542,6042 9542,8042 9042,8042 Z "/>
    </g>
   </g>
   <g class="com.sun.star.drawing.ClosedBezierShape">
    <g id="id5">
     <rect class="BoundingBox" stroke="none" fill="none" x="9017" y="6017" width="551" height="2051"/>
     <path fill="rgb(0,0,0)" stroke="none" d="M 9030,8064 C 9026,8061 9023,8058 9020,8055 9018,8051 9017,8046 9017,8042 L 9017,6042 C 9017,6038 9018,6033 9020,6030 9023,6026 9026,6023 9030,6020 9033,6018 9038,6017 9042,6017 L 9542,6017 C 9546,6017 9551,6018 9555,6020 9558,6023 9561,6026 9564,6030 9566,6033 9567,6038 9567,6042 L 9567,8042 C 9567,8046 9566,8051 9564,8055 9561,8058 9558,8061 9555,8064 9551,8066 9546,8067 9542,8067 L 9042,8067 C 9038,8067 9033,8066 9030,8064 Z M 9067,8017 L 9517,8017 9517,6067 9067,6067 9067,8017 Z "/>
    </g>
   </g>
  </g>
  <g class="com.sun.star.drawing.PolyPolygonShape">
   <g id="id6">
    <rect class="BoundingBox" stroke="none" fill="none" x="8017" y="2792" width="51" height="5251"/>
    <path fill="rgb(0,0,0)" stroke="none" d="M 8017,2792 L 8042,2792 8067,2792 8067,8042 8042,8042 8017,8042 8017,2792 Z "/>
   </g>
  </g>
  <g class="com.sun.star.drawing.PolyPolygonShape">
   <g id="id7">
    <rect class="BoundingBox" stroke="none" fill="none" x="8042" y="8017" width="6001" height="51"/>
    <path fill="rgb(0,0,0)" stroke="none" d="M 14042,8017 L 14042,8042 14042,8067 8042,8067 8042,8042 8042,8017 14042,8017 Z "/>
   </g>
  </g>
  <g class="Group">
   <g class="com.sun.star.drawing.PolyPolygonShape">
    <g id="id8">
     <rect class="BoundingBox" stroke="none" fill="none" x="10542" y="6792" width="501" height="1251"/>
     <path fill="rgb(255,128,0)" stroke="none" d="M 10542,8042 L 10542,6792 11042,6792 11042,8042 10542,8042 Z "/>
    </g>
   </g>
   <g class="com.sun.star.drawing.ClosedBezierShape">
    <g id="id9">
     <rect class="BoundingBox" stroke="none" fill="none" x="10517" y="6767" width="551" height="1302"/>
     <path fill="rgb(0,0,0)" stroke="none" d="M 10529,8064 C 10526,8061 10523,8058 10520,8055 10518,8051 10517,8046 10517,8042 L 10517,6792 C 10517,6788 10518,6783 10520,6780 10523,6776 10526,6773 10529,6770 10533,6768 10538,6767 10542,6767 L 11042,6767 C 11046,6767 11051,6768 11055,6770 11058,6773 11061,6776 11064,6780 11066,6783 11067,6788 11067,6792 L 11067,8042 C 11067,8046 11066,8051 11064,8055 11061,8058 11058,8061 11055,8064 11051,8066 11046,8067 11042,8067 L 10542,8067 C 10538,8067 10533,8066 10529,8064 Z M 10567,8017 L 11017,8017 11017,6817 10567,6817 10567,8017 Z "/>
    </g>
   </g>
  </g>
  <g class="Group">
   <g class="com.sun.star.drawing.PolyPolygonShape">
    <g id="id10">
     <rect class="BoundingBox" stroke="none" fill="none" x="12042" y="6292" width="501" height="1751"/>
     <path fill="rgb(201,33,30)" stroke="none" d="M 12042,8042 L 12042,6292 12542,6292 12542,8042 12042,8042 Z "/>
    </g>
   </g>
   <g class="com.sun.star.drawing.ClosedBezierShape">
    <g id="id11">
     <rect class="BoundingBox" stroke="none" fill="none" x="12017" y="6267" width="551" height="1801"/>
     <path fill="rgb(0,0,0)" stroke="none" d="M 12030,8064 C 12026,8061 12023,8058 12020,8055 12018,8051 12017,8046 12017,8042 L 12017,6292 C 12017,6288 12018,6283 12020,6280 12023,6276 12026,6273 12030,6270 12033,6268 12038,6267 12042,6267 L 12542,6267 C 12546,6267 12551,6268 12555,6270 12558,6273 12561,6276 12564,6280 12566,6283 12567,6288 12567,6292 L 12567,8042 C 12567,8046 12566,8051 12564,8055 12561,8058 12558,8061 12555,8064 12551,8066 12546,8067 12542,8067 L 12042,8067 C 12038,8067 12033,8066 12030,8064 Z M 12067,8017 L 12517,8017 12517,6317 12067,6317 12067,8017 Z "/>
    </g>
   </g>
  </g>
  <g class="com.sun.star.drawing.PolyPolygonShape">
   <g id="id12">
    <rect class="BoundingBox" stroke="none" fill="none" x="7791" y="7017" width="252" height="51"/>
    <path fill="rgb(0,0,0)" stroke="none" d="M 7792,7067 L 7792,7042 7792,7017 8042,7017 8042,7042 8042,7067 7792,7067 Z "/>
   </g>
  </g>
  <g class="com.sun.star.drawing.PolyPolygonShape">
   <g id="id13">
    <rect class="BoundingBox" stroke="none" fill="none" x="7791" y="6017" width="252" height="51"/>
    <path fill="rgb(0,0,0)" stroke="none" d="M 7792,6067 L 7792,6042 7792,6017 8042,6017 8042,6042 8042,6067 7792,6067 Z "/>
   </g>
  </g>
  <g class="com.sun.star.drawing.PolyPolygonShape">
   <g id="id14">
    <rect class="BoundingBox" stroke="none" fill="none" x="7791" y="5017" width="252" height="51"/>
    <path fill="rgb(0,0,0)" stroke="none" d="M 7792,5067 L 7792,5042 7792,5017 8042,5017 8042,5042 8042,5067 7792,5067 Z "/>
   </g>
  </g>
  <g class="com.sun.star.drawing.PolyPolygonShape">
   <g id="id15">
    <rect class="BoundingBox" stroke="none" fill="none" x="7791" y="4017" width="252" height="51"/>
    <path fill="rgb(0,0,0)" stroke="none" d="M 7792,4067 L 7792,4042 7792,4017 8042,4017 8042,4042 8042,4067 7792,4067 Z "/>
   </g>
  </g>
  <g class="com.sun.star.drawing.PolyPolygonShape">
   <g id="id16">
    <rect class="BoundingBox" stroke="none" fill="none" x="7791" y="3017" width="252" height="51"/>
    <path fill="rgb(0,0,0)" stroke="none" d="M 7792,3067 L 7792,3042 7792,3017 8042,3017 8042,3042 8042,3067 7792,3067 Z "/>
   </g>
  </g>
  <g class="Group">
   <g class="com.sun.star.drawing.ClosedBezierShape">
    <g id="id17">
     <rect class="BoundingBox" stroke="none" fill="none" x="6799" y="6964" width="183" height="247"/>
     <path fill="rgb(0,0,0)" stroke="none" d="M 6966,7209 C 6970,7189 6975,7165 6981,7143 6977,7142 6972,7141 6969,7141 6953,7173 6949,7174 6929,7174 6928,7174 6886,7176 6840,7176 L 6842,7181 C 6918,7116 6963,7074 6963,7027 6963,6989 6927,6965 6887,6965 6858,6965 6830,6977 6808,7001 6810,7004 6813,7007 6816,7010 6832,6998 6851,6991 6870,6991 6899,6991 6921,7007 6921,7040 6921,7078 6893,7126 6800,7199 6800,7202 6800,7205 6802,7209 6813,7209 6833,7209 6862,7209 6893,7209 6934,7209 6966,7209 Z "/>
    </g>
   </g>
   <g class="com.sun.star.drawing.ClosedBezierShape">
    <g id="id18">
     <rect class="BoundingBox" stroke="none" fill="none" x="7014" y="6964" width="188" height="251"/>
     <path fill="rgb(0,0,0)" stroke="none" d="M 7106,6980 C 7148,6980 7160,7038 7160,7093 7160,7149 7148,7199 7109,7199 7068,7199 7055,7140 7055,7084 7055,7030 7068,6980 7106,6980 Z M 7201,7087 C 7201,7022 7175,6965 7110,6965 7043,6965 7014,7025 7014,7091 7014,7161 7046,7214 7107,7214 7168,7214 7201,7160 7201,7087 Z "/>
    </g>
   </g>
   <g class="com.sun.star.drawing.ClosedBezierShape">
    <g id="id19">
     <rect class="BoundingBox" stroke="none" fill="none" x="7229" y="6937" width="296" height="277"/>
     <path fill="rgb(0,0,0)" stroke="none" d="M 7291,6950 C 7315,6950 7322,6981 7322,7012 7322,7043 7315,7070 7293,7070 7270,7070 7262,7037 7262,7007 7262,6977 7270,6950 7291,6950 Z M 7354,7009 C 7354,6971 7337,6938 7293,6938 7249,6938 7230,6973 7230,7011 7230,7051 7251,7081 7292,7081 7333,7081 7354,7051 7354,7009 Z M 7475,6952 C 7471,6948 7466,6945 7461,6942 L 7279,7202 C 7283,7206 7288,7210 7292,7213 L 7475,6952 Z M 7461,7081 C 7485,7081 7492,7112 7492,7143 7492,7174 7485,7201 7463,7201 7439,7201 7431,7168 7431,7138 7431,7108 7439,7081 7461,7081 Z M 7524,7140 C 7524,7102 7507,7069 7463,7069 7419,7069 7399,7104 7399,7142 7399,7182 7421,7213 7461,7213 7502,7213 7524,7182 7524,7140 Z "/>
    </g>
   </g>
  </g>
  <g class="Group">
   <g class="com.sun.star.drawing.ClosedBezierShape">
    <g id="id20">
     <rect class="BoundingBox" stroke="none" fill="none" x="6799" y="5966" width="210" height="290"/>
     <path fill="rgb(0,0,0)" stroke="none" d="M 6965,6254 L 6965,6004 C 6965,5996 6965,5988 6965,5968 6957,5967 6946,5966 6936,5966 6889,6025 6845,6083 6800,6145 6800,6152 6800,6160 6801,6167 L 7006,6167 C 7007,6157 7007,6147 7008,6136 L 6814,6136 6819,6147 C 6857,6094 6892,6046 6934,5994 L 6926,5986 6926,6254 C 6939,6255 6952,6255 6965,6254 Z "/>
    </g>
   </g>
   <g class="com.sun.star.drawing.ClosedBezierShape">
    <g id="id21">
     <rect class="BoundingBox" stroke="none" fill="none" x="7034" y="5964" width="188" height="251"/>
     <path fill="rgb(0,0,0)" stroke="none" d="M 7126,5980 C 7168,5980 7180,6038 7180,6093 7180,6149 7168,6199 7129,6199 7088,6199 7075,6140 7075,6084 7075,6030 7088,5980 7126,5980 Z M 7221,6087 C 7221,6022 7195,5965 7130,5965 7063,5965 7034,6025 7034,6091 7034,6161 7066,6214 7127,6214 7188,6214 7221,6160 7221,6087 Z "/>
    </g>
   </g>
   <g class="com.sun.star.drawing.ClosedBezierShape">
    <g id="id22">
     <rect class="BoundingBox" stroke="none" fill="none" x="7249" y="5937" width="296" height="277"/>
     <path fill="rgb(0,0,0)" stroke="none" d="M 7311,5950 C 7335,5950 7342,5981 7342,6012 7342,6043 7335,6070 7313,6070 7290,6070 7282,6037 7282,6007 7282,5977 7290,5950 7311,5950 Z M 7374,6009 C 7374,5971 7357,5938 7313,5938 7269,5938 7250,5973 7250,6011 7250,6051 7271,6081 7312,6081 7352,6081 7374,6051 7374,6009 Z M 7495,5952 C 7491,5948 7486,5945 7481,5942 L 7298,6202 C 7303,6206 7307,6210 7312,6213 L 7495,5952 Z M 7481,6081 C 7504,6081 7512,6112 7512,6143 7512,6174 7504,6201 7482,6201 7459,6201 7451,6168 7451,6138 7451,6108 7459,6081 7481,6081 Z M 7544,6140 C 7544,6102 7527,6069 7483,6069 7439,6069 7419,6104 7419,6142 7419,6182 7440,6213 7481,6213 7522,6213 7544,6182 7544,6140 Z "/>
    </g>
   </g>
  </g>
  <g class="Group">
   <g class="com.sun.star.drawing.ClosedBezierShape">
    <g id="id23">
     <rect class="BoundingBox" stroke="none" fill="none" x="6809" y="4920" width="191" height="295"/>
     <path fill="rgb(0,0,0)" stroke="none" d="M 6906,5214 C 6952,5214 6999,5182 6999,5117 6999,5057 6958,5031 6915,5031 6893,5031 6871,5037 6853,5050 L 6849,5069 C 6865,5057 6882,5051 6897,5051 6927,5051 6955,5074 6955,5129 6955,5180 6931,5199 6908,5199 6880,5199 6852,5170 6852,5095 6852,5007 6896,4935 6975,4935 6983,4935 6986,4935 6989,4935 6990,4930 6991,4926 6991,4921 6986,4920 6979,4920 6977,4920 6864,4920 6809,5015 6809,5100 6809,5181 6859,5214 6906,5214 Z "/>
    </g>
   </g>
   <g class="com.sun.star.drawing.ClosedBezierShape">
    <g id="id24">
     <rect class="BoundingBox" stroke="none" fill="none" x="7030" y="4964" width="188" height="251"/>
     <path fill="rgb(0,0,0)" stroke="none" d="M 7122,4980 C 7164,4980 7176,5038 7176,5093 7176,5149 7164,5199 7125,5199 7084,5199 7071,5140 7071,5084 7071,5030 7084,4980 7122,4980 Z M 7217,5087 C 7217,5022 7191,4965 7126,4965 7059,4965 7030,5025 7030,5091 7030,5161 7062,5214 7123,5214 7184,5214 7217,5160 7217,5087 Z "/>
    </g>
   </g>
   <g class="com.sun.star.drawing.ClosedBezierShape">
    <g id="id25">
     <rect class="BoundingBox" stroke="none" fill="none" x="7245" y="4937" width="296" height="277"/>
     <path fill="rgb(0,0,0)" stroke="none" d="M 7307,4950 C 7331,4950 7338,4981 7338,5012 7338,5043 7331,5070 7309,5070 7286,5070 7278,5037 7278,5007 7278,4977 7286,4950 7307,4950 Z M 7370,5009 C 7370,4971 7353,4938 7309,4938 7265,4938 7246,4973 7246,5011 7246,5051 7267,5081 7308,5081 7348,5081 7370,5051 7370,5009 Z M 7491,4952 C 7487,4948 7482,4945 7477,4942 L 7295,5202 C 7299,5206 7303,5210 7308,5213 L 7491,4952 Z M 7477,5081 C 7501,5081 7508,5112 7508,5143 7508,5174 7501,5201 7478,5201 7455,5201 7447,5168 7447,5138 7447,5108 7455,5081 7477,5081 Z M 7540,5140 C 7540,5102 7523,5069 7479,5069 7435,5069 7415,5104 7415,5142 7415,5182 7437,5213 7477,5213 7518,5213 7540,5182 7540,5140 Z "/>
    </g>
   </g>
  </g>
  <g class="Group">
   <g class="com.sun.star.drawing.ClosedBezierShape">
    <g id="id26">
     <rect class="BoundingBox" stroke="none" fill="none" x="6804" y="3891" width="187" height="295"/>
     <path fill="rgb(0,0,0)" stroke="none" d="M 6892,4185 C 6952,4185 6989,4148 6989,4104 6989,4063 6956,4043 6923,4026 6886,4005 6854,3989 6854,3956 6854,3929 6870,3905 6898,3905 6927,3905 6939,3932 6939,3961 6939,3993 6925,4013 6911,4021 L 6927,4031 6927,4027 C 6950,4014 6979,3991 6979,3957 6979,3924 6951,3891 6901,3891 6849,3891 6815,3925 6815,3966 6815,4002 6840,4022 6872,4040 6911,4064 6949,4081 6949,4117 6949,4144 6931,4171 6897,4171 6862,4171 6846,4142 6846,4110 6846,4078 6861,4056 6881,4042 L 6865,4033 6865,4037 C 6834,4053 6804,4076 6804,4113 6804,4152 6836,4185 6892,4185 Z "/>
    </g>
   </g>
   <g class="com.sun.star.drawing.ClosedBezierShape">
    <g id="id27">
     <rect class="BoundingBox" stroke="none" fill="none" x="7017" y="3935" width="189" height="251"/>
     <path fill="rgb(0,0,0)" stroke="none" d="M 7110,3951 C 7151,3951 7164,4009 7164,4064 7164,4120 7151,4170 7113,4170 7072,4170 7059,4111 7059,4055 7059,4001 7071,3951 7110,3951 Z M 7204,4058 C 7204,3993 7179,3936 7113,3936 7047,3936 7018,3996 7018,4062 7018,4132 7050,4185 7110,4185 7172,4185 7204,4131 7204,4058 Z "/>
    </g>
   </g>
   <g class="com.sun.star.drawing.ClosedBezierShape">
    <g id="id28">
     <rect class="BoundingBox" stroke="none" fill="none" x="7233" y="3908" width="296" height="277"/>
     <path fill="rgb(0,0,0)" stroke="none" d="M 7295,3921 C 7319,3921 7326,3952 7326,3983 7326,4014 7319,4041 7296,4041 7273,4041 7265,4008 7265,3978 7265,3948 7273,3921 7295,3921 Z M 7358,3980 C 7358,3942 7341,3909 7297,3909 7253,3909 7233,3944 7233,3982 7233,4022 7255,4052 7295,4052 7336,4052 7358,4022 7358,3980 Z M 7478,3923 C 7474,3919 7470,3916 7465,3913 L 7282,4173 C 7286,4177 7291,4181 7296,4184 L 7478,3923 Z M 7464,4052 C 7488,4052 7496,4083 7496,4114 7496,4145 7488,4172 7466,4172 7443,4172 7435,4139 7435,4109 7435,4079 7443,4052 7464,4052 Z M 7527,4111 C 7527,4073 7510,4040 7466,4040 7422,4040 7403,4075 7403,4113 7403,4153 7424,4184 7465,4184 7506,4184 7527,4153 7527,4111 Z "/>
    </g>
   </g>
  </g>
  <g class="Group">
   <g class="com.sun.star.drawing.ClosedBezierShape">
    <g id="id29">
     <rect class="BoundingBox" stroke="none" fill="none" x="6798" y="2934" width="130" height="248"/>
     <path fill="rgb(0,0,0)" stroke="none" d="M 6811,3180 C 6827,3180 6840,3179 6870,3179 6901,3179 6913,3180 6926,3180 6927,3176 6927,3173 6926,3168 6889,3165 6888,3164 6888,3132 L 6888,2989 C 6888,2967 6892,2951 6898,2944 6897,2940 6895,2938 6892,2935 6860,2948 6837,2957 6799,2967 6799,2971 6800,2975 6801,2979 6818,2976 6831,2974 6837,2974 6847,2974 6848,2978 6848,2991 L 6848,3135 C 6848,3163 6848,3164 6811,3168 6810,3172 6810,3176 6811,3180 Z "/>
    </g>
   </g>
   <g class="com.sun.star.drawing.ClosedBezierShape">
    <g id="id30">
     <rect class="BoundingBox" stroke="none" fill="none" x="6952" y="2935" width="189" height="251"/>
     <path fill="rgb(0,0,0)" stroke="none" d="M 7045,2951 C 7086,2951 7099,3009 7099,3064 7099,3120 7086,3170 7048,3170 7007,3170 6994,3111 6994,3055 6994,3001 7006,2951 7045,2951 Z M 7139,3058 C 7139,2993 7114,2936 7048,2936 6982,2936 6953,2996 6953,3062 6953,3132 6985,3185 7045,3185 7107,3185 7139,3131 7139,3058 Z "/>
    </g>
   </g>
   <g class="com.sun.star.drawing.ClosedBezierShape">
    <g id="id31">
     <rect class="BoundingBox" stroke="none" fill="none" x="7172" y="2935" width="188" height="251"/>
     <path fill="rgb(0,0,0)" stroke="none" d="M 7264,2951 C 7306,2951 7318,3009 7318,3064 7318,3120 7306,3170 7267,3170 7226,3170 7213,3111 7213,3055 7213,3001 7226,2951 7264,2951 Z M 7359,3058 C 7359,2993 7333,2936 7267,2936 7201,2936 7172,2996 7172,3062 7172,3132 7204,3185 7264,3185 7326,3185 7359,3131 7359,3058 Z "/>
    </g>
   </g>
   <g class="com.sun.star.drawing.ClosedBezierShape">
    <g id="id32">
     <rect class="BoundingBox" stroke="none" fill="none" x="7387" y="2908" width="296" height="277"/>
     <path fill="rgb(0,0,0)" stroke="none" d="M 7449,2921 C 7473,2921 7480,2952 7480,2983 7480,3014 7473,3041 7451,3041 7427,3041 7420,3008 7420,2978 7420,2948 7427,2921 7449,2921 Z M 7512,2980 C 7512,2942 7495,2909 7451,2909 7407,2909 7387,2944 7387,2982 7387,3022 7409,3052 7450,3052 7490,3052 7512,3022 7512,2980 Z M 7633,2923 C 7628,2919 7624,2916 7619,2913 L 7436,3173 C 7441,3177 7445,3181 7450,3184 L 7633,2923 Z M 7619,3052 C 7642,3052 7650,3083 7650,3114 7650,3145 7642,3172 7620,3172 7597,3172 7589,3139 7589,3109 7589,3079 7597,3052 7619,3052 Z M 7682,3111 C 7682,3073 7664,3040 7621,3040 7576,3040 7557,3075 7557,3113 7557,3153 7578,3184 7619,3184 7660,3184 7682,3153 7682,3111 Z "/>
    </g>
   </g>
  </g>
  <g class="Group">
   <g class="com.sun.star.drawing.ClosedBezierShape">
    <g id="id33">
     <rect class="BoundingBox" stroke="none" fill="none" x="8909" y="8391" width="194" height="225"/>
     <path fill="rgb(0,0,0)" stroke="none" d="M 9020,8614 C 9049,8614 9073,8607 9095,8599 9097,8577 9098,8557 9102,8536 9097,8535 9092,8535 9088,8535 9079,8582 9059,8599 9027,8599 8977,8599 8954,8555 8954,8503 8954,8453 8974,8407 9025,8407 9058,8407 9079,8426 9086,8470 9090,8470 9095,8470 9099,8469 9098,8445 9097,8424 9096,8402 9094,8403 9089,8403 9087,8403 9081,8403 9075,8401 9067,8399 9049,8394 9036,8392 9022,8392 8953,8392 8909,8438 8909,8505 8909,8572 8953,8614 9020,8614 Z "/>
    </g>
   </g>
   <g class="com.sun.star.drawing.ClosedBezierShape">
    <g id="id34">
     <rect class="BoundingBox" stroke="none" fill="none" x="9160" y="8391" width="218" height="225"/>
     <path fill="rgb(0,0,0)" stroke="none" d="M 9267,8615 C 9334,8615 9377,8567 9377,8502 9377,8438 9336,8392 9270,8392 9203,8392 9160,8439 9160,8505 9160,8569 9200,8615 9267,8615 Z M 9270,8600 C 9223,8600 9205,8549 9205,8503 9205,8457 9222,8407 9269,8407 9316,8407 9333,8456 9333,8505 9333,8552 9316,8600 9270,8600 Z "/>
    </g>
   </g>
   <g class="com.sun.star.drawing.ClosedBezierShape">
    <g id="id35">
     <rect class="BoundingBox" stroke="none" fill="none" x="9422" y="8395" width="238" height="218"/>
     <path fill="rgb(0,0,0)" stroke="none" d="M 9602,8611 C 9609,8611 9618,8611 9623,8609 L 9623,8447 C 9623,8413 9624,8412 9658,8407 9659,8403 9659,8399 9658,8395 9645,8396 9625,8396 9613,8396 9601,8396 9577,8396 9564,8396 9563,8400 9563,8404 9564,8408 9583,8409 9595,8412 9600,8418 9605,8424 9605,8433 9605,8452 L 9605,8554 9608,8551 9495,8396 C 9487,8396 9473,8396 9471,8396 9454,8396 9437,8396 9423,8396 9422,8400 9422,8404 9423,8408 9458,8412 9461,8414 9461,8454 L 9461,8558 C 9461,8592 9459,8593 9425,8597 9425,8602 9425,8606 9425,8609 9439,8609 9458,8609 9470,8609 9483,8609 9502,8609 9516,8609 9517,8606 9517,8601 9516,8597 9498,8595 9488,8592 9484,8587 9479,8581 9479,8572 9479,8553 L 9479,8435 9476,8437 9602,8611 Z "/>
    </g>
   </g>
  </g>
  <g class="Group">
   <g class="com.sun.star.drawing.ClosedBezierShape">
    <g id="id36">
     <rect class="BoundingBox" stroke="none" fill="none" x="10528" y="8395" width="189" height="217"/>
     <path fill="rgb(0,0,0)" stroke="none" d="M 10529,8609 C 10545,8609 10566,8609 10588,8609 10619,8609 10665,8610 10704,8610 10706,8594 10710,8570 10715,8541 10712,8540 10707,8540 10704,8541 10695,8559 10687,8574 10679,8582 10671,8590 10659,8593 10643,8593 L 10603,8593 C 10602,8590 10602,8579 10602,8562 L 10602,8438 C 10602,8411 10604,8411 10638,8408 10638,8404 10638,8400 10638,8396 10624,8396 10596,8396 10583,8396 10570,8396 10543,8396 10529,8396 10528,8400 10528,8404 10529,8408 10562,8411 10563,8412 10563,8443 L 10563,8567 C 10563,8594 10562,8594 10529,8597 10528,8602 10528,8606 10529,8609 Z "/>
    </g>
   </g>
   <g class="com.sun.star.drawing.ClosedBezierShape">
    <g id="id37">
     <rect class="BoundingBox" stroke="none" fill="none" x="10750" y="8395" width="112" height="216"/>
     <path fill="rgb(0,0,0)" stroke="none" d="M 10751,8609 C 10766,8609 10792,8609 10806,8609 10819,8609 10846,8609 10860,8609 10861,8606 10861,8602 10860,8597 10825,8594 10825,8594 10825,8562 L 10825,8438 C 10825,8411 10827,8411 10860,8408 10861,8404 10861,8400 10860,8396 10846,8396 10820,8396 10806,8396 10793,8396 10765,8396 10751,8396 10750,8400 10750,8404 10751,8408 10784,8411 10786,8412 10786,8443 L 10786,8567 C 10786,8594 10785,8594 10751,8597 10750,8602 10750,8606 10751,8609 Z "/>
    </g>
   </g>
   <g class="com.sun.star.drawing.ClosedBezierShape">
    <g id="id38">
     <rect class="BoundingBox" stroke="none" fill="none" x="10903" y="8395" width="188" height="216"/>
     <path fill="rgb(0,0,0)" stroke="none" d="M 10904,8609 C 10918,8609 10948,8609 10959,8609 10972,8609 10987,8610 11003,8610 11017,8610 11031,8609 11043,8606 11069,8598 11089,8579 11089,8549 11089,8514 11061,8498 11027,8495 L 11027,8495 C 11061,8486 11078,8468 11078,8443 11078,8412 11053,8396 11003,8396 10992,8396 10973,8396 10960,8396 10946,8396 10920,8396 10904,8396 10904,8400 10904,8404 10904,8408 10937,8411 10939,8412 10939,8443 L 10939,8567 C 10939,8594 10938,8594 10904,8597 10904,8602 10904,8606 10904,8609 Z M 11001,8595 C 10993,8595 10987,8594 10979,8592 10978,8587 10978,8578 10978,8566 L 10978,8412 C 10985,8412 10989,8411 10995,8411 11022,8411 11035,8424 11035,8451 11035,8478 11021,8491 10985,8491 10982,8491 10979,8491 10973,8490 L 10973,8507 C 10980,8506 10989,8506 10994,8506 11029,8506 11046,8519 11046,8549 11046,8580 11029,8595 11001,8595 Z "/>
    </g>
   </g>
  </g>
  <g class="Group">
   <g class="com.sun.star.drawing.ClosedBezierShape">
    <g id="id39">
     <rect class="BoundingBox" stroke="none" fill="none" x="11953" y="8395" width="189" height="217"/>
     <path fill="rgb(0,0,0)" stroke="none" d="M 11954,8609 C 11970,8609 11991,8609 12013,8609 12044,8609 12090,8610 12129,8610 12131,8594 12135,8570 12140,8541 12137,8540 12132,8540 12129,8541 12120,8559 12112,8574 12104,8582 12096,8590 12084,8593 12068,8593 L 12028,8593 C 12027,8590 12027,8579 12027,8562 L 12027,8438 C 12027,8411 12029,8411 12063,8408 12063,8404 12063,8400 12063,8396 12049,8396 12021,8396 12008,8396 11995,8396 11968,8396 11954,8396 11953,8400 11953,8404 11954,8408 11987,8411 11988,8412 11988,8443 L 11988,8567 C 11988,8594 11987,8594 11954,8597 11953,8602 11953,8606 11954,8609 Z "/>
    </g>
   </g>
   <g class="com.sun.star.drawing.ClosedBezierShape">
    <g id="id40">
     <rect class="BoundingBox" stroke="none" fill="none" x="12158" y="8392" width="234" height="219"/>
     <path fill="rgb(0,0,0)" stroke="none" d="M 12159,8609 C 12174,8609 12185,8609 12199,8609 12214,8609 12231,8609 12247,8609 12247,8606 12247,8602 12247,8597 12224,8595 12215,8594 12215,8583 12215,8578 12216,8573 12220,8563 L 12266,8438 12263,8438 12310,8569 C 12313,8576 12314,8581 12314,8585 12314,8594 12306,8595 12283,8597 12282,8602 12282,8606 12283,8609 12301,8609 12320,8609 12338,8609 12356,8609 12373,8609 12390,8609 12391,8606 12391,8602 12390,8597 12362,8594 12361,8593 12347,8557 L 12286,8393 C 12280,8393 12271,8394 12266,8396 L 12204,8554 C 12189,8592 12186,8594 12159,8597 12159,8602 12159,8606 12159,8609 Z M 12308,8536 L 12302,8521 12225,8521 12220,8536 12308,8536 Z "/>
    </g>
   </g>
   <g class="com.sun.star.drawing.ClosedBezierShape">
    <g id="id41">
     <rect class="BoundingBox" stroke="none" fill="none" x="12416" y="8395" width="187" height="216"/>
     <path fill="rgb(0,0,0)" stroke="none" d="M 12417,8609 C 12431,8609 12461,8609 12472,8609 12485,8609 12499,8610 12516,8610 12530,8610 12544,8609 12555,8606 12581,8598 12602,8579 12602,8549 12602,8514 12574,8498 12540,8495 L 12540,8495 C 12573,8486 12590,8468 12590,8443 12590,8412 12566,8396 12515,8396 12504,8396 12486,8396 12473,8396 12459,8396 12432,8396 12417,8396 12416,8400 12416,8404 12417,8408 12450,8411 12452,8412 12452,8443 L 12452,8567 C 12452,8594 12450,8594 12417,8597 12416,8602 12416,8606 12417,8609 Z M 12514,8595 C 12506,8595 12499,8594 12491,8592 12491,8587 12491,8578 12491,8566 L 12491,8412 C 12497,8412 12501,8411 12508,8411 12535,8411 12548,8424 12548,8451 12548,8478 12534,8491 12497,8491 12494,8491 12491,8491 12486,8490 L 12486,8507 C 12493,8506 12501,8506 12507,8506 12542,8506 12558,8519 12558,8549 12558,8580 12541,8595 12514,8595 Z "/>
    </g>
   </g>
  </g>
  <g class="com.sun.star.drawing.ClosedBezierShape">
   <g id="id42">
    <rect class="BoundingBox" stroke="none" fill="none" x="10515" y="8792" width="2053" height="528"/>
    <path fill="rgb(0,0,0)" stroke="none" d="M 12542,8792 L 12567,8792 C 12567,8826 12561,8860 12552,8891 12542,8923 12528,8952 12511,8978 12494,9004 12473,9026 12451,9041 12440,9049 12428,9056 12415,9060 12402,9065 12389,9067 12376,9067 L 11709,9067 C 11701,9067 11694,9068 11686,9071 11678,9074 11670,9078 11662,9084 11645,9096 11629,9113 11615,9134 11600,9156 11589,9181 11580,9208 11572,9235 11567,9264 11567,9293 11567,9297 11566,9302 11564,9306 11561,9309 11558,9312 11554,9315 11551,9317 11546,9318 11542,9318 11538,9318 11533,9317 11529,9315 11526,9312 11523,9309 11520,9306 11518,9302 11517,9297 11517,9293 11517,9264 11512,9235 11504,9208 11495,9181 11484,9156 11469,9134 11455,9113 11439,9096 11422,9084 11414,9078 11406,9074 11398,9071 11390,9068 11383,9067 11375,9067 L 10708,9067 C 10695,9067 10682,9065 10669,9060 10656,9056 10644,9049 10633,9041 10611,9026 10590,9004 10573,8978 10556,8952 10541,8923 10532,8891 10522,8860 10516,8826 10516,8792 L 10541,8792 10566,8792 C 10566,8821 10571,8849 10579,8876 10588,8903 10600,8928 10614,8950 10628,8971 10644,8988 10661,9000 10669,9006 10677,9010 10685,9013 10693,9016 10700,9017 10708,9017 L 11375,9017 C 11388,9017 11402,9019 11415,9024 11427,9028 11439,9035 11451,9043 11473,9058 11493,9080 11511,9106 11523,9124 11533,9145 11542,9166 11551,9145 11561,9124 11573,9106 11591,9080 11611,9058 11633,9043 11645,9035 11657,9028 11669,9024 11682,9019 11696,9017 11709,9017 L 12376,9017 C 12384,9017 12391,9016 12399,9013 12407,9010 12415,9006 12423,9000 12440,8988 12456,8971 12469,8950 12484,8928 12496,8903 12504,8876 12512,8849 12517,8821 12517,8792 L 12542,8792 Z "/>
   </g>
  </g>
  <g class="Group">
   <g class="com.sun.star.drawing.ClosedBezierShape">
    <g id="id43">
     <rect class="BoundingBox" stroke="none" fill="none" x="11309" y="9417" width="95" height="298"/>
     <path fill="rgb(0,0,0)" stroke="none" d="M 11390,9665 C 11379,9679 11364,9689 11355,9689 11350,9689 11348,9686 11348,9681 11348,9676 11350,9669 11351,9666 L 11387,9490 C 11392,9461 11398,9439 11403,9420 L 11398,9417 C 11379,9425 11351,9428 11323,9430 11322,9434 11322,9437 11323,9441 11348,9441 11355,9442 11355,9453 11355,9456 11354,9462 11353,9470 L 11312,9668 C 11310,9675 11309,9681 11309,9687 11309,9703 11318,9714 11337,9714 11361,9714 11382,9696 11399,9673 11396,9670 11394,9667 11390,9665 Z "/>
    </g>
   </g>
   <g class="com.sun.star.drawing.ClosedBezierShape">
    <g id="id44">
     <rect class="BoundingBox" stroke="none" fill="none" x="11415" y="9522" width="159" height="193"/>
     <path fill="rgb(0,0,0)" stroke="none" d="M 11455,9624 C 11512,9619 11573,9596 11573,9555 11573,9535 11560,9523 11531,9523 11464,9523 11416,9588 11416,9646 11416,9687 11441,9714 11482,9714 11517,9714 11542,9694 11559,9664 11557,9661 11554,9658 11550,9656 11535,9675 11515,9688 11493,9688 11468,9688 11457,9672 11457,9646 11457,9602 11487,9539 11520,9539 11531,9539 11536,9547 11536,9558 11536,9591 11495,9607 11455,9611 L 11455,9624 Z "/>
    </g>
   </g>
   <g class="com.sun.star.drawing.ClosedBezierShape">
    <g id="id45">
     <rect class="BoundingBox" stroke="none" fill="none" x="11511" y="9415" width="264" height="394"/>
     <path fill="rgb(0,0,0)" stroke="none" d="M 11631,9549 L 11630,9545 11600,9697 C 11586,9763 11575,9792 11553,9792 L 11562,9802 C 11558,9778 11543,9766 11531,9766 11521,9766 11512,9773 11512,9785 11512,9798 11525,9808 11546,9808 11596,9808 11626,9747 11641,9678 L 11671,9534 C 11684,9473 11693,9430 11723,9430 11727,9430 11728,9431 11732,9433 L 11727,9423 C 11727,9450 11742,9460 11754,9460 11765,9460 11773,9452 11773,9442 11773,9427 11756,9416 11732,9416 11683,9416 11648,9460 11637,9512 11635,9521 11634,9527 11632,9530 11630,9534 11625,9536 11600,9540 11599,9542 11599,9545 11599,9549 L 11631,9549 Z M 11711,9549 C 11713,9544 11714,9538 11714,9532 L 11664,9532 11660,9549 11711,9549 Z "/>
    </g>
   </g>
   <g class="com.sun.star.drawing.ClosedBezierShape">
    <g id="id46">
     <rect class="BoundingBox" stroke="none" fill="none" x="11714" y="9476" width="118" height="240"/>
     <path fill="rgb(0,0,0)" stroke="none" d="M 11827,9549 C 11829,9543 11831,9538 11831,9532 L 11754,9532 11717,9538 C 11715,9541 11715,9545 11715,9549 L 11827,9549 Z M 11759,9480 C 11755,9501 11749,9526 11746,9541 L 11720,9658 C 11717,9670 11716,9678 11716,9683 11716,9696 11723,9714 11749,9714 11773,9714 11798,9699 11816,9673 11813,9670 11810,9668 11807,9666 11795,9681 11778,9690 11767,9690 11758,9690 11755,9685 11755,9677 11755,9673 11756,9665 11758,9655 L 11784,9543 C 11791,9511 11795,9495 11799,9478 L 11798,9476 C 11785,9478 11772,9480 11759,9480 Z "/>
    </g>
   </g>
  </g>
  <g class="com.sun.star.drawing.ClosedBezierShape">
   <g id="id47">
    <rect class="BoundingBox" stroke="none" fill="none" x="8765" y="8780" width="1053" height="528"/>
    <path fill="rgb(0,0,0)" stroke="none" d="M 9792,8780 L 9817,8780 C 9817,8845 9806,8911 9790,8960 9781,8986 9771,9008 9760,9023 9753,9032 9746,9040 9739,9045 9735,9048 9730,9050 9725,9052 9720,9054 9714,9055 9709,9055 L 9376,9055 C 9375,9055 9375,9056 9374,9056 9371,9058 9368,9062 9365,9066 9357,9078 9349,9095 9342,9116 9327,9161 9317,9221 9317,9281 9317,9285 9316,9290 9314,9294 9311,9297 9308,9300 9304,9303 9301,9305 9296,9306 9292,9306 9288,9306 9283,9305 9279,9303 9276,9300 9273,9297 9270,9294 9268,9290 9267,9285 9267,9281 9267,9221 9257,9161 9242,9116 9235,9095 9227,9078 9219,9066 9216,9062 9213,9058 9210,9056 9209,9056 9209,9055 9208,9055 L 8875,9055 C 8870,9055 8864,9054 8859,9052 8854,9050 8849,9048 8845,9045 8838,9040 8831,9033 8824,9023 8813,9008 8802,8986 8794,8960 8777,8911 8766,8845 8766,8780 L 8791,8780 8816,8780 C 8816,8840 8826,8899 8841,8944 8848,8965 8856,8982 8864,8994 8868,8998 8871,9002 8874,9004 8874,9004 8875,9005 8875,9005 L 9209,9005 C 9214,9005 9220,9006 9225,9008 9230,9010 9234,9012 9239,9015 9246,9020 9253,9028 9260,9037 9271,9052 9281,9074 9290,9100 9290,9103 9291,9105 9292,9108 9293,9105 9294,9103 9294,9100 9303,9074 9313,9052 9324,9037 9331,9028 9338,9020 9345,9015 9350,9012 9354,9010 9359,9008 9364,9006 9370,9005 9375,9005 L 9708,9005 C 9709,9005 9710,9004 9710,9004 9713,9002 9716,8998 9719,8994 9728,8982 9736,8965 9743,8944 9757,8899 9767,8840 9767,8780 L 9792,8780 Z "/>
   </g>
  </g>
  <g class="Group">
   <g class="com.sun.star.drawing.ClosedBezierShape">
    <g id="id48">
     <rect class="BoundingBox" stroke="none" fill="none" x="8945" y="9510" width="175" height="188"/>
     <path fill="rgb(0,0,0)" stroke="none" d="M 8997,9697 C 9018,9603 9053,9548 9078,9537 L 9068,9525 C 9071,9545 9086,9553 9098,9553 9109,9553 9119,9546 9119,9533 9119,9522 9112,9511 9094,9511 9064,9511 9039,9542 9013,9607 L 8997,9605 8997,9697 Z M 8997,9697 L 9009,9612 9023,9566 C 9029,9545 9030,9538 9030,9532 9030,9521 9026,9512 9009,9512 8990,9512 8966,9524 8946,9548 8949,9551 8951,9554 8955,9556 8966,9544 8979,9535 8986,9535 8991,9535 8993,9538 8993,9545 8993,9548 8992,9551 8991,9559 L 8959,9697 8997,9697 Z "/>
    </g>
   </g>
   <g class="com.sun.star.drawing.ClosedBezierShape">
    <g id="id49">
     <rect class="BoundingBox" stroke="none" fill="none" x="9107" y="9414" width="111" height="289"/>
     <path fill="rgb(0,0,0)" stroke="none" d="M 9207,9653 C 9196,9667 9181,9677 9172,9677 9167,9677 9165,9674 9165,9669 9165,9664 9167,9658 9168,9654 L 9193,9551 C 9194,9545 9195,9540 9195,9535 9195,9522 9188,9512 9170,9512 9151,9512 9128,9524 9107,9548 9110,9551 9113,9554 9116,9556 9128,9544 9140,9535 9148,9535 9152,9535 9155,9538 9155,9545 9155,9548 9154,9551 9152,9559 L 9129,9656 C 9127,9663 9126,9669 9126,9675 9126,9691 9135,9702 9154,9702 9179,9702 9199,9684 9216,9661 9213,9658 9211,9655 9207,9653 Z M 9189,9467 C 9205,9467 9217,9453 9217,9438 9217,9424 9208,9414 9194,9414 9179,9414 9166,9427 9166,9442 9166,9456 9175,9467 9189,9467 Z "/>
    </g>
   </g>
   <g class="com.sun.star.drawing.ClosedBezierShape">
    <g id="id50">
     <rect class="BoundingBox" stroke="none" fill="none" x="9209" y="9480" width="223" height="317"/>
     <path fill="rgb(0,0,0)" stroke="none" d="M 9388,9543 C 9414,9529 9431,9515 9431,9498 9431,9486 9423,9480 9413,9480 9402,9480 9395,9489 9395,9499 9395,9505 9397,9512 9402,9517 9398,9523 9392,9529 9381,9534 L 9388,9543 Z M 9267,9690 C 9238,9705 9210,9721 9210,9748 9210,9781 9251,9796 9286,9796 9333,9796 9400,9771 9400,9726 9400,9692 9361,9683 9325,9677 9296,9672 9270,9669 9270,9656 9270,9648 9279,9640 9293,9631 L 9281,9627 C 9251,9643 9238,9655 9238,9671 9238,9699 9278,9702 9314,9709 9341,9713 9366,9720 9366,9740 9366,9766 9327,9781 9297,9781 9271,9781 9245,9770 9245,9742 9245,9723 9258,9708 9282,9694 L 9267,9690 Z M 9316,9640 C 9363,9640 9400,9609 9400,9569 9400,9533 9371,9511 9333,9511 9285,9511 9246,9544 9246,9583 9246,9619 9277,9640 9316,9640 Z M 9316,9627 C 9291,9627 9284,9604 9284,9586 9284,9561 9296,9523 9329,9523 9356,9523 9362,9547 9362,9564 9362,9589 9349,9627 9316,9627 Z "/>
    </g>
   </g>
   <g class="com.sun.star.drawing.ClosedBezierShape">
    <g id="id51">
     <rect class="BoundingBox" stroke="none" fill="none" x="9434" y="9405" width="205" height="298"/>
     <path fill="rgb(0,0,0)" stroke="none" d="M 9497,9569 L 9505,9537 9518,9478 C 9523,9453 9528,9430 9534,9408 L 9529,9405 C 9510,9413 9482,9416 9454,9418 9453,9422 9453,9425 9454,9429 9479,9429 9486,9430 9486,9440 9486,9444 9485,9450 9484,9458 L 9435,9697 9473,9697 9485,9635 9497,9569 Z M 9485,9635 C 9501,9562 9540,9533 9561,9533 9571,9533 9576,9540 9576,9551 9576,9574 9548,9650 9548,9676 9548,9691 9556,9702 9575,9702 9600,9702 9620,9684 9638,9661 9635,9658 9632,9655 9629,9653 9618,9667 9603,9677 9594,9677 9588,9677 9587,9673 9587,9670 9587,9654 9615,9573 9615,9546 9615,9526 9601,9511 9577,9511 9551,9511 9522,9529 9501,9563 L 9485,9563 9485,9635 Z "/>
    </g>
   </g>
   <g class="com.sun.star.drawing.ClosedBezierShape">
    <g id="id52">
     <rect class="BoundingBox" stroke="none" fill="none" x="9665" y="9464" width="117" height="240"/>
     <path fill="rgb(0,0,0)" stroke="none" d="M 9778,9537 C 9780,9531 9781,9526 9781,9520 L 9704,9520 9667,9526 C 9666,9529 9665,9533 9665,9537 L 9778,9537 Z M 9710,9468 C 9706,9489 9699,9514 9696,9529 L 9670,9646 C 9667,9658 9667,9666 9667,9671 9667,9684 9674,9702 9699,9702 9724,9702 9748,9687 9766,9661 9763,9658 9761,9656 9757,9654 9745,9669 9728,9678 9718,9678 9708,9678 9705,9673 9705,9665 9705,9661 9706,9653 9709,9643 L 9734,9531 C 9742,9499 9745,9483 9749,9466 L 9748,9464 C 9736,9466 9722,9468 9710,9468 Z "/>
    </g>
   </g>
  </g>
  <g class="com.sun.star.drawing.PolyPolygonShape">
   <g id="id53">
    <rect class="BoundingBox" stroke="none" fill="none" x="8042" y="5517" width="6001" height="51"/>
    <path fill="rgb(0,0,0)" stroke="none" d="M 8042,5567 L 8042,5542 8042,5517 8242,5517 8242,5542 8242,5567 8042,5567 Z M 8392,5567 L 8392,5542 8392,5517 8592,5517 8592,5542 8592,5567 8392,5567 Z M 8742,5567 L 8742,5542 8742,5517 8942,5517 8942,5542 8942,5567 8742,5567 Z M 9092,5567 L 9092,5542 9092,5517 9292,5517 9292,5542 9292,5567 9092,5567 Z M 9442,5567 L 9442,5542 9442,5517 9642,5517 9642,5542 9642,5567 9442,5567 Z M 9792,5567 L 9792,5542 9792,5517 9992,5517 9992,5542 9992,5567 9792,5567 Z M 10142,5567 L 10142,5542 10142,5517 10342,5517 10342,5542 10342,5567 10142,5567 Z M 10492,5567 L 10492,5542 10492,5517 10692,5517 10692,5542 10692,5567 10492,5567 Z M 10842,5567 L 10842,5542 10842,5517 11042,5517 11042,5542 11042,5567 10842,5567 Z M 11192,5567 L 11192,5542 11192,5517 11392,5517 11392,5542 11392,5567 11192,5567 Z M 11542,5567 L 11542,5542 11542,5517 11742,5517 11742,5542 11742,5567 11542,5567 Z M 11892,5567 L 11892,5542 11892,5517 12092,5517 12092,5542 12092,5567 11892,5567 Z M 12242,5567 L 12242,5542 12242,5517 12442,5517 12442,5542 12442,5567 12242,5567 Z M 12592,5567 L 12592,5542 12592,5517 12792,5517 12792,5542 12792,5567 12592,5567 Z M 12942,5567 L 12942,5542 12942,5517 13142,5517 13142,5542 13142,5567 12942,5567 Z M 13292,5567 L 13292,5542 13292,5517 13492,5517 13492,5542 13492,5567 13292,5567 Z M 13642,5567 L 13642,5542 13642,5517 13842,5517 13842,5542 13842,5567 13642,5567 Z M 13992,5567 L 13992,5542 13992,5517 14042,5517 14042,5542 14042,5567 13992,5567 Z "/>
   </g>
  </g>
  <g class="Group">
   <g class="com.sun.star.drawing.ClosedBezierShape">
    <g id="id54">
     <rect class="BoundingBox" stroke="none" fill="none" x="13553" y="5089" width="183" height="296"/>
     <path fill="rgb(0,0,0)" stroke="none" d="M 13622,5384 C 13682,5384 13735,5341 13735,5278 13735,5231 13705,5189 13633,5189 13620,5189 13606,5190 13591,5193 L 13595,5197 13606,5123 13601,5128 13720,5128 C 13723,5117 13726,5101 13727,5089 L 13594,5092 13573,5227 13576,5228 C 13592,5224 13608,5223 13620,5223 13677,5223 13697,5256 13697,5291 13697,5332 13671,5369 13623,5369 13617,5369 13611,5369 13602,5367 L 13609,5375 C 13606,5342 13588,5326 13571,5326 13561,5326 13554,5333 13554,5344 13554,5356 13568,5384 13622,5384 Z "/>
    </g>
   </g>
   <g class="com.sun.star.drawing.ClosedBezierShape">
    <g id="id55">
     <rect class="BoundingBox" stroke="none" fill="none" x="13770" y="5085" width="189" height="251"/>
     <path fill="rgb(0,0,0)" stroke="none" d="M 13863,5101 C 13904,5101 13917,5159 13917,5214 13917,5270 13904,5320 13866,5320 13825,5320 13812,5261 13812,5205 13812,5151 13824,5101 13863,5101 Z M 13958,5208 C 13958,5143 13932,5086 13866,5086 13800,5086 13771,5146 13771,5212 13771,5282 13803,5335 13863,5335 13925,5335 13958,5281 13958,5208 Z "/>
    </g>
   </g>
   <g class="com.sun.star.drawing.ClosedBezierShape">
    <g id="id56">
     <rect class="BoundingBox" stroke="none" fill="none" x="13986" y="5058" width="296" height="277"/>
     <path fill="rgb(0,0,0)" stroke="none" d="M 14048,5071 C 14072,5071 14079,5102 14079,5133 14079,5164 14072,5191 14050,5191 14026,5191 14019,5158 14019,5128 14019,5098 14026,5071 14048,5071 Z M 14111,5130 C 14111,5092 14094,5059 14050,5059 14006,5059 13986,5094 13986,5132 13986,5172 14008,5202 14048,5202 14089,5202 14111,5172 14111,5130 Z M 14232,5073 C 14227,5069 14223,5066 14218,5063 L 14035,5323 C 14039,5327 14044,5331 14049,5334 L 14232,5073 Z M 14218,5202 C 14241,5202 14249,5233 14249,5264 14249,5295 14241,5322 14219,5322 14196,5322 14188,5289 14188,5259 14188,5229 14196,5202 14218,5202 Z M 14280,5261 C 14280,5223 14263,5190 14220,5190 14175,5190 14156,5225 14156,5263 14156,5303 14177,5334 14218,5334 14259,5334 14280,5303 14280,5261 Z "/>
    </g>
   </g>
  </g>
  <g class="Group">
   <g class="com.sun.star.drawing.ClosedBezierShape">
    <g id="id57">
     <rect class="BoundingBox" stroke="none" fill="none" x="8674" y="3022" width="287" height="193"/>
     <path fill="rgb(0,0,0)" stroke="none" d="M 8833,3080 C 8837,3101 8842,3151 8842,3189 8842,3196 8842,3202 8841,3208 8845,3210 8855,3213 8859,3213 8927,3155 8960,3087 8960,3053 8960,3031 8947,3023 8935,3023 8922,3023 8914,3033 8914,3045 8914,3059 8924,3072 8939,3079 L 8935,3074 C 8930,3097 8911,3143 8869,3182 L 8875,3182 C 8875,3126 8870,3069 8858,3028 L 8833,3080 Z M 8734,3209 C 8738,3211 8748,3213 8752,3213 8811,3155 8841,3087 8857,3037 L 8858,3028 C 8852,3028 8845,3029 8840,3030 8830,3066 8806,3126 8762,3179 L 8769,3179 C 8771,3164 8772,3143 8772,3125 8772,3063 8763,3024 8731,3024 8714,3024 8693,3036 8675,3058 8677,3061 8680,3064 8684,3066 8696,3054 8706,3049 8712,3049 8730,3049 8736,3091 8736,3155 8736,3171 8736,3190 8734,3209 Z "/>
    </g>
   </g>
   <g class="com.sun.star.drawing.ClosedBezierShape">
    <g id="id58">
     <rect class="BoundingBox" stroke="none" fill="none" x="8973" y="2926" width="112" height="289"/>
     <path fill="rgb(0,0,0)" stroke="none" d="M 9074,3165 C 9063,3179 9048,3189 9039,3189 9033,3189 9032,3186 9032,3181 9032,3176 9034,3170 9034,3166 L 9059,3063 C 9061,3057 9061,3052 9061,3047 9061,3034 9054,3024 9037,3024 9018,3024 8994,3036 8974,3060 8977,3063 8979,3066 8983,3068 8994,3056 9007,3047 9014,3047 9018,3047 9021,3050 9021,3057 9021,3060 9020,3063 9018,3071 L 8995,3168 C 8994,3175 8992,3181 8992,3187 8992,3203 9001,3214 9020,3214 9045,3214 9065,3196 9082,3173 9080,3170 9077,3167 9074,3165 Z M 9056,2979 C 9072,2979 9083,2965 9083,2950 9083,2936 9074,2926 9060,2926 9045,2926 9032,2939 9032,2954 9032,2968 9042,2979 9056,2979 Z "/>
    </g>
   </g>
   <g class="com.sun.star.drawing.ClosedBezierShape">
    <g id="id59">
     <rect class="BoundingBox" stroke="none" fill="none" x="9093" y="3022" width="220" height="193"/>
     <path fill="rgb(0,0,0)" stroke="none" d="M 9162,3138 C 9176,3074 9211,3045 9234,3045 9246,3045 9250,3053 9250,3063 9250,3086 9222,3162 9222,3188 9222,3203 9230,3214 9249,3214 9274,3214 9294,3196 9312,3173 9309,3170 9306,3167 9303,3165 9292,3178 9277,3189 9268,3189 9263,3189 9261,3183 9261,3180 9261,3164 9290,3086 9290,3058 9290,3038 9276,3023 9251,3023 9226,3023 9198,3039 9178,3070 L 9162,3070 9162,3138 Z M 9162,3138 L 9174,3085 C 9176,3070 9181,3055 9181,3046 9181,3034 9174,3024 9157,3024 9137,3024 9114,3036 9094,3060 9096,3063 9099,3066 9103,3068 9114,3056 9127,3047 9134,3047 9138,3047 9141,3050 9141,3057 9141,3060 9140,3063 9138,3071 L 9107,3209 9145,3209 9162,3138 Z "/>
    </g>
   </g>
   <g class="com.sun.star.drawing.ClosedBezierShape">
    <g id="id60">
     <rect class="BoundingBox" stroke="none" fill="none" x="9325" y="3022" width="220" height="193"/>
     <path fill="rgb(0,0,0)" stroke="none" d="M 9393,3138 C 9408,3074 9443,3045 9466,3045 9478,3045 9482,3053 9482,3063 9482,3086 9454,3162 9454,3188 9454,3203 9462,3214 9481,3214 9506,3214 9526,3196 9544,3173 9541,3170 9538,3167 9535,3165 9524,3178 9509,3189 9500,3189 9494,3189 9493,3183 9493,3180 9493,3164 9521,3086 9521,3058 9521,3038 9508,3023 9483,3023 9458,3023 9429,3039 9410,3070 L 9393,3070 9393,3138 Z M 9393,3138 L 9406,3085 C 9408,3070 9412,3055 9412,3046 9412,3034 9406,3024 9388,3024 9369,3024 9346,3036 9325,3060 9328,3063 9331,3066 9334,3068 9346,3056 9358,3047 9366,3047 9370,3047 9373,3050 9373,3057 9373,3060 9372,3063 9370,3071 L 9338,3209 9377,3209 9393,3138 Z "/>
    </g>
   </g>
   <g class="com.sun.star.drawing.ClosedBezierShape">
    <g id="id61">
     <rect class="BoundingBox" stroke="none" fill="none" x="9563" y="3022" width="159" height="193"/>
     <path fill="rgb(0,0,0)" stroke="none" d="M 9603,3124 C 9660,3119 9721,3096 9721,3055 9721,3035 9707,3023 9678,3023 9612,3023 9563,3088 9563,3146 9563,3187 9588,3214 9629,3214 9664,3214 9689,3194 9707,3164 9705,3161 9702,3158 9698,3156 9683,3175 9663,3188 9641,3188 9615,3188 9605,3172 9605,3146 9605,3102 9635,3039 9667,3039 9679,3039 9684,3047 9684,3058 9684,3091 9642,3107 9603,3111 L 9603,3124 Z "/>
    </g>
   </g>
   <g class="com.sun.star.drawing.ClosedBezierShape">
    <g id="id62">
     <rect class="BoundingBox" stroke="none" fill="none" x="9730" y="3022" width="175" height="188"/>
     <path fill="rgb(0,0,0)" stroke="none" d="M 9783,3209 C 9803,3115 9838,3060 9863,3049 L 9853,3037 C 9856,3057 9871,3065 9883,3065 9894,3065 9904,3058 9904,3045 9904,3034 9897,3023 9879,3023 9849,3023 9824,3054 9798,3119 L 9783,3117 9783,3209 Z M 9783,3209 L 9794,3124 9808,3078 C 9814,3057 9815,3050 9815,3044 9815,3033 9811,3024 9794,3024 9775,3024 9751,3036 9731,3060 9734,3063 9736,3066 9740,3068 9751,3056 9764,3047 9771,3047 9776,3047 9778,3050 9778,3057 9778,3060 9777,3063 9776,3071 L 9744,3209 9783,3209 Z "/>
    </g>
   </g>
  </g>
 </g>
</svg>