<?xml version="1.0" encoding="UTF-8"?>
<!DOCTYPE svg PUBLIC "-//W3C//DTD SVG 1.1//EN" "http://www.w3.org/Graphics/SVG/1.1/DTD/svg11.dtd">
<svg version="1.2" width="74.84mm" height="70.17mm" viewBox="6798 12071 7484 7017" preserveAspectRatio="xMidYMid" fill-rule="evenodd" stroke-width="28.222" stroke-linejoin="round" xmlns="http://www.w3.org/2000/svg" xmlns:ooo="http://xml.openoffice.org/svg/export" xmlns:xlink="http://www.w3.org/1999/xlink" xmlns:presentation="http://sun.com/xmlns/staroffice/presentation" xmlns:smil="http://www.w3.org/2001/SMIL20/" xmlns:anim="urn:oasis:names:tc:opendocument:xmlns:animation:1.0" xmlns:svg="urn:oasis:names:tc:opendocument:xmlns:svg-compatible:1.0" xml:space="preserve">
 <defs class="EmbeddedBulletChars">
  <g id="bullet-char-template-57356" transform="scale(0.00048828125,-0.00048828125)">
   <path d="M 580,1141 L 1163,571 580,0 -4,571 580,1141 Z"/>
  </g>
  <g id="bullet-char-template-57354" transform="scale(0.00048828125,-0.00048828125)">
   <path d="M 8,1128 L 1137,1128 1137,0 8,0 8,1128 Z"/>
  </g>
  <g id="bullet-char-template-10146" transform="scale(0.00048828125,-0.00048828125)">
   <path d="M 174,0 L 602,739 174,1481 1456,739 174,0 Z M 1358,739 L 309,1346 659,739 1358,739 Z"/>
  </g>
  <g id="bullet-char-template-10132" transform="scale(0.00048828125,-0.00048828125)">
   <path d="M 2015,739 L 1276,0 717,0 1260,543 174,543 174,936 1260,936 717,1481 1274,1481 2015,739 Z"/>
  </g>
  <g id="bullet-char-template-10007" transform="scale(0.00048828125,-0.00048828125)">
   <path d="M 0,-2 C -7,14 -16,27 -25,37 L 356,567 C 262,823 215,952 215,954 215,979 228,992 255,992 264,992 276,990 289,987 310,991 331,999 354,1012 L 381,999 492,748 772,1049 836,1024 860,1049 C 881,1039 901,1025 922,1006 886,937 835,863 770,784 769,783 710,716 594,584 L 774,223 C 774,196 753,168 711,139 L 727,119 C 717,90 699,76 672,76 641,76 570,178 457,381 L 164,-76 C 142,-110 111,-127 72,-127 30,-127 9,-110 8,-76 1,-67 -2,-52 -2,-32 -2,-23 -1,-13 0,-2 Z"/>
  </g>
  <g id="bullet-char-template-10004" transform="scale(0.00048828125,-0.00048828125)">
   <path d="M 285,-33 C 182,-33 111,30 74,156 52,228 41,333 41,471 41,549 55,616 82,672 116,743 169,778 240,778 293,778 328,747 346,684 L 369,508 C 377,444 397,411 428,410 L 1163,1116 C 1174,1127 1196,1133 1229,1133 1271,1133 1292,1118 1292,1087 L 1292,965 C 1292,929 1282,901 1262,881 L 442,47 C 390,-6 338,-33 285,-33 Z"/>
  </g>
  <g id="bullet-char-template-9679" transform="scale(0.00048828125,-0.00048828125)">
   <path d="M 813,0 C 632,0 489,54 383,161 276,268 223,411 223,592 223,773 276,916 383,1023 489,1130 632,1184 813,1184 992,1184 1136,1130 1245,1023 1353,916 1407,772 1407,592 1407,412 1353,268 1245,161 1136,54 992,0 813,0 Z"/>
  </g>
  <g id="bullet-char-template-8226" transform="scale(0.00048828125,-0.00048828125)">
   <path d="M 346,457 C 273,457 209,483 155,535 101,586 74,649 74,723 74,796 101,859 155,911 209,963 273,989 346,989 419,989 480,963 531,910 582,859 608,796 608,723 608,648 583,586 532,535 482,483 420,457 346,457 Z"/>
  </g>
  <g id="bullet-char-template-8211" transform="scale(0.00048828125,-0.00048828125)">
   <path d="M -4,459 L 1135,459 1135,606 -4,606 -4,459 Z"/>
  </g>
  <g id="bullet-char-template-61548" transform="scale(0.00048828125,-0.00048828125)">
   <path d="M 173,740 C 173,903 231,1043 346,1159 462,1274 601,1332 765,1332 928,1332 1067,1274 1183,1159 1299,1043 1357,903 1357,740 1357,577 1299,437 1183,322 1067,206 928,148 765,148 601,148 462,206 346,322 231,437 173,577 173,740 Z"/>
  </g>
 </defs>
 <g class="Page">
  <g class="com.sun.star.drawing.PolyPolygonShape">
   <g id="id3">
    <rect class="BoundingBox" stroke="none" fill="none" x="10442" y="12071" width="1501" height="5251"/>
    <path fill="rgb(175,208,149)" stroke="none" d="M 10442,17321 L 10442,12071 11942,12071 11942,17321 10442,17321 Z "/>
   </g>
  </g>
  <g class="Group">
   <g class="com.sun.star.drawing.PolyPolygonShape">
    <g id="id4">
     <rect class="BoundingBox" stroke="none" fill="none" x="9042" y="15321" width="501" height="2001"/>
     <path fill="rgb(42,96,153)" stroke="none" d="M 9042,17321 L 9042,15321 9542,15321 9542,17321 9042,17321 Z "/>
    </g>
   </g>
   <g class="com.sun.star.drawing.ClosedBezierShape">
    <g id="id5">
     <rect class="BoundingBox" stroke="none" fill="none" x="9017" y="15296" width="551" height="2051"/>
     <path fill="rgb(0,0,0)" stroke="none" d="M 9030,17343 C 9026,17340 9023,17337 9020,17334 9018,17330 9017,17325 9017,17321 L 9017,15321 C 9017,15317 9018,15312 9020,15309 9023,15305 9026,15302 9030,15299 9033,15297 9038,15296 9042,15296 L 9542,15296 C 9546,15296 9551,15297 9555,15299 9558,15302 9561,15305 9564,15309 9566,15312 9567,15317 9567,15321 L 9567,17321 C 9567,17325 9566,17330 9564,17334 9561,17337 9558,17340 9555,17343 9551,17345 9546,17346 9542,17346 L 9042,17346 C 9038,17346 9033,17345 9030,17343 Z M 9067,17296 L 9517,17296 9517,15346 9067,15346 9067,17296 Z "/>
    </g>
   </g>
  </g>
  <g class="com.sun.star.drawing.PolyPolygonShape">
   <g id="id6">
    <rect class="BoundingBox" stroke="none" fill="none" x="8017" y="12071" width="51" height="5252"/>
    <path fill="rgb(0,0,0)" stroke="none" d="M 8017,12071 L 8042,12071 8067,12071 8067,17321 8042,17321 8017,17321 8017,12071 Z "/>
   </g>
  </g>
  <g class="com.sun.star.drawing.PolyPolygonShape">
   <g id="id7">
    <rect class="BoundingBox" stroke="none" fill="none" x="8042" y="17296" width="6001" height="51"/>
    <path fill="rgb(0,0,0)" stroke="none" d="M 14042,17296 L 14042,17321 14042,17346 8042,17346 8042,17321 8042,17296 14042,17296 Z "/>
   </g>
  </g>
  <g class="Group">
   <g class="com.sun.star.drawing.PolyPolygonShape">
    <g id="id8">
     <rect class="BoundingBox" stroke="none" fill="none" x="10942" y="15821" width="501" height="1501"/>
     <path fill="rgb(255,128,0)" stroke="none" d="M 10942,17321 L 10942,15821 11442,15821 11442,17321 10942,17321 Z "/>
    </g>
   </g>
   <g class="com.sun.star.drawing.ClosedBezierShape">
    <g id="id9">
     <rect class="BoundingBox" stroke="none" fill="none" x="10917" y="15796" width="551" height="1551"/>
     <path fill="rgb(0,0,0)" stroke="none" d="M 10930,17343 C 10926,17340 10923,17337 10920,17334 10918,17330 10917,17325 10917,17321 L 10917,15821 C 10917,15817 10918,15812 10920,15809 10923,15805 10926,15802 10930,15799 10933,15797 10938,15796 10942,15796 L 11442,15796 C 11446,15796 11451,15797 11455,15799 11458,15802 11461,15805 11464,15809 11466,15812 11467,15817 11467,15821 L 11467,17321 C 11467,17325 11466,17330 11464,17334 11461,17337 11458,17340 11455,17343 11451,17345 11446,17346 11442,17346 L 10942,17346 C 10938,17346 10933,17345 10930,17343 Z M 10967,17296 L 11417,17296 11417,15846 10967,15846 10967,17296 Z "/>
    </g>
   </g>
  </g>
  <g class="Group">
   <g class="com.sun.star.drawing.PolyPolygonShape">
    <g id="id10">
     <rect class="BoundingBox" stroke="none" fill="none" x="10942" y="14292" width="501" height="1502"/>
     <path fill="rgb(201,33,30)" stroke="none" d="M 10942,15792 L 10942,14292 11442,14292 11442,15792 10942,15792 Z "/>
    </g>
   </g>
   <g class="com.sun.star.drawing.ClosedBezierShape">
    <g id="id11">
     <rect class="BoundingBox" stroke="none" fill="none" x="10916" y="14267" width="552" height="1552"/>
     <path fill="rgb(0,0,0)" stroke="none" d="M 10929,15814 C 10926,15811 10923,15808 10920,15805 10918,15801 10917,15796 10917,15792 L 10917,14292 C 10917,14288 10918,14283 10920,14280 10923,14276 10926,14273 10929,14270 10933,14268 10938,14267 10942,14267 L 11442,14267 C 11446,14267 11451,14268 11455,14270 11458,14273 11461,14276 11464,14280 11466,14283 11467,14288 11467,14292 L 11467,15792 C 11467,15796 11466,15801 11464,15805 11461,15808 11458,15811 11455,15814 11451,15816 11446,15817 11442,15817 L 10942,15817 C 10938,15817 10933,15816 10929,15814 Z M 10967,15767 L 11417,15767 11417,14317 10967,14317 10967,15767 Z "/>
    </g>
   </g>
  </g>
  <g class="com.sun.star.drawing.PolyPolygonShape">
   <g id="id12">
    <rect class="BoundingBox" stroke="none" fill="none" x="7791" y="16296" width="252" height="51"/>
    <path fill="rgb(0,0,0)" stroke="none" d="M 7792,16346 L 7792,16321 7792,16296 8042,16296 8042,16321 8042,16346 7792,16346 Z "/>
   </g>
  </g>
  <g class="com.sun.star.drawing.PolyPolygonShape">
   <g id="id13">
    <rect class="BoundingBox" stroke="none" fill="none" x="7791" y="15296" width="252" height="51"/>
    <path fill="rgb(0,0,0)" stroke="none" d="M 7792,15346 L 7792,15321 7792,15296 8042,15296 8042,15321 8042,15346 7792,15346 Z "/>
   </g>
  </g>
  <g class="com.sun.star.drawing.PolyPolygonShape">
   <g id="id14">
    <rect class="BoundingBox" stroke="none" fill="none" x="7791" y="14296" width="252" height="51"/>
    <path fill="rgb(0,0,0)" stroke="none" d="M 7792,14346 L 7792,14321 7792,14296 8042,14296 8042,14321 8042,14346 7792,14346 Z "/>
   </g>
  </g>
  <g class="com.sun.star.drawing.PolyPolygonShape">
   <g id="id15">
    <rect class="BoundingBox" stroke="none" fill="none" x="7791" y="13296" width="252" height="51"/>
    <path fill="rgb(0,0,0)" stroke="none" d="M 7792,13346 L 7792,13321 7792,13296 8042,13296 8042,13321 8042,13346 7792,13346 Z "/>
   </g>
  </g>
  <g class="com.sun.star.drawing.PolyPolygonShape">
   <g id="id16">
    <rect class="BoundingBox" stroke="none" fill="none" x="7791" y="12296" width="252" height="51"/>
    <path fill="rgb(0,0,0)" stroke="none" d="M 7792,12346 L 7792,12321 7792,12296 8042,12296 8042,12321 8042,12346 7792,12346 Z "/>
   </g>
  </g>
  <g class="Group">
   <g class="com.sun.star.drawing.ClosedBezierShape">
    <g id="id17">
     <rect class="BoundingBox" stroke="none" fill="none" x="6799" y="16243" width="183" height="247"/>
     <path fill="rgb(0,0,0)" stroke="none" d="M 6966,16488 C 6970,16468 6975,16444 6981,16422 6977,16421 6972,16420 6969,16420 6953,16452 6949,16453 6929,16453 6928,16453 6886,16455 6840,16455 L 6842,16460 C 6918,16395 6963,16353 6963,16306 6963,16268 6927,16244 6887,16244 6858,16244 6830,16256 6808,16280 6810,16283 6813,16286 6816,16289 6832,16277 6851,16270 6870,16270 6899,16270 6921,16286 6921,16319 6921,16357 6893,16405 6800,16478 6800,16481 6800,16484 6802,16488 6813,16488 6833,16488 6862,16488 6893,16488 6934,16488 6966,16488 Z "/>
    </g>
   </g>
   <g class="com.sun.star.drawing.ClosedBezierShape">
    <g id="id18">
     <rect class="BoundingBox" stroke="none" fill="none" x="7014" y="16243" width="188" height="251"/>
     <path fill="rgb(0,0,0)" stroke="none" d="M 7106,16259 C 7148,16259 7160,16317 7160,16372 7160,16428 7148,16478 7109,16478 7068,16478 7055,16419 7055,16363 7055,16309 7068,16259 7106,16259 Z M 7201,16366 C 7201,16301 7175,16244 7110,16244 7043,16244 7014,16304 7014,16370 7014,16440 7046,16493 7107,16493 7168,16493 7201,16439 7201,16366 Z "/>
    </g>
   </g>
   <g class="com.sun.star.drawing.ClosedBezierShape">
    <g id="id19">
     <rect class="BoundingBox" stroke="none" fill="none" x="7229" y="16216" width="296" height="277"/>
     <path fill="rgb(0,0,0)" stroke="none" d="M 7291,16229 C 7315,16229 7322,16260 7322,16291 7322,16322 7315,16349 7293,16349 7270,16349 7262,16316 7262,16286 7262,16256 7270,16229 7291,16229 Z M 7354,16288 C 7354,16250 7337,16217 7293,16217 7249,16217 7230,16252 7230,16290 7230,16330 7251,16360 7292,16360 7333,16360 7354,16330 7354,16288 Z M 7475,16231 C 7471,16227 7466,16224 7461,16221 L 7279,16481 C 7283,16485 7288,16489 7292,16492 L 7475,16231 Z M 7461,16360 C 7485,16360 7492,16391 7492,16422 7492,16453 7485,16480 7463,16480 7439,16480 7431,16447 7431,16417 7431,16387 7439,16360 7461,16360 Z M 7524,16419 C 7524,16381 7507,16348 7463,16348 7419,16348 7399,16383 7399,16421 7399,16461 7421,16492 7461,16492 7502,16492 7524,16461 7524,16419 Z "/>
    </g>
   </g>
  </g>
  <g class="Group">
   <g class="com.sun.star.drawing.ClosedBezierShape">
    <g id="id20">
     <rect class="BoundingBox" stroke="none" fill="none" x="6799" y="15245" width="210" height="290"/>
     <path fill="rgb(0,0,0)" stroke="none" d="M 6965,15533 L 6965,15283 C 6965,15275 6965,15267 6965,15247 6957,15246 6946,15245 6936,15245 6889,15304 6845,15362 6800,15424 6800,15431 6800,15439 6801,15446 L 7006,15446 C 7007,15436 7007,15426 7008,15415 L 6814,15415 6819,15426 C 6857,15373 6892,15325 6934,15273 L 6926,15265 6926,15533 C 6939,15534 6952,15534 6965,15533 Z "/>
    </g>
   </g>
   <g class="com.sun.star.drawing.ClosedBezierShape">
    <g id="id21">
     <rect class="BoundingBox" stroke="none" fill="none" x="7034" y="15243" width="188" height="251"/>
     <path fill="rgb(0,0,0)" stroke="none" d="M 7126,15259 C 7168,15259 7180,15317 7180,15372 7180,15428 7168,15478 7129,15478 7088,15478 7075,15419 7075,15363 7075,15309 7088,15259 7126,15259 Z M 7221,15366 C 7221,15301 7195,15244 7130,15244 7063,15244 7034,15304 7034,15370 7034,15440 7066,15493 7127,15493 7188,15493 7221,15439 7221,15366 Z "/>
    </g>
   </g>
   <g class="com.sun.star.drawing.ClosedBezierShape">
    <g id="id22">
     <rect class="BoundingBox" stroke="none" fill="none" x="7249" y="15216" width="296" height="277"/>
     <path fill="rgb(0,0,0)" stroke="none" d="M 7311,15229 C 7335,15229 7342,15260 7342,15291 7342,15322 7335,15349 7313,15349 7290,15349 7282,15316 7282,15286 7282,15256 7290,15229 7311,15229 Z M 7374,15288 C 7374,15250 7357,15217 7313,15217 7269,15217 7250,15252 7250,15290 7250,15330 7271,15360 7312,15360 7352,15360 7374,15330 7374,15288 Z M 7495,15231 C 7491,15227 7486,15224 7481,15221 L 7298,15481 C 7303,15485 7307,15489 7312,15492 L 7495,15231 Z M 7481,15360 C 7504,15360 7512,15391 7512,15422 7512,15453 7504,15480 7482,15480 7459,15480 7451,15447 7451,15417 7451,15387 7459,15360 7481,15360 Z M 7544,15419 C 7544,15381 7527,15348 7483,15348 7439,15348 7419,15383 7419,15421 7419,15461 7440,15492 7481,15492 7522,15492 7544,15461 7544,15419 Z "/>
    </g>
   </g>
  </g>
  <g class="Group">
   <g class="com.sun.star.drawing.ClosedBezierShape">
    <g id="id23">
     <rect class="BoundingBox" stroke="none" fill="none" x="6809" y="14199" width="191" height="295"/>
     <path fill="rgb(0,0,0)" stroke="none" d="M 6906,14493 C 6952,14493 6999,14461 6999,14396 6999,14336 6958,14310 6915,14310 6893,14310 6871,14316 6853,14329 L 6849,14348 C 6865,14336 6882,14330 6897,14330 6927,14330 6955,14353 6955,14408 6955,14459 6931,14478 6908,14478 6880,14478 6852,14449 6852,14374 6852,14286 6896,14214 6975,14214 6983,14214 6986,14214 6989,14214 6990,14209 6991,14205 6991,14200 6986,14199 6979,14199 6977,14199 6864,14199 6809,14294 6809,14379 6809,14460 6859,14493 6906,14493 Z "/>
    </g>
   </g>
   <g class="com.sun.star.drawing.ClosedBezierShape">
    <g id="id24">
     <rect class="BoundingBox" stroke="none" fill="none" x="7030" y="14243" width="188" height="251"/>
     <path fill="rgb(0,0,0)" stroke="none" d="M 7122,14259 C 7164,14259 7176,14317 7176,14372 7176,14428 7164,14478 7125,14478 7084,14478 7071,14419 7071,14363 7071,14309 7084,14259 7122,14259 Z M 7217,14366 C 7217,14301 7191,14244 7126,14244 7059,14244 7030,14304 7030,14370 7030,14440 7062,14493 7123,14493 7184,14493 7217,14439 7217,14366 Z "/>
    </g>
   </g>
   <g class="com.sun.star.drawing.ClosedBezierShape">
    <g id="id25">
     <rect class="BoundingBox" stroke="none" fill="none" x="7245" y="14216" width="296" height="277"/>
     <path fill="rgb(0,0,0)" stroke="none" d="M 7307,14229 C 7331,14229 7338,14260 7338,14291 7338,14322 7331,14349 7309,14349 7286,14349 7278,14316 7278,14286 7278,14256 7286,14229 7307,14229 Z M 7370,14288 C 7370,14250 7353,14217 7309,14217 7265,14217 7246,14252 7246,14290 7246,14330 7267,14360 7308,14360 7348,14360 7370,14330 7370,14288 Z M 7491,14231 C 7487,14227 7482,14224 7477,14221 L 7295,14481 C 7299,14485 7303,14489 7308,14492 L 7491,14231 Z M 7477,14360 C 7501,14360 7508,14391 7508,14422 7508,14453 7501,14480 7478,14480 7455,14480 7447,14447 7447,14417 7447,14387 7455,14360 7477,14360 Z M 7540,14419 C 7540,14381 7523,14348 7479,14348 7435,14348 7415,14383 7415,14421 7415,14461 7437,14492 7477,14492 7518,14492 7540,14461 7540,14419 Z "/>
    </g>
   </g>
  </g>
  <g class="Group">
   <g class="com.sun.star.drawing.ClosedBezierShape">
    <g id="id26">
     <rect class="BoundingBox" stroke="none" fill="none" x="6804" y="13170" width="187" height="295"/>
     <path fill="rgb(0,0,0)" stroke="none" d="M 6892,13464 C 6952,13464 6989,13427 6989,13383 6989,13342 6956,13322 6923,13305 6886,13284 6854,13268 6854,13235 6854,13208 6870,13184 6898,13184 6927,13184 6939,13211 6939,13240 6939,13272 6925,13292 6911,13300 L 6927,13310 6927,13306 C 6950,13293 6979,13270 6979,13236 6979,13203 6951,13170 6901,13170 6849,13170 6815,13204 6815,13245 6815,13281 6840,13301 6872,13319 6911,13343 6949,13360 6949,13396 6949,13423 6931,13450 6897,13450 6862,13450 6846,13421 6846,13389 6846,13357 6861,13335 6881,13321 L 6865,13312 6865,13316 C 6834,13332 6804,13355 6804,13392 6804,13431 6836,13464 6892,13464 Z "/>
    </g>
   </g>
   <g class="com.sun.star.drawing.ClosedBezierShape">
    <g id="id27">
     <rect class="BoundingBox" stroke="none" fill="none" x="7017" y="13214" width="189" height="251"/>
     <path fill="rgb(0,0,0)" stroke="none" d="M 7110,13230 C 7151,13230 7164,13288 7164,13343 7164,13399 7151,13449 7113,13449 7072,13449 7059,13390 7059,13334 7059,13280 7071,13230 7110,13230 Z M 7204,13337 C 7204,13272 7179,13215 7113,13215 7047,13215 7018,13275 7018,13341 7018,13411 7050,13464 7110,13464 7172,13464 7204,13410 7204,13337 Z "/>
    </g>
   </g>
   <g class="com.sun.star.drawing.ClosedBezierShape">
    <g id="id28">
     <rect class="BoundingBox" stroke="none" fill="none" x="7233" y="13187" width="296" height="277"/>
     <path fill="rgb(0,0,0)" stroke="none" d="M 7295,13200 C 7319,13200 7326,13231 7326,13262 7326,13293 7319,13320 7296,13320 7273,13320 7265,13287 7265,13257 7265,13227 7273,13200 7295,13200 Z M 7358,13259 C 7358,13221 7341,13188 7297,13188 7253,13188 7233,13223 7233,13261 7233,13301 7255,13331 7295,13331 7336,13331 7358,13301 7358,13259 Z M 7478,13202 C 7474,13198 7470,13195 7465,13192 L 7282,13452 C 7286,13456 7291,13460 7296,13463 L 7478,13202 Z M 7464,13331 C 7488,13331 7496,13362 7496,13393 7496,13424 7488,13451 7466,13451 7443,13451 7435,13418 7435,13388 7435,13358 7443,13331 7464,13331 Z M 7527,13390 C 7527,13352 7510,13319 7466,13319 7422,13319 7403,13354 7403,13392 7403,13432 7424,13463 7465,13463 7506,13463 7527,13432 7527,13390 Z "/>
    </g>
   </g>
  </g>
  <g class="Group">
   <g class="com.sun.star.drawing.ClosedBezierShape">
    <g id="id29">
     <rect class="BoundingBox" stroke="none" fill="none" x="6798" y="12213" width="130" height="248"/>
     <path fill="rgb(0,0,0)" stroke="none" d="M 6811,12459 C 6827,12459 6840,12458 6870,12458 6901,12458 6913,12459 6926,12459 6927,12455 6927,12452 6926,12447 6889,12444 6888,12443 6888,12411 L 6888,12268 C 6888,12246 6892,12230 6898,12223 6897,12219 6895,12217 6892,12214 6860,12227 6837,12236 6799,12246 6799,12250 6800,12254 6801,12258 6818,12255 6831,12253 6837,12253 6847,12253 6848,12257 6848,12270 L 6848,12414 C 6848,12442 6848,12443 6811,12447 6810,12451 6810,12455 6811,12459 Z "/>
    </g>
   </g>
   <g class="com.sun.star.drawing.ClosedBezierShape">
    <g id="id30">
     <rect class="BoundingBox" stroke="none" fill="none" x="6952" y="12214" width="189" height="251"/>
     <path fill="rgb(0,0,0)" stroke="none" d="M 7045,12230 C 7086,12230 7099,12288 7099,12343 7099,12399 7086,12449 7048,12449 7007,12449 6994,12390 6994,12334 6994,12280 7006,12230 7045,12230 Z M 7139,12337 C 7139,12272 7114,12215 7048,12215 6982,12215 6953,12275 6953,12341 6953,12411 6985,12464 7045,12464 7107,12464 7139,12410 7139,12337 Z "/>
    </g>
   </g>
   <g class="com.sun.star.drawing.ClosedBezierShape">
    <g id="id31">
     <rect class="BoundingBox" stroke="none" fill="none" x="7172" y="12214" width="188" height="251"/>
     <path fill="rgb(0,0,0)" stroke="none" d="M 7264,12230 C 7306,12230 7318,12288 7318,12343 7318,12399 7306,12449 7267,12449 7226,12449 7213,12390 7213,12334 7213,12280 7226,12230 7264,12230 Z M 7359,12337 C 7359,12272 7333,12215 7267,12215 7201,12215 7172,12275 7172,12341 7172,12411 7204,12464 7264,12464 7326,12464 7359,12410 7359,12337 Z "/>
    </g>
   </g>
   <g class="com.sun.star.drawing.ClosedBezierShape">
    <g id="id32">
     <rect class="BoundingBox" stroke="none" fill="none" x="7387" y="12187" width="296" height="277"/>
     <path fill="rgb(0,0,0)" stroke="none" d="M 7449,12200 C 7473,12200 7480,12231 7480,12262 7480,12293 7473,12320 7451,12320 7427,12320 7420,12287 7420,12257 7420,12227 7427,12200 7449,12200 Z M 7512,12259 C 7512,12221 7495,12188 7451,12188 7407,12188 7387,12223 7387,12261 7387,12301 7409,12331 7450,12331 7490,12331 7512,12301 7512,12259 Z M 7633,12202 C 7628,12198 7624,12195 7619,12192 L 7436,12452 C 7441,12456 7445,12460 7450,12463 L 7633,12202 Z M 7619,12331 C 7642,12331 7650,12362 7650,12393 7650,12424 7642,12451 7620,12451 7597,12451 7589,12418 7589,12388 7589,12358 7597,12331 7619,12331 Z M 7682,12390 C 7682,12352 7664,12319 7621,12319 7576,12319 7557,12354 7557,12392 7557,12432 7578,12463 7619,12463 7660,12463 7682,12432 7682,12390 Z "/>
    </g>
   </g>
  </g>
  <g class="Group">
   <g class="com.sun.star.drawing.ClosedBezierShape">
    <g id="id33">
     <rect class="BoundingBox" stroke="none" fill="none" x="8909" y="17670" width="194" height="225"/>
     <path fill="rgb(0,0,0)" stroke="none" d="M 9020,17893 C 9049,17893 9073,17886 9095,17878 9097,17856 9098,17836 9102,17815 9097,17814 9092,17814 9088,17814 9079,17861 9059,17878 9027,17878 8977,17878 8954,17834 8954,17782 8954,17732 8974,17686 9025,17686 9058,17686 9079,17705 9086,17749 9090,17749 9095,17749 9099,17748 9098,17724 9097,17703 9096,17681 9094,17682 9089,17682 9087,17682 9081,17682 9075,17680 9067,17678 9049,17673 9036,17671 9022,17671 8953,17671 8909,17717 8909,17784 8909,17851 8953,17893 9020,17893 Z "/>
    </g>
   </g>
   <g class="com.sun.star.drawing.ClosedBezierShape">
    <g id="id34">
     <rect class="BoundingBox" stroke="none" fill="none" x="9160" y="17670" width="218" height="225"/>
     <path fill="rgb(0,0,0)" stroke="none" d="M 9267,17894 C 9334,17894 9377,17846 9377,17781 9377,17717 9336,17671 9270,17671 9203,17671 9160,17718 9160,17784 9160,17848 9200,17894 9267,17894 Z M 9270,17879 C 9223,17879 9205,17828 9205,17782 9205,17736 9222,17686 9269,17686 9316,17686 9333,17735 9333,17784 9333,17831 9316,17879 9270,17879 Z "/>
    </g>
   </g>
   <g class="com.sun.star.drawing.ClosedBezierShape">
    <g id="id35">
     <rect class="BoundingBox" stroke="none" fill="none" x="9422" y="17674" width="238" height="218"/>
     <path fill="rgb(0,0,0)" stroke="none" d="M 9602,17890 C 9609,17890 9618,17890 9623,17888 L 9623,17726 C 9623,17692 9624,17691 9658,17686 9659,17682 9659,17678 9658,17674 9645,17675 9625,17675 9613,17675 9601,17675 9577,17675 9564,17675 9563,17679 9563,17683 9564,17687 9583,17688 9595,17691 9600,17697 9605,17703 9605,17712 9605,17731 L 9605,17833 9608,17830 9495,17675 C 9487,17675 9473,17675 9471,17675 9454,17675 9437,17675 9423,17675 9422,17679 9422,17683 9423,17687 9458,17691 9461,17693 9461,17733 L 9461,17837 C 9461,17871 9459,17872 9425,17876 9425,17881 9425,17885 9425,17888 9439,17888 9458,17888 9470,17888 9483,17888 9502,17888 9516,17888 9517,17885 9517,17880 9516,17876 9498,17874 9488,17871 9484,17866 9479,17860 9479,17851 9479,17832 L 9479,17714 9476,17716 9602,17890 Z "/>
    </g>
   </g>
  </g>
  <g class="Group">
   <g class="com.sun.star.drawing.ClosedBezierShape">
    <g id="id36">
     <rect class="BoundingBox" stroke="none" fill="none" x="10528" y="17674" width="189" height="217"/>
     <path fill="rgb(0,0,0)" stroke="none" d="M 10529,17888 C 10545,17888 10566,17888 10588,17888 10619,17888 10665,17889 10704,17889 10706,17873 10710,17849 10715,17820 10712,17819 10707,17819 10704,17820 10695,17838 10687,17853 10679,17861 10671,17869 10659,17872 10643,17872 L 10603,17872 C 10602,17869 10602,17858 10602,17841 L 10602,17717 C 10602,17690 10604,17690 10638,17687 10638,17683 10638,17679 10638,17675 10624,17675 10596,17675 10583,17675 10570,17675 10543,17675 10529,17675 10528,17679 10528,17683 10529,17687 10562,17690 10563,17691 10563,17722 L 10563,17846 C 10563,17873 10562,17873 10529,17876 10528,17881 10528,17885 10529,17888 Z "/>
    </g>
   </g>
   <g class="com.sun.star.drawing.ClosedBezierShape">
    <g id="id37">
     <rect class="BoundingBox" stroke="none" fill="none" x="10750" y="17674" width="112" height="216"/>
     <path fill="rgb(0,0,0)" stroke="none" d="M 10751,17888 C 10766,17888 10792,17888 10806,17888 10819,17888 10846,17888 10860,17888 10861,17885 10861,17881 10860,17876 10825,17873 10825,17873 10825,17841 L 10825,17717 C 10825,17690 10827,17690 10860,17687 10861,17683 10861,17679 10860,17675 10846,17675 10820,17675 10806,17675 10793,17675 10765,17675 10751,17675 10750,17679 10750,17683 10751,17687 10784,17690 10786,17691 10786,17722 L 10786,17846 C 10786,17873 10785,17873 10751,17876 10750,17881 10750,17885 10751,17888 Z "/>
    </g>
   </g>
   <g class="com.sun.star.drawing.ClosedBezierShape">
    <g id="id38">
     <rect class="BoundingBox" stroke="none" fill="none" x="10903" y="17674" width="188" height="216"/>
     <path fill="rgb(0,0,0)" stroke="none" d="M 10904,17888 C 10918,17888 10948,17888 10959,17888 10972,17888 10987,17889 11003,17889 11017,17889 11031,17888 11043,17885 11069,17877 11089,17858 11089,17828 11089,17793 11061,17777 11027,17774 L 11027,17774 C 11061,17765 11078,17747 11078,17722 11078,17691 11053,17675 11003,17675 10992,17675 10973,17675 10960,17675 10946,17675 10920,17675 10904,17675 10904,17679 10904,17683 10904,17687 10937,17690 10939,17691 10939,17722 L 10939,17846 C 10939,17873 10938,17873 10904,17876 10904,17881 10904,17885 10904,17888 Z M 11001,17874 C 10993,17874 10987,17873 10979,17871 10978,17866 10978,17857 10978,17845 L 10978,17691 C 10985,17691 10989,17690 10995,17690 11022,17690 11035,17703 11035,17730 11035,17757 11021,17770 10985,17770 10982,17770 10979,17770 10973,17769 L 10973,17786 C 10980,17785 10989,17785 10994,17785 11029,17785 11046,17798 11046,17828 11046,17859 11029,17874 11001,17874 Z "/>
    </g>
   </g>
   <g class="com.sun.star.drawing.PolyPolygonShape">
    <g id="id39">
     <rect class="BoundingBox" stroke="none" fill="none" x="11111" y="17597" width="153" height="361"/>
     <path fill="rgb(0,0,0)" stroke="none" d="M 11238,17598 L 11111,17957 11136,17957 11263,17598 11238,17598 Z "/>
    </g>
   </g>
   <g class="com.sun.star.drawing.ClosedBezierShape">
    <g id="id40">
     <rect class="BoundingBox" stroke="none" fill="none" x="11301" y="17674" width="189" height="217"/>
     <path fill="rgb(0,0,0)" stroke="none" d="M 11302,17888 C 11318,17888 11339,17888 11361,17888 11393,17888 11439,17889 11477,17889 11479,17873 11483,17849 11489,17820 11485,17819 11480,17819 11477,17820 11468,17838 11461,17853 11453,17861 11444,17869 11432,17872 11416,17872 L 11376,17872 C 11376,17869 11376,17858 11376,17841 L 11376,17717 C 11376,17690 11377,17690 11411,17687 11412,17683 11412,17679 11411,17675 11397,17675 11369,17675 11356,17675 11343,17675 11317,17675 11302,17675 11301,17679 11301,17683 11302,17687 11335,17690 11337,17691 11337,17722 L 11337,17846 C 11337,17873 11335,17873 11302,17876 11301,17881 11301,17885 11302,17888 Z "/>
    </g>
   </g>
   <g class="com.sun.star.drawing.ClosedBezierShape">
    <g id="id41">
     <rect class="BoundingBox" stroke="none" fill="none" x="11507" y="17671" width="234" height="219"/>
     <path fill="rgb(0,0,0)" stroke="none" d="M 11508,17888 C 11522,17888 11533,17888 11547,17888 11563,17888 11579,17888 11595,17888 11596,17885 11596,17881 11595,17876 11572,17874 11564,17873 11564,17862 11564,17857 11565,17852 11569,17842 L 11614,17717 11611,17717 11659,17848 C 11661,17855 11662,17860 11662,17864 11662,17873 11655,17874 11631,17876 11631,17881 11631,17885 11631,17888 11650,17888 11668,17888 11687,17888 11704,17888 11722,17888 11739,17888 11739,17885 11739,17881 11739,17876 11710,17873 11709,17872 11696,17836 L 11634,17672 C 11629,17672 11619,17673 11614,17675 L 11552,17833 C 11538,17871 11534,17873 11508,17876 11507,17881 11507,17885 11508,17888 Z M 11656,17815 L 11651,17800 11574,17800 11568,17815 11656,17815 Z "/>
    </g>
   </g>
   <g class="com.sun.star.drawing.ClosedBezierShape">
    <g id="id42">
     <rect class="BoundingBox" stroke="none" fill="none" x="11764" y="17674" width="188" height="216"/>
     <path fill="rgb(0,0,0)" stroke="none" d="M 11765,17888 C 11779,17888 11809,17888 11820,17888 11833,17888 11848,17889 11864,17889 11878,17889 11892,17888 11904,17885 11930,17877 11950,17858 11950,17828 11950,17793 11922,17777 11888,17774 L 11888,17774 C 11922,17765 11939,17747 11939,17722 11939,17691 11914,17675 11864,17675 11853,17675 11834,17675 11821,17675 11807,17675 11781,17675 11765,17675 11765,17679 11765,17683 11765,17687 11798,17690 11800,17691 11800,17722 L 11800,17846 C 11800,17873 11799,17873 11765,17876 11765,17881 11765,17885 11765,17888 Z M 11862,17874 C 11854,17874 11848,17873 11839,17871 11839,17866 11839,17857 11839,17845 L 11839,17691 C 11846,17691 11850,17690 11856,17690 11883,17690 11896,17703 11896,17730 11896,17757 11882,17770 11846,17770 11843,17770 11839,17770 11834,17769 L 11834,17786 C 11841,17785 11850,17785 11855,17785 11890,17785 11907,17798 11907,17828 11907,17859 11890,17874 11862,17874 Z "/>
    </g>
   </g>
  </g>
  <g class="com.sun.star.drawing.ClosedBezierShape">
   <g id="id43">
    <rect class="BoundingBox" stroke="none" fill="none" x="10516" y="18071" width="1553" height="527"/>
    <path fill="rgb(0,0,0)" stroke="none" d="M 12042,18071 L 12067,18071 C 12067,18104 12063,18137 12056,18168 12048,18200 12038,18229 12025,18254 12012,18280 11997,18302 11980,18318 11971,18327 11961,18333 11951,18338 11946,18341 11940,18343 11935,18344 11929,18345 11923,18346 11917,18346 L 11417,18346 C 11415,18346 11413,18346 11411,18347 11409,18347 11407,18348 11405,18349 11399,18352 11394,18356 11388,18361 11376,18373 11364,18390 11354,18410 11343,18432 11334,18458 11327,18485 11321,18513 11317,18542 11317,18572 11317,18576 11316,18581 11314,18585 11311,18588 11308,18591 11305,18594 11301,18596 11296,18597 11292,18597 11288,18597 11283,18596 11280,18594 11276,18591 11273,18588 11270,18585 11268,18581 11267,18576 11267,18572 11267,18542 11263,18513 11257,18485 11250,18458 11241,18432 11230,18410 11220,18390 11208,18373 11196,18361 11190,18356 11185,18352 11179,18349 11177,18348 11175,18347 11173,18347 11171,18346 11169,18346 11167,18346 L 10667,18346 C 10661,18346 10655,18345 10649,18344 10644,18343 10638,18341 10633,18338 10623,18333 10613,18327 10604,18318 10587,18302 10571,18281 10558,18254 10545,18229 10535,18200 10527,18169 10520,18137 10516,18104 10516,18071 L 10541,18071 10566,18071 C 10566,18100 10570,18130 10576,18157 10583,18184 10592,18210 10603,18232 10613,18252 10625,18269 10638,18281 10643,18286 10649,18290 10654,18293 10656,18294 10659,18295 10661,18295 10663,18296 10665,18296 10667,18296 L 11167,18296 C 11173,18296 11179,18297 11185,18298 11190,18299 11196,18301 11201,18304 11211,18309 11220,18316 11230,18324 11246,18340 11262,18362 11275,18388 11281,18400 11287,18414 11292,18428 11297,18414 11303,18400 11309,18388 11322,18362 11338,18340 11354,18324 11364,18316 11373,18309 11383,18304 11388,18301 11394,18299 11399,18298 11405,18297 11411,18296 11417,18296 L 11917,18296 C 11919,18296 11921,18296 11923,18295 11925,18295 11927,18294 11930,18293 11935,18290 11941,18286 11946,18281 11959,18269 11971,18252 11981,18232 11992,18210 12001,18184 12007,18157 12013,18130 12017,18100 12017,18071 L 12042,18071 Z "/>
   </g>
  </g>
  <g class="Group">
   <g class="com.sun.star.drawing.ClosedBezierShape">
    <g id="id44">
     <rect class="BoundingBox" stroke="none" fill="none" x="11022" y="18696" width="95" height="298"/>
     <path fill="rgb(0,0,0)" stroke="none" d="M 11103,18944 C 11092,18958 11077,18968 11068,18968 11063,18968 11061,18965 11061,18960 11061,18955 11063,18948 11064,18945 L 11100,18769 C 11105,18740 11111,18718 11116,18699 L 11111,18696 C 11092,18704 11064,18707 11036,18709 11035,18713 11035,18716 11036,18720 11061,18720 11068,18721 11068,18732 11068,18735 11067,18741 11066,18749 L 11025,18947 C 11023,18954 11022,18960 11022,18966 11022,18982 11031,18993 11050,18993 11074,18993 11095,18975 11112,18952 11109,18949 11107,18946 11103,18944 Z "/>
    </g>
   </g>
   <g class="com.sun.star.drawing.ClosedBezierShape">
    <g id="id45">
     <rect class="BoundingBox" stroke="none" fill="none" x="11128" y="18801" width="159" height="193"/>
     <path fill="rgb(0,0,0)" stroke="none" d="M 11168,18903 C 11225,18898 11286,18875 11286,18834 11286,18814 11273,18802 11244,18802 11177,18802 11129,18867 11129,18925 11129,18966 11154,18993 11195,18993 11230,18993 11255,18973 11272,18943 11270,18940 11267,18937 11263,18935 11248,18954 11228,18967 11206,18967 11181,18967 11170,18951 11170,18925 11170,18881 11200,18818 11233,18818 11244,18818 11249,18826 11249,18837 11249,18870 11208,18886 11168,18890 L 11168,18903 Z "/>
    </g>
   </g>
   <g class="com.sun.star.drawing.ClosedBezierShape">
    <g id="id46">
     <rect class="BoundingBox" stroke="none" fill="none" x="11224" y="18694" width="264" height="394"/>
     <path fill="rgb(0,0,0)" stroke="none" d="M 11344,18828 L 11343,18824 11313,18976 C 11299,19042 11288,19071 11266,19071 L 11275,19081 C 11271,19057 11256,19045 11244,19045 11234,19045 11225,19052 11225,19064 11225,19077 11238,19087 11259,19087 11309,19087 11339,19026 11354,18957 L 11384,18813 C 11397,18752 11406,18709 11436,18709 11440,18709 11441,18710 11445,18712 L 11440,18702 C 11440,18729 11455,18739 11467,18739 11478,18739 11486,18731 11486,18721 11486,18706 11469,18695 11445,18695 11396,18695 11361,18739 11350,18791 11348,18800 11347,18806 11345,18809 11343,18813 11338,18815 11313,18819 11312,18821 11312,18824 11312,18828 L 11344,18828 Z M 11424,18828 C 11426,18823 11427,18817 11427,18811 L 11377,18811 11373,18828 11424,18828 Z "/>
    </g>
   </g>
   <g class="com.sun.star.drawing.ClosedBezierShape">
    <g id="id47">
     <rect class="BoundingBox" stroke="none" fill="none" x="11427" y="18755" width="118" height="240"/>
     <path fill="rgb(0,0,0)" stroke="none" d="M 11540,18828 C 11542,18822 11544,18817 11544,18811 L 11467,18811 11430,18817 C 11428,18820 11428,18824 11428,18828 L 11540,18828 Z M 11472,18759 C 11468,18780 11462,18805 11459,18820 L 11433,18937 C 11430,18949 11429,18957 11429,18962 11429,18975 11436,18993 11462,18993 11486,18993 11511,18978 11529,18952 11526,18949 11523,18947 11520,18945 11508,18960 11491,18969 11480,18969 11471,18969 11468,18964 11468,18956 11468,18952 11469,18944 11471,18934 L 11497,18822 C 11504,18790 11508,18774 11512,18757 L 11511,18755 C 11498,18757 11485,18759 11472,18759 Z "/>
    </g>
   </g>
  </g>
  <g class="com.sun.star.drawing.ClosedBezierShape">
   <g id="id48">
    <rect class="BoundingBox" stroke="none" fill="none" x="8765" y="18059" width="1053" height="527"/>
    <path fill="rgb(0,0,0)" stroke="none" d="M 9792,18059 L 9817,18059 C 9817,18124 9806,18190 9790,18239 9781,18265 9771,18287 9760,18302 9753,18311 9746,18319 9739,18324 9735,18327 9730,18329 9725,18331 9720,18333 9714,18334 9709,18334 L 9376,18334 C 9375,18334 9375,18335 9374,18335 9371,18337 9368,18341 9365,18345 9357,18357 9349,18374 9342,18395 9327,18440 9317,18500 9317,18560 9317,18564 9316,18569 9314,18573 9311,18576 9308,18579 9304,18582 9301,18584 9296,18585 9292,18585 9288,18585 9283,18584 9279,18582 9276,18579 9273,18576 9270,18573 9268,18569 9267,18564 9267,18560 9267,18500 9257,18440 9242,18395 9235,18374 9227,18357 9219,18345 9216,18341 9213,18337 9210,18335 9209,18335 9209,18334 9208,18334 L 8875,18334 C 8870,18334 8864,18333 8859,18331 8854,18329 8849,18327 8845,18324 8838,18319 8831,18312 8824,18302 8813,18287 8802,18265 8794,18239 8777,18190 8766,18124 8766,18059 L 8791,18059 8816,18059 C 8816,18119 8826,18178 8841,18223 8848,18244 8856,18261 8864,18273 8868,18277 8871,18281 8874,18283 8874,18283 8875,18284 8875,18284 L 9209,18284 C 9214,18284 9220,18285 9225,18287 9230,18289 9234,18291 9239,18294 9246,18299 9253,18307 9260,18316 9271,18331 9281,18353 9290,18379 9290,18382 9291,18384 9292,18387 9293,18384 9294,18382 9294,18379 9303,18353 9313,18331 9324,18316 9331,18307 9338,18299 9345,18294 9350,18291 9354,18289 9359,18287 9364,18285 9370,18284 9375,18284 L 9708,18284 C 9709,18284 9710,18283 9710,18283 9713,18281 9716,18277 9719,18273 9728,18261 9736,18244 9743,18223 9757,18178 9767,18119 9767,18059 L 9792,18059 Z "/>
   </g>
  </g>
  <g class="Group">
   <g class="com.sun.star.drawing.ClosedBezierShape">
    <g id="id49">
     <rect class="BoundingBox" stroke="none" fill="none" x="8945" y="18789" width="175" height="188"/>
     <path fill="rgb(0,0,0)" stroke="none" d="M 8997,18976 C 9018,18882 9053,18827 9078,18816 L 9068,18804 C 9071,18824 9086,18832 9098,18832 9109,18832 9119,18825 9119,18812 9119,18801 9112,18790 9094,18790 9064,18790 9039,18821 9013,18886 L 8997,18884 8997,18976 Z M 8997,18976 L 9009,18891 9023,18845 C 9029,18824 9030,18817 9030,18811 9030,18800 9026,18791 9009,18791 8990,18791 8966,18803 8946,18827 8949,18830 8951,18833 8955,18835 8966,18823 8979,18814 8986,18814 8991,18814 8993,18817 8993,18824 8993,18827 8992,18830 8991,18838 L 8959,18976 8997,18976 Z "/>
    </g>
   </g>
   <g class="com.sun.star.drawing.ClosedBezierShape">
    <g id="id50">
     <rect class="BoundingBox" stroke="none" fill="none" x="9107" y="18693" width="111" height="289"/>
     <path fill="rgb(0,0,0)" stroke="none" d="M 9207,18932 C 9196,18946 9181,18956 9172,18956 9167,18956 9165,18953 9165,18948 9165,18943 9167,18937 9168,18933 L 9193,18830 C 9194,18824 9195,18819 9195,18814 9195,18801 9188,18791 9170,18791 9151,18791 9128,18803 9107,18827 9110,18830 9113,18833 9116,18835 9128,18823 9140,18814 9148,18814 9152,18814 9155,18817 9155,18824 9155,18827 9154,18830 9152,18838 L 9129,18935 C 9127,18942 9126,18948 9126,18954 9126,18970 9135,18981 9154,18981 9179,18981 9199,18963 9216,18940 9213,18937 9211,18934 9207,18932 Z M 9189,18746 C 9205,18746 9217,18732 9217,18717 9217,18703 9208,18693 9194,18693 9179,18693 9166,18706 9166,18721 9166,18735 9175,18746 9189,18746 Z "/>
    </g>
   </g>
   <g class="com.sun.star.drawing.ClosedBezierShape">
    <g id="id51">
     <rect class="BoundingBox" stroke="none" fill="none" x="9209" y="18759" width="223" height="317"/>
     <path fill="rgb(0,0,0)" stroke="none" d="M 9388,18822 C 9414,18808 9431,18794 9431,18777 9431,18765 9423,18759 9413,18759 9402,18759 9395,18768 9395,18778 9395,18784 9397,18791 9402,18796 9398,18802 9392,18808 9381,18813 L 9388,18822 Z M 9267,18969 C 9238,18984 9210,19000 9210,19027 9210,19060 9251,19075 9286,19075 9333,19075 9400,19050 9400,19005 9400,18971 9361,18962 9325,18956 9296,18951 9270,18948 9270,18935 9270,18927 9279,18919 9293,18910 L 9281,18906 C 9251,18922 9238,18934 9238,18950 9238,18978 9278,18981 9314,18988 9341,18992 9366,18999 9366,19019 9366,19045 9327,19060 9297,19060 9271,19060 9245,19049 9245,19021 9245,19002 9258,18987 9282,18973 L 9267,18969 Z M 9316,18919 C 9363,18919 9400,18888 9400,18848 9400,18812 9371,18790 9333,18790 9285,18790 9246,18823 9246,18862 9246,18898 9277,18919 9316,18919 Z M 9316,18906 C 9291,18906 9284,18883 9284,18865 9284,18840 9296,18802 9329,18802 9356,18802 9362,18826 9362,18843 9362,18868 9349,18906 9316,18906 Z "/>
    </g>
   </g>
   <g class="com.sun.star.drawing.ClosedBezierShape">
    <g id="id52">
     <rect class="BoundingBox" stroke="none" fill="none" x="9434" y="18684" width="205" height="298"/>
     <path fill="rgb(0,0,0)" stroke="none" d="M 9497,18848 L 9505,18816 9518,18757 C 9523,18732 9528,18709 9534,18687 L 9529,18684 C 9510,18692 9482,18695 9454,18697 9453,18701 9453,18704 9454,18708 9479,18708 9486,18709 9486,18719 9486,18723 9485,18729 9484,18737 L 9435,18976 9473,18976 9485,18914 9497,18848 Z M 9485,18914 C 9501,18841 9540,18812 9561,18812 9571,18812 9576,18819 9576,18830 9576,18853 9548,18929 9548,18955 9548,18970 9556,18981 9575,18981 9600,18981 9620,18963 9638,18940 9635,18937 9632,18934 9629,18932 9618,18946 9603,18956 9594,18956 9588,18956 9587,18952 9587,18949 9587,18933 9615,18852 9615,18825 9615,18805 9601,18790 9577,18790 9551,18790 9522,18808 9501,18842 L 9485,18842 9485,18914 Z "/>
    </g>
   </g>
   <g class="com.sun.star.drawing.ClosedBezierShape">
    <g id="id53">
     <rect class="BoundingBox" stroke="none" fill="none" x="9665" y="18743" width="117" height="240"/>
     <path fill="rgb(0,0,0)" stroke="none" d="M 9778,18816 C 9780,18810 9781,18805 9781,18799 L 9704,18799 9667,18805 C 9666,18808 9665,18812 9665,18816 L 9778,18816 Z M 9710,18747 C 9706,18768 9699,18793 9696,18808 L 9670,18925 C 9667,18937 9667,18945 9667,18950 9667,18963 9674,18981 9699,18981 9724,18981 9748,18966 9766,18940 9763,18937 9761,18935 9757,18933 9745,18948 9728,18957 9718,18957 9708,18957 9705,18952 9705,18944 9705,18940 9706,18932 9709,18922 L 9734,18810 C 9742,18778 9745,18762 9749,18745 L 9748,18743 C 9736,18745 9722,18747 9710,18747 Z "/>
    </g>
   </g>
  </g>
  <g class="com.sun.star.drawing.PolyPolygonShape">
   <g id="id54">
    <rect class="BoundingBox" stroke="none" fill="none" x="8042" y="14796" width="6001" height="51"/>
    <path fill="rgb(0,0,0)" stroke="none" d="M 8042,14846 L 8042,14821 8042,14796 8242,14796 8242,14821 8242,14846 8042,14846 Z M 8392,14846 L 8392,14821 8392,14796 8592,14796 8592,14821 8592,14846 8392,14846 Z M 8742,14846 L 8742,14821 8742,14796 8942,14796 8942,14821 8942,14846 8742,14846 Z M 9092,14846 L 9092,14821 9092,14796 9292,14796 9292,14821 9292,14846 9092,14846 Z M 9442,14846 L 9442,14821 9442,14796 9642,14796 9642,14821 9642,14846 9442,14846 Z M 9792,14846 L 9792,14821 9792,14796 9992,14796 9992,14821 9992,14846 9792,14846 Z M 10142,14846 L 10142,14821 10142,14796 10342,14796 10342,14821 10342,14846 10142,14846 Z M 10492,14846 L 10492,14821 10492,14796 10692,14796 10692,14821 10692,14846 10492,14846 Z M 10842,14846 L 10842,14821 10842,14796 11042,14796 11042,14821 11042,14846 10842,14846 Z M 11192,14846 L 11192,14821 11192,14796 11392,14796 11392,14821 11392,14846 11192,14846 Z M 11542,14846 L 11542,14821 11542,14796 11742,14796 11742,14821 11742,14846 11542,14846 Z M 11892,14846 L 11892,14821 11892,14796 12092,14796 12092,14821 12092,14846 11892,14846 Z M 12242,14846 L 12242,14821 12242,14796 12442,14796 12442,14821 12442,14846 12242,14846 Z M 12592,14846 L 12592,14821 12592,14796 12792,14796 12792,14821 12792,14846 12592,14846 Z M 12942,14846 L 12942,14821 12942,14796 13142,14796 13142,14821 13142,14846 12942,14846 Z M 13292,14846 L 13292,14821 13292,14796 13492,14796 13492,14821 13492,14846 13292,14846 Z M 13642,14846 L 13642,14821 13642,14796 13842,14796 13842,14821 13842,14846 13642,14846 Z M 13992,14846 L 13992,14821 13992,14796 14042,14796 14042,14821 14042,14846 13992,14846 Z "/>
   </g>
  </g>
  <g class="Group">
   <g class="com.sun.star.drawing.ClosedBezierShape">
    <g id="id55">
     <rect class="BoundingBox" stroke="none" fill="none" x="13553" y="14368" width="183" height="296"/>
     <path fill="rgb(0,0,0)" stroke="none" d="M 13622,14663 C 13682,14663 13735,14620 13735,14557 13735,14510 13705,14468 13633,14468 13620,14468 13606,14469 13591,14472 L 13595,14476 13606,14402 13601,14407 13720,14407 C 13723,14396 13726,14380 13727,14368 L 13594,14371 13573,14506 13576,14507 C 13592,14503 13608,14502 13620,14502 13677,14502 13697,14535 13697,14570 13697,14611 13671,14648 13623,14648 13617,14648 13611,14648 13602,14646 L 13609,14654 C 13606,14621 13588,14605 13571,14605 13561,14605 13554,14612 13554,14623 13554,14635 13568,14663 13622,14663 Z "/>
    </g>
   </g>
   <g class="com.sun.star.drawing.ClosedBezierShape">
    <g id="id56">
     <rect class="BoundingBox" stroke="none" fill="none" x="13770" y="14364" width="189" height="251"/>
     <path fill="rgb(0,0,0)" stroke="none" d="M 13863,14380 C 13904,14380 13917,14438 13917,14493 13917,14549 13904,14599 13866,14599 13825,14599 13812,14540 13812,14484 13812,14430 13824,14380 13863,14380 Z M 13958,14487 C 13958,14422 13932,14365 13866,14365 13800,14365 13771,14425 13771,14491 13771,14561 13803,14614 13863,14614 13925,14614 13958,14560 13958,14487 Z "/>
    </g>
   </g>
   <g class="com.sun.star.drawing.ClosedBezierShape">
    <g id="id57">
     <rect class="BoundingBox" stroke="none" fill="none" x="13986" y="14337" width="296" height="277"/>
     <path fill="rgb(0,0,0)" stroke="none" d="M 14048,14350 C 14072,14350 14079,14381 14079,14412 14079,14443 14072,14470 14050,14470 14026,14470 14019,14437 14019,14407 14019,14377 14026,14350 14048,14350 Z M 14111,14409 C 14111,14371 14094,14338 14050,14338 14006,14338 13986,14373 13986,14411 13986,14451 14008,14481 14048,14481 14089,14481 14111,14451 14111,14409 Z M 14232,14352 C 14227,14348 14223,14345 14218,14342 L 14035,14602 C 14039,14606 14044,14610 14049,14613 L 14232,14352 Z M 14218,14481 C 14241,14481 14249,14512 14249,14543 14249,14574 14241,14601 14219,14601 14196,14601 14188,14568 14188,14538 14188,14508 14196,14481 14218,14481 Z M 14280,14540 C 14280,14502 14263,14469 14220,14469 14175,14469 14156,14504 14156,14542 14156,14582 14177,14613 14218,14613 14259,14613 14280,14582 14280,14540 Z "/>
    </g>
   </g>
  </g>
  <g class="Group">
   <g class="com.sun.star.drawing.ClosedBezierShape">
    <g id="id58">
     <rect class="BoundingBox" stroke="none" fill="none" x="10574" y="12301" width="287" height="193"/>
     <path fill="rgb(0,0,0)" stroke="none" d="M 10733,12359 C 10737,12380 10742,12430 10742,12468 10742,12475 10742,12481 10741,12487 10745,12489 10755,12492 10759,12492 10827,12434 10860,12366 10860,12332 10860,12310 10847,12302 10835,12302 10822,12302 10814,12312 10814,12324 10814,12338 10824,12351 10839,12358 L 10835,12353 C 10830,12376 10811,12422 10769,12461 L 10775,12461 C 10775,12405 10770,12348 10758,12307 L 10733,12359 Z M 10634,12488 C 10638,12490 10648,12492 10652,12492 10711,12434 10741,12366 10757,12316 L 10758,12307 C 10752,12307 10745,12308 10740,12309 10730,12345 10706,12405 10662,12458 L 10669,12458 C 10671,12443 10672,12422 10672,12404 10672,12342 10663,12303 10631,12303 10614,12303 10593,12315 10575,12337 10577,12340 10580,12343 10584,12345 10596,12333 10606,12328 10612,12328 10630,12328 10636,12370 10636,12434 10636,12450 10636,12469 10634,12488 Z "/>
    </g>
   </g>
   <g class="com.sun.star.drawing.ClosedBezierShape">
    <g id="id59">
     <rect class="BoundingBox" stroke="none" fill="none" x="10873" y="12205" width="112" height="289"/>
     <path fill="rgb(0,0,0)" stroke="none" d="M 10974,12444 C 10963,12458 10948,12468 10939,12468 10933,12468 10932,12465 10932,12460 10932,12455 10934,12449 10934,12445 L 10959,12342 C 10961,12336 10961,12331 10961,12326 10961,12313 10954,12303 10937,12303 10918,12303 10894,12315 10874,12339 10877,12342 10879,12345 10883,12347 10894,12335 10907,12326 10914,12326 10918,12326 10921,12329 10921,12336 10921,12339 10920,12342 10918,12350 L 10895,12447 C 10894,12454 10892,12460 10892,12466 10892,12482 10901,12493 10920,12493 10945,12493 10965,12475 10982,12452 10980,12449 10977,12446 10974,12444 Z M 10956,12258 C 10972,12258 10983,12244 10983,12229 10983,12215 10974,12205 10960,12205 10945,12205 10932,12218 10932,12233 10932,12247 10942,12258 10956,12258 Z "/>
    </g>
   </g>
   <g class="com.sun.star.drawing.ClosedBezierShape">
    <g id="id60">
     <rect class="BoundingBox" stroke="none" fill="none" x="10993" y="12301" width="220" height="193"/>
     <path fill="rgb(0,0,0)" stroke="none" d="M 11062,12417 C 11076,12353 11111,12324 11134,12324 11146,12324 11150,12332 11150,12342 11150,12365 11122,12441 11122,12467 11122,12482 11130,12493 11149,12493 11174,12493 11194,12475 11212,12452 11209,12449 11206,12446 11203,12444 11192,12457 11177,12468 11168,12468 11163,12468 11161,12462 11161,12459 11161,12443 11190,12365 11190,12337 11190,12317 11176,12302 11151,12302 11126,12302 11098,12318 11078,12349 L 11062,12349 11062,12417 Z M 11062,12417 L 11074,12364 C 11076,12349 11081,12334 11081,12325 11081,12313 11074,12303 11057,12303 11037,12303 11014,12315 10994,12339 10996,12342 10999,12345 11003,12347 11014,12335 11027,12326 11034,12326 11038,12326 11041,12329 11041,12336 11041,12339 11040,12342 11038,12350 L 11007,12488 11045,12488 11062,12417 Z "/>
    </g>
   </g>
   <g class="com.sun.star.drawing.ClosedBezierShape">
    <g id="id61">
     <rect class="BoundingBox" stroke="none" fill="none" x="11225" y="12301" width="220" height="193"/>
     <path fill="rgb(0,0,0)" stroke="none" d="M 11293,12417 C 11308,12353 11343,12324 11366,12324 11378,12324 11382,12332 11382,12342 11382,12365 11354,12441 11354,12467 11354,12482 11362,12493 11381,12493 11406,12493 11426,12475 11444,12452 11441,12449 11438,12446 11435,12444 11424,12457 11409,12468 11400,12468 11394,12468 11393,12462 11393,12459 11393,12443 11421,12365 11421,12337 11421,12317 11408,12302 11383,12302 11358,12302 11329,12318 11310,12349 L 11293,12349 11293,12417 Z M 11293,12417 L 11306,12364 C 11308,12349 11312,12334 11312,12325 11312,12313 11306,12303 11288,12303 11269,12303 11246,12315 11225,12339 11228,12342 11231,12345 11234,12347 11246,12335 11258,12326 11266,12326 11270,12326 11273,12329 11273,12336 11273,12339 11272,12342 11270,12350 L 11238,12488 11277,12488 11293,12417 Z "/>
    </g>
   </g>
   <g class="com.sun.star.drawing.ClosedBezierShape">
    <g id="id62">
     <rect class="BoundingBox" stroke="none" fill="none" x="11463" y="12301" width="159" height="193"/>
     <path fill="rgb(0,0,0)" stroke="none" d="M 11503,12403 C 11560,12398 11621,12375 11621,12334 11621,12314 11607,12302 11578,12302 11512,12302 11463,12367 11463,12425 11463,12466 11488,12493 11529,12493 11564,12493 11589,12473 11607,12443 11605,12440 11602,12437 11598,12435 11583,12454 11563,12467 11541,12467 11515,12467 11505,12451 11505,12425 11505,12381 11535,12318 11567,12318 11579,12318 11584,12326 11584,12337 11584,12370 11542,12386 11503,12390 L 11503,12403 Z "/>
    </g>
   </g>
   <g class="com.sun.star.drawing.ClosedBezierShape">
    <g id="id63">
     <rect class="BoundingBox" stroke="none" fill="none" x="11630" y="12301" width="175" height="188"/>
     <path fill="rgb(0,0,0)" stroke="none" d="M 11683,12488 C 11703,12394 11738,12339 11763,12328 L 11753,12316 C 11756,12336 11771,12344 11783,12344 11794,12344 11804,12337 11804,12324 11804,12313 11797,12302 11779,12302 11749,12302 11724,12333 11698,12398 L 11683,12396 11683,12488 Z M 11683,12488 L 11694,12403 11708,12357 C 11714,12336 11715,12329 11715,12323 11715,12312 11711,12303 11694,12303 11675,12303 11651,12315 11631,12339 11634,12342 11636,12345 11640,12347 11651,12335 11664,12326 11671,12326 11676,12326 11678,12329 11678,12336 11678,12339 11677,12342 11676,12350 L 11644,12488 11683,12488 Z "/>
    </g>
   </g>
  </g>
 </g>
</svg>