<?xml version="1.0" encoding="UTF-8"?>
<!DOCTYPE svg PUBLIC "-//W3C//DTD SVG 1.1//EN" "http://www.w3.org/Graphics/SVG/1.1/DTD/svg11.dtd">
<svg version="1.2" width="74.84mm" height="58.48mm" viewBox="7298 21071 7484 5848" preserveAspectRatio="xMidYMid" fill-rule="evenodd" stroke-width="28.222" stroke-linejoin="round" xmlns="http://www.w3.org/2000/svg" xmlns:ooo="http://xml.openoffice.org/svg/export" xmlns:xlink="http://www.w3.org/1999/xlink" xmlns:presentation="http://sun.com/xmlns/staroffice/presentation" xmlns:smil="http://www.w3.org/2001/SMIL20/" xmlns:anim="urn:oasis:names:tc:opendocument:xmlns:animation:1.0" xmlns:svg="urn:oasis:names:tc:opendocument:xmlns:svg-compatible:1.0" xml:space="preserve">
 <defs class="EmbeddedBulletChars">
  <g id="bullet-char-template-57356" transform="scale(0.00048828125,-0.00048828125)">
   <path d="M 580,1141 L 1163,571 580,0 -4,571 580,1141 Z"/>
  </g>
  <g id="bullet-char-template-57354" transform="scale(0.00048828125,-0.00048828125)">
   <path d="M 8,1128 L 1137,1128 1137,0 8,0 8,1128 Z"/>
  </g>
  <g id="bullet-char-template-10146" transform="scale(0.00048828125,-0.00048828125)">
   <path d="M 174,0 L 602,739 174,1481 1456,739 174,0 Z M 1358,739 L 309,1346 659,739 1358,739 Z"/>
  </g>
  <g id="bullet-char-template-10132" transform="scale(0.00048828125,-0.00048828125)">
   <path d="M 2015,739 L 1276,0 717,0 1260,543 174,543 174,936 1260,936 717,1481 1274,1481 2015,739 Z"/>
  </g>
  <g id="bullet-char-template-10007" transform="scale(0.00048828125,-0.00048828125)">
   <path d="M 0,-2 C -7,14 -16,27 -25,37 L 356,567 C 262,823 215,952 215,954 215,979 228,992 255,992 264,992 276,990 289,987 310,991 331,999 354,1012 L 381,999 492,748 772,1049 836,1024 860,1049 C 881,1039 901,1025 922,1006 886,937 835,863 770,784 769,783 710,716 594,584 L 774,223 C 774,196 753,168 711,139 L 727,119 C 717,90 699,76 672,76 641,76 570,178 457,381 L 164,-76 C 142,-110 111,-127 72,-127 30,-127 9,-110 8,-76 1,-67 -2,-52 -2,-32 -2,-23 -1,-13 0,-2 Z"/>
  </g>
  <g id="bullet-char-template-10004" transform="scale(0.00048828125,-0.00048828125)">
   <path d="M 285,-33 C 182,-33 111,30 74,156 52,228 41,333 41,471 41,549 55,616 82,672 116,743 169,778 240,778 293,778 328,747 346,684 L 369,508 C 377,444 397,411 428,410 L 1163,1116 C 1174,1127 1196,1133 1229,1133 1271,1133 1292,1118 1292,1087 L 1292,965 C 1292,929 1282,901 1262,881 L 442,47 C 390,-6 338,-33 285,-33 Z"/>
  </g>
  <g id="bullet-char-template-9679" transform="scale(0.00048828125,-0.00048828125)">
   <path d="M 813,0 C 632,0 489,54 383,161 276,268 223,411 223,592 223,773 276,916 383,1023 489,1130 632,1184 813,1184 992,1184 1136,1130 1245,1023 1353,916 1407,772 1407,592 1407,412 1353,268 1245,161 1136,54 992,0 813,0 Z"/>
  </g>
  <g id="bullet-char-template-8226" transform="scale(0.00048828125,-0.00048828125)">
   <path d="M 346,457 C 273,457 209,483 155,535 101,586 74,649 74,723 74,796 101,859 155,911 209,963 273,989 346,989 419,989 480,963 531,910 582,859 608,796 608,723 608,648 583,586 532,535 482,483 420,457 346,457 Z"/>
  </g>
  <g id="bullet-char-template-8211" transform="scale(0.00048828125,-0.00048828125)">
   <path d="M -4,459 L 1135,459 1135,606 -4,606 -4,459 Z"/>
  </g>
  <g id="bullet-char-template-61548" transform="scale(0.00048828125,-0.00048828125)">
   <path d="M 173,740 C 173,903 231,1043 346,1159 462,1274 601,1332 765,1332 928,1332 1067,1274 1183,1159 1299,1043 1357,903 1357,740 1357,577 1299,437 1183,322 1067,206 928,148 765,148 601,148 462,206 346,322 231,437 173,577 173,740 Z"/>
  </g>
 </defs>
 <g class="Page">
  <g class="Group">
   <g class="com.sun.star.drawing.PolyPolygonShape">
    <g id="id3">
     <rect class="BoundingBox" stroke="none" fill="none" x="9542" y="24291" width="501" height="2030"/>
     <path fill="rgb(241,13,12)" stroke="none" d="M 9542,26320 L 9542,24291 10042,24291 10042,26320 9542,26320 Z "/>
    </g>
   </g>
   <g class="com.sun.star.drawing.ClosedBezierShape">
    <g id="id4">
     <rect class="BoundingBox" stroke="none" fill="none" x="9517" y="24266" width="551" height="2080"/>
     <path fill="rgb(0,0,0)" stroke="none" d="M 9530,26342 C 9526,26339 9523,26336 9520,26333 9518,26329 9517,26324 9517,26320 L 9517,24291 C 9517,24287 9518,24282 9520,24279 9523,24275 9526,24272 9530,24269 9533,24267 9538,24266 9542,24266 L 10042,24266 C 10046,24266 10051,24267 10055,24269 10058,24272 10061,24275 10064,24279 10066,24282 10067,24287 10067,24291 L 10067,26320 C 10067,26324 10066,26329 10064,26333 10061,26336 10058,26339 10055,26342 10051,26344 10046,26345 10042,26345 L 9542,26345 C 9538,26345 9533,26344 9530,26342 Z M 9567,26295 L 10017,26295 10017,24316 9567,24316 9567,26295 Z "/>
    </g>
   </g>
  </g>
  <g class="com.sun.star.drawing.PolyPolygonShape">
   <g id="id5">
    <rect class="BoundingBox" stroke="none" fill="none" x="8517" y="21071" width="51" height="5252"/>
    <path fill="rgb(0,0,0)" stroke="none" d="M 8517,21071 L 8542,21071 8567,21071 8567,26321 8542,26321 8517,26321 8517,21071 Z "/>
   </g>
  </g>
  <g class="com.sun.star.drawing.PolyPolygonShape">
   <g id="id6">
    <rect class="BoundingBox" stroke="none" fill="none" x="8542" y="26296" width="6001" height="51"/>
    <path fill="rgb(0,0,0)" stroke="none" d="M 14542,26296 L 14542,26321 14542,26346 8542,26346 8542,26321 8542,26296 14542,26296 Z "/>
   </g>
  </g>
  <g class="Group">
   <g class="com.sun.star.drawing.PolyPolygonShape">
    <g id="id7">
     <rect class="BoundingBox" stroke="none" fill="none" x="11324" y="24791" width="501" height="1530"/>
     <path fill="rgb(114,159,207)" stroke="none" d="M 11324,26320 L 11324,24791 11824,24791 11824,26320 11324,26320 Z "/>
    </g>
   </g>
   <g class="com.sun.star.drawing.ClosedBezierShape">
    <g id="id8">
     <rect class="BoundingBox" stroke="none" fill="none" x="11299" y="24766" width="551" height="1580"/>
     <path fill="rgb(0,0,0)" stroke="none" d="M 11312,26342 C 11308,26339 11305,26336 11302,26332 11300,26329 11299,26324 11299,26320 L 11299,24791 C 11299,24787 11300,24782 11302,24779 11305,24775 11308,24772 11312,24769 11315,24767 11320,24766 11324,24766 L 11824,24766 C 11828,24766 11833,24767 11837,24769 11840,24772 11843,24775 11846,24779 11848,24782 11849,24787 11849,24791 L 11849,26320 C 11849,26324 11848,26329 11846,26332 11843,26336 11840,26339 11837,26342 11833,26344 11828,26345 11824,26345 L 11324,26345 C 11320,26345 11315,26344 11312,26342 Z M 11349,26295 L 11799,26295 11799,24816 11349,24816 11349,26295 Z "/>
    </g>
   </g>
  </g>
  <g class="Group">
   <g class="com.sun.star.drawing.PolyPolygonShape">
    <g id="id9">
     <rect class="BoundingBox" stroke="none" fill="none" x="13042" y="24291" width="501" height="2030"/>
     <path fill="rgb(123,61,0)" stroke="none" d="M 13042,26320 L 13042,24291 13542,24291 13542,26320 13042,26320 Z "/>
    </g>
   </g>
   <g class="com.sun.star.drawing.ClosedBezierShape">
    <g id="id10">
     <rect class="BoundingBox" stroke="none" fill="none" x="13017" y="24266" width="551" height="2080"/>
     <path fill="rgb(0,0,0)" stroke="none" d="M 13030,26342 C 13026,26339 13023,26336 13020,26333 13018,26329 13017,26324 13017,26320 L 13017,24291 C 13017,24287 13018,24282 13020,24279 13023,24275 13026,24272 13030,24269 13033,24267 13038,24266 13042,24266 L 13542,24266 C 13546,24266 13551,24267 13555,24269 13558,24272 13561,24275 13564,24279 13566,24282 13567,24287 13567,24291 L 13567,26320 C 13567,26324 13566,26329 13564,26333 13561,26336 13558,26339 13555,26342 13551,26344 13546,26345 13542,26345 L 13042,26345 C 13038,26345 13033,26344 13030,26342 Z M 13067,26295 L 13517,26295 13517,24316 13067,24316 13067,26295 Z "/>
    </g>
   </g>
  </g>
  <g class="com.sun.star.drawing.PolyPolygonShape">
   <g id="id11">
    <rect class="BoundingBox" stroke="none" fill="none" x="8292" y="25296" width="251" height="51"/>
    <path fill="rgb(0,0,0)" stroke="none" d="M 8292,25346 L 8292,25321 8292,25296 8542,25296 8542,25321 8542,25346 8292,25346 Z "/>
   </g>
  </g>
  <g class="com.sun.star.drawing.PolyPolygonShape">
   <g id="id12">
    <rect class="BoundingBox" stroke="none" fill="none" x="8292" y="24296" width="251" height="51"/>
    <path fill="rgb(0,0,0)" stroke="none" d="M 8292,24346 L 8292,24321 8292,24296 8542,24296 8542,24321 8542,24346 8292,24346 Z "/>
   </g>
  </g>
  <g class="com.sun.star.drawing.PolyPolygonShape">
   <g id="id13">
    <rect class="BoundingBox" stroke="none" fill="none" x="8292" y="23296" width="251" height="51"/>
    <path fill="rgb(0,0,0)" stroke="none" d="M 8292,23346 L 8292,23321 8292,23296 8542,23296 8542,23321 8542,23346 8292,23346 Z "/>
   </g>
  </g>
  <g class="com.sun.star.drawing.PolyPolygonShape">
   <g id="id14">
    <rect class="BoundingBox" stroke="none" fill="none" x="8292" y="22296" width="251" height="51"/>
    <path fill="rgb(0,0,0)" stroke="none" d="M 8292,22346 L 8292,22321 8292,22296 8542,22296 8542,22321 8542,22346 8292,22346 Z "/>
   </g>
  </g>
  <g class="com.sun.star.drawing.PolyPolygonShape">
   <g id="id15">
    <rect class="BoundingBox" stroke="none" fill="none" x="8292" y="21296" width="251" height="51"/>
    <path fill="rgb(0,0,0)" stroke="none" d="M 8292,21346 L 8292,21321 8292,21296 8542,21296 8542,21321 8542,21346 8292,21346 Z "/>
   </g>
  </g>
  <g class="Group">
   <g class="com.sun.star.drawing.ClosedBezierShape">
    <g id="id16">
     <rect class="BoundingBox" stroke="none" fill="none" x="7299" y="25243" width="183" height="247"/>
     <path fill="rgb(0,0,0)" stroke="none" d="M 7466,25488 C 7470,25468 7475,25444 7481,25422 7477,25421 7472,25421 7469,25421 7453,25452 7449,25453 7429,25453 7428,25453 7386,25455 7340,25455 L 7342,25460 C 7418,25395 7463,25353 7463,25306 7463,25268 7427,25244 7387,25244 7358,25244 7330,25256 7308,25280 7310,25283 7313,25286 7316,25289 7332,25277 7351,25270 7370,25270 7399,25270 7421,25286 7421,25319 7421,25357 7393,25405 7300,25478 7300,25481 7300,25484 7302,25488 7313,25488 7333,25488 7362,25488 7393,25488 7434,25488 7466,25488 Z "/>
    </g>
   </g>
   <g class="com.sun.star.drawing.ClosedBezierShape">
    <g id="id17">
     <rect class="BoundingBox" stroke="none" fill="none" x="7514" y="25243" width="188" height="251"/>
     <path fill="rgb(0,0,0)" stroke="none" d="M 7606,25259 C 7648,25259 7660,25317 7660,25372 7660,25428 7648,25478 7609,25478 7568,25478 7555,25419 7555,25363 7555,25309 7568,25259 7606,25259 Z M 7701,25366 C 7701,25301 7675,25244 7610,25244 7543,25244 7514,25304 7514,25370 7514,25440 7546,25493 7607,25493 7668,25493 7701,25439 7701,25366 Z "/>
    </g>
   </g>
   <g class="com.sun.star.drawing.ClosedBezierShape">
    <g id="id18">
     <rect class="BoundingBox" stroke="none" fill="none" x="7729" y="25216" width="296" height="277"/>
     <path fill="rgb(0,0,0)" stroke="none" d="M 7791,25229 C 7815,25229 7822,25260 7822,25291 7822,25322 7815,25349 7793,25349 7770,25349 7762,25316 7762,25286 7762,25256 7770,25229 7791,25229 Z M 7854,25288 C 7854,25250 7837,25217 7793,25217 7749,25217 7730,25252 7730,25290 7730,25330 7751,25360 7792,25360 7833,25360 7854,25330 7854,25288 Z M 7975,25231 C 7971,25227 7966,25224 7961,25221 L 7779,25481 C 7783,25485 7788,25489 7792,25492 L 7975,25231 Z M 7961,25360 C 7985,25360 7992,25391 7992,25422 7992,25453 7985,25480 7963,25480 7939,25480 7931,25447 7931,25417 7931,25387 7939,25360 7961,25360 Z M 8024,25419 C 8024,25381 8007,25348 7963,25348 7919,25348 7899,25383 7899,25421 7899,25461 7921,25492 7961,25492 8002,25492 8024,25461 8024,25419 Z "/>
    </g>
   </g>
  </g>
  <g class="Group">
   <g class="com.sun.star.drawing.ClosedBezierShape">
    <g id="id19">
     <rect class="BoundingBox" stroke="none" fill="none" x="7299" y="24245" width="210" height="290"/>
     <path fill="rgb(0,0,0)" stroke="none" d="M 7465,24533 L 7465,24283 C 7465,24275 7465,24267 7465,24247 7457,24246 7446,24245 7436,24245 7389,24304 7345,24362 7300,24424 7300,24431 7300,24439 7301,24446 L 7506,24446 C 7507,24436 7507,24426 7508,24415 L 7314,24415 7319,24426 C 7357,24373 7392,24325 7434,24273 L 7426,24265 7426,24533 C 7439,24534 7452,24534 7465,24533 Z "/>
    </g>
   </g>
   <g class="com.sun.star.drawing.ClosedBezierShape">
    <g id="id20">
     <rect class="BoundingBox" stroke="none" fill="none" x="7534" y="24243" width="188" height="251"/>
     <path fill="rgb(0,0,0)" stroke="none" d="M 7626,24259 C 7668,24259 7680,24317 7680,24372 7680,24428 7668,24478 7629,24478 7588,24478 7575,24419 7575,24363 7575,24309 7588,24259 7626,24259 Z M 7721,24366 C 7721,24301 7695,24244 7630,24244 7563,24244 7534,24304 7534,24370 7534,24440 7566,24493 7627,24493 7688,24493 7721,24439 7721,24366 Z "/>
    </g>
   </g>
   <g class="com.sun.star.drawing.ClosedBezierShape">
    <g id="id21">
     <rect class="BoundingBox" stroke="none" fill="none" x="7749" y="24216" width="296" height="277"/>
     <path fill="rgb(0,0,0)" stroke="none" d="M 7811,24229 C 7835,24229 7842,24260 7842,24291 7842,24322 7835,24349 7813,24349 7790,24349 7782,24316 7782,24286 7782,24256 7790,24229 7811,24229 Z M 7874,24288 C 7874,24250 7857,24217 7813,24217 7769,24217 7750,24252 7750,24290 7750,24330 7771,24360 7812,24360 7852,24360 7874,24330 7874,24288 Z M 7995,24231 C 7991,24227 7986,24224 7981,24221 L 7798,24481 C 7803,24485 7807,24489 7812,24492 L 7995,24231 Z M 7981,24360 C 8004,24360 8012,24391 8012,24422 8012,24453 8004,24480 7982,24480 7959,24480 7951,24447 7951,24417 7951,24387 7959,24360 7981,24360 Z M 8044,24419 C 8044,24381 8027,24348 7983,24348 7939,24348 7919,24383 7919,24421 7919,24461 7940,24492 7981,24492 8022,24492 8044,24461 8044,24419 Z "/>
    </g>
   </g>
  </g>
  <g class="Group">
   <g class="com.sun.star.drawing.ClosedBezierShape">
    <g id="id22">
     <rect class="BoundingBox" stroke="none" fill="none" x="7309" y="23199" width="191" height="295"/>
     <path fill="rgb(0,0,0)" stroke="none" d="M 7406,23493 C 7452,23493 7499,23461 7499,23396 7499,23336 7458,23310 7415,23310 7393,23310 7371,23316 7353,23329 L 7349,23348 C 7365,23336 7382,23330 7397,23330 7427,23330 7455,23353 7455,23408 7455,23459 7431,23478 7408,23478 7380,23478 7352,23449 7352,23374 7352,23286 7396,23214 7475,23214 7483,23214 7486,23214 7489,23214 7490,23209 7491,23205 7491,23200 7486,23199 7479,23199 7477,23199 7364,23199 7309,23294 7309,23379 7309,23460 7359,23493 7406,23493 Z "/>
    </g>
   </g>
   <g class="com.sun.star.drawing.ClosedBezierShape">
    <g id="id23">
     <rect class="BoundingBox" stroke="none" fill="none" x="7530" y="23243" width="188" height="251"/>
     <path fill="rgb(0,0,0)" stroke="none" d="M 7622,23259 C 7664,23259 7676,23317 7676,23372 7676,23428 7664,23478 7625,23478 7584,23478 7571,23419 7571,23363 7571,23309 7584,23259 7622,23259 Z M 7717,23366 C 7717,23301 7691,23244 7626,23244 7559,23244 7530,23304 7530,23370 7530,23440 7562,23493 7623,23493 7684,23493 7717,23439 7717,23366 Z "/>
    </g>
   </g>
   <g class="com.sun.star.drawing.ClosedBezierShape">
    <g id="id24">
     <rect class="BoundingBox" stroke="none" fill="none" x="7745" y="23216" width="296" height="277"/>
     <path fill="rgb(0,0,0)" stroke="none" d="M 7807,23229 C 7831,23229 7838,23260 7838,23291 7838,23322 7831,23349 7809,23349 7786,23349 7778,23316 7778,23286 7778,23256 7786,23229 7807,23229 Z M 7870,23288 C 7870,23250 7853,23217 7809,23217 7765,23217 7746,23252 7746,23290 7746,23330 7767,23360 7808,23360 7848,23360 7870,23330 7870,23288 Z M 7991,23231 C 7987,23227 7982,23224 7977,23221 L 7795,23481 C 7799,23485 7803,23489 7808,23492 L 7991,23231 Z M 7977,23360 C 8001,23360 8008,23391 8008,23422 8008,23453 8001,23480 7978,23480 7955,23480 7947,23447 7947,23417 7947,23387 7955,23360 7977,23360 Z M 8040,23419 C 8040,23381 8023,23348 7979,23348 7935,23348 7915,23383 7915,23421 7915,23461 7937,23492 7977,23492 8018,23492 8040,23461 8040,23419 Z "/>
    </g>
   </g>
  </g>
  <g class="Group">
   <g class="com.sun.star.drawing.ClosedBezierShape">
    <g id="id25">
     <rect class="BoundingBox" stroke="none" fill="none" x="7304" y="22170" width="187" height="295"/>
     <path fill="rgb(0,0,0)" stroke="none" d="M 7392,22464 C 7452,22464 7489,22427 7489,22383 7489,22342 7456,22322 7423,22305 7386,22284 7354,22268 7354,22235 7354,22208 7370,22184 7398,22184 7427,22184 7439,22211 7439,22240 7439,22272 7425,22292 7411,22300 L 7427,22310 7427,22306 C 7450,22293 7479,22270 7479,22236 7479,22203 7451,22170 7401,22170 7349,22170 7315,22204 7315,22245 7315,22281 7341,22301 7372,22319 7411,22343 7449,22360 7449,22396 7449,22423 7431,22450 7397,22450 7362,22450 7346,22421 7346,22389 7346,22357 7361,22335 7381,22321 L 7365,22312 7365,22316 C 7334,22332 7304,22355 7304,22392 7304,22431 7336,22464 7392,22464 Z "/>
    </g>
   </g>
   <g class="com.sun.star.drawing.ClosedBezierShape">
    <g id="id26">
     <rect class="BoundingBox" stroke="none" fill="none" x="7517" y="22214" width="189" height="251"/>
     <path fill="rgb(0,0,0)" stroke="none" d="M 7610,22230 C 7651,22230 7664,22288 7664,22343 7664,22399 7651,22449 7613,22449 7572,22449 7559,22390 7559,22334 7559,22280 7571,22230 7610,22230 Z M 7704,22337 C 7704,22272 7679,22215 7613,22215 7547,22215 7518,22275 7518,22341 7518,22411 7550,22464 7610,22464 7672,22464 7704,22410 7704,22337 Z "/>
    </g>
   </g>
   <g class="com.sun.star.drawing.ClosedBezierShape">
    <g id="id27">
     <rect class="BoundingBox" stroke="none" fill="none" x="7733" y="22187" width="296" height="277"/>
     <path fill="rgb(0,0,0)" stroke="none" d="M 7795,22200 C 7819,22200 7826,22231 7826,22262 7826,22293 7819,22320 7796,22320 7773,22320 7765,22287 7765,22257 7765,22227 7773,22200 7795,22200 Z M 7858,22259 C 7858,22221 7841,22188 7797,22188 7753,22188 7733,22223 7733,22261 7733,22301 7755,22331 7795,22331 7836,22331 7858,22301 7858,22259 Z M 7978,22202 C 7974,22198 7970,22195 7965,22192 L 7782,22452 C 7786,22456 7791,22460 7796,22463 L 7978,22202 Z M 7964,22331 C 7988,22331 7996,22362 7996,22393 7996,22424 7988,22451 7966,22451 7943,22451 7935,22418 7935,22388 7935,22358 7943,22331 7964,22331 Z M 8027,22390 C 8027,22352 8010,22319 7966,22319 7922,22319 7903,22354 7903,22392 7903,22432 7924,22463 7965,22463 8006,22463 8027,22432 8027,22390 Z "/>
    </g>
   </g>
  </g>
  <g class="Group">
   <g class="com.sun.star.drawing.ClosedBezierShape">
    <g id="id28">
     <rect class="BoundingBox" stroke="none" fill="none" x="7298" y="21213" width="130" height="248"/>
     <path fill="rgb(0,0,0)" stroke="none" d="M 7311,21459 C 7327,21459 7340,21458 7370,21458 7401,21458 7413,21459 7426,21459 7427,21455 7427,21452 7426,21447 7389,21444 7388,21443 7388,21411 L 7388,21268 C 7388,21246 7392,21230 7398,21223 7397,21219 7395,21217 7392,21214 7360,21227 7337,21236 7299,21246 7299,21250 7300,21254 7301,21258 7318,21255 7331,21253 7337,21253 7347,21253 7348,21257 7348,21270 L 7348,21414 C 7348,21442 7348,21443 7311,21447 7310,21451 7310,21455 7311,21459 Z "/>
    </g>
   </g>
   <g class="com.sun.star.drawing.ClosedBezierShape">
    <g id="id29">
     <rect class="BoundingBox" stroke="none" fill="none" x="7452" y="21214" width="189" height="251"/>
     <path fill="rgb(0,0,0)" stroke="none" d="M 7545,21230 C 7586,21230 7599,21288 7599,21343 7599,21399 7586,21449 7548,21449 7507,21449 7494,21390 7494,21334 7494,21280 7506,21230 7545,21230 Z M 7639,21337 C 7639,21272 7614,21215 7548,21215 7482,21215 7453,21275 7453,21341 7453,21411 7485,21464 7545,21464 7607,21464 7639,21410 7639,21337 Z "/>
    </g>
   </g>
   <g class="com.sun.star.drawing.ClosedBezierShape">
    <g id="id30">
     <rect class="BoundingBox" stroke="none" fill="none" x="7672" y="21214" width="188" height="251"/>
     <path fill="rgb(0,0,0)" stroke="none" d="M 7764,21230 C 7806,21230 7818,21288 7818,21343 7818,21399 7806,21449 7767,21449 7726,21449 7713,21390 7713,21334 7713,21280 7726,21230 7764,21230 Z M 7859,21337 C 7859,21272 7833,21215 7767,21215 7701,21215 7672,21275 7672,21341 7672,21411 7704,21464 7764,21464 7826,21464 7859,21410 7859,21337 Z "/>
    </g>
   </g>
   <g class="com.sun.star.drawing.ClosedBezierShape">
    <g id="id31">
     <rect class="BoundingBox" stroke="none" fill="none" x="7887" y="21187" width="296" height="277"/>
     <path fill="rgb(0,0,0)" stroke="none" d="M 7949,21200 C 7973,21200 7980,21231 7980,21262 7980,21293 7973,21320 7951,21320 7927,21320 7920,21287 7920,21257 7920,21227 7927,21200 7949,21200 Z M 8012,21259 C 8012,21221 7995,21188 7951,21188 7907,21188 7887,21223 7887,21261 7887,21301 7909,21331 7950,21331 7990,21331 8012,21301 8012,21259 Z M 8133,21202 C 8128,21198 8124,21195 8119,21192 L 7936,21452 C 7941,21456 7945,21460 7950,21463 L 8133,21202 Z M 8119,21331 C 8142,21331 8150,21362 8150,21393 8150,21424 8142,21451 8120,21451 8097,21451 8089,21418 8089,21388 8089,21358 8097,21331 8119,21331 Z M 8182,21390 C 8182,21352 8164,21319 8121,21319 8076,21319 8057,21354 8057,21392 8057,21432 8078,21463 8119,21463 8160,21463 8182,21432 8182,21390 Z "/>
    </g>
   </g>
  </g>
  <g class="com.sun.star.drawing.PolyPolygonShape">
   <g id="id32">
    <rect class="BoundingBox" stroke="none" fill="none" x="8542" y="23796" width="6001" height="51"/>
    <path fill="rgb(0,0,0)" stroke="none" d="M 8542,23846 L 8542,23821 8542,23796 8742,23796 8742,23821 8742,23846 8542,23846 Z M 8892,23846 L 8892,23821 8892,23796 9092,23796 9092,23821 9092,23846 8892,23846 Z M 9242,23846 L 9242,23821 9242,23796 9442,23796 9442,23821 9442,23846 9242,23846 Z M 9592,23846 L 9592,23821 9592,23796 9792,23796 9792,23821 9792,23846 9592,23846 Z M 9942,23846 L 9942,23821 9942,23796 10142,23796 10142,23821 10142,23846 9942,23846 Z M 10292,23846 L 10292,23821 10292,23796 10492,23796 10492,23821 10492,23846 10292,23846 Z M 10642,23846 L 10642,23821 10642,23796 10842,23796 10842,23821 10842,23846 10642,23846 Z M 10992,23846 L 10992,23821 10992,23796 11192,23796 11192,23821 11192,23846 10992,23846 Z M 11342,23846 L 11342,23821 11342,23796 11542,23796 11542,23821 11542,23846 11342,23846 Z M 11692,23846 L 11692,23821 11692,23796 11892,23796 11892,23821 11892,23846 11692,23846 Z M 12042,23846 L 12042,23821 12042,23796 12242,23796 12242,23821 12242,23846 12042,23846 Z M 12392,23846 L 12392,23821 12392,23796 12592,23796 12592,23821 12592,23846 12392,23846 Z M 12742,23846 L 12742,23821 12742,23796 12942,23796 12942,23821 12942,23846 12742,23846 Z M 13092,23846 L 13092,23821 13092,23796 13292,23796 13292,23821 13292,23846 13092,23846 Z M 13442,23846 L 13442,23821 13442,23796 13642,23796 13642,23821 13642,23846 13442,23846 Z M 13792,23846 L 13792,23821 13792,23796 13992,23796 13992,23821 13992,23846 13792,23846 Z M 14142,23846 L 14142,23821 14142,23796 14342,23796 14342,23821 14342,23846 14142,23846 Z M 14492,23846 L 14492,23821 14492,23796 14542,23796 14542,23821 14542,23846 14492,23846 Z "/>
   </g>
  </g>
  <g class="Group">
   <g class="com.sun.star.drawing.ClosedBezierShape">
    <g id="id33">
     <rect class="BoundingBox" stroke="none" fill="none" x="14053" y="23368" width="183" height="296"/>
     <path fill="rgb(0,0,0)" stroke="none" d="M 14122,23663 C 14182,23663 14235,23620 14235,23557 14235,23510 14205,23468 14133,23468 14120,23468 14106,23469 14091,23472 L 14095,23476 14106,23402 14101,23407 14220,23407 C 14223,23396 14226,23380 14227,23368 L 14094,23371 14073,23506 14076,23507 C 14092,23503 14108,23502 14120,23502 14177,23502 14197,23535 14197,23570 14197,23611 14171,23648 14123,23648 14117,23648 14111,23648 14102,23646 L 14109,23654 C 14106,23621 14088,23605 14071,23605 14061,23605 14054,23612 14054,23623 14054,23635 14068,23663 14122,23663 Z "/>
    </g>
   </g>
   <g class="com.sun.star.drawing.ClosedBezierShape">
    <g id="id34">
     <rect class="BoundingBox" stroke="none" fill="none" x="14270" y="23364" width="189" height="251"/>
     <path fill="rgb(0,0,0)" stroke="none" d="M 14363,23380 C 14404,23380 14417,23438 14417,23493 14417,23549 14404,23599 14366,23599 14325,23599 14312,23540 14312,23484 14312,23430 14324,23380 14363,23380 Z M 14458,23487 C 14458,23422 14432,23365 14366,23365 14300,23365 14271,23425 14271,23491 14271,23561 14303,23614 14363,23614 14425,23614 14458,23560 14458,23487 Z "/>
    </g>
   </g>
   <g class="com.sun.star.drawing.ClosedBezierShape">
    <g id="id35">
     <rect class="BoundingBox" stroke="none" fill="none" x="14486" y="23337" width="296" height="277"/>
     <path fill="rgb(0,0,0)" stroke="none" d="M 14548,23350 C 14572,23350 14579,23381 14579,23412 14579,23443 14572,23470 14550,23470 14526,23470 14519,23437 14519,23407 14519,23377 14526,23350 14548,23350 Z M 14611,23409 C 14611,23371 14594,23338 14550,23338 14506,23338 14486,23373 14486,23411 14486,23451 14508,23481 14548,23481 14589,23481 14611,23451 14611,23409 Z M 14732,23352 C 14727,23348 14723,23345 14718,23342 L 14535,23602 C 14539,23606 14544,23610 14549,23613 L 14732,23352 Z M 14718,23481 C 14741,23481 14749,23512 14749,23543 14749,23574 14741,23601 14719,23601 14696,23601 14688,23568 14688,23538 14688,23508 14696,23481 14718,23481 Z M 14780,23540 C 14780,23502 14763,23469 14720,23469 14675,23469 14656,23504 14656,23542 14656,23582 14677,23613 14718,23613 14759,23613 14780,23582 14780,23540 Z "/>
    </g>
   </g>
  </g>
  <g class="Group">
   <g class="com.sun.star.drawing.ClosedBezierShape">
    <g id="id36">
     <rect class="BoundingBox" stroke="none" fill="none" x="9298" y="26526" width="172" height="295"/>
     <path fill="rgb(0,0,0)" stroke="none" d="M 9302,26819 C 9318,26819 9330,26819 9351,26819 9372,26819 9390,26819 9408,26819 9408,26815 9408,26811 9408,26807 9374,26806 9371,26805 9371,26775 L 9371,26613 C 9371,26563 9382,26543 9406,26543 9413,26543 9418,26545 9423,26547 L 9419,26541 C 9417,26556 9428,26576 9448,26576 9461,26576 9469,26568 9469,26556 9469,26534 9441,26526 9419,26526 9397,26526 9375,26534 9359,26549 9335,26572 9333,26605 9332,26622 9331,26637 9328,26639 9299,26643 9299,26646 9299,26649 9299,26653 L 9332,26653 9332,26779 C 9332,26804 9329,26806 9302,26807 9302,26812 9302,26816 9302,26819 Z M 9420,26653 C 9420,26647 9420,26641 9420,26635 L 9367,26635 9367,26653 9420,26653 Z "/>
    </g>
   </g>
   <g class="com.sun.star.drawing.ClosedBezierShape">
    <g id="id37">
     <rect class="BoundingBox" stroke="none" fill="none" x="9440" y="26628" width="180" height="197"/>
     <path fill="rgb(0,0,0)" stroke="none" d="M 9577,26823 C 9591,26823 9606,26817 9618,26803 9618,26800 9617,26797 9615,26795 9606,26798 9599,26799 9594,26799 9586,26799 9583,26795 9583,26787 9583,26762 9585,26699 9585,26674 9585,26644 9560,26628 9531,26628 9500,26628 9445,26648 9445,26673 9445,26682 9452,26690 9464,26690 9484,26690 9497,26664 9494,26645 L 9492,26651 C 9496,26648 9503,26646 9512,26646 9530,26646 9545,26657 9545,26675 9545,26694 9545,26710 9545,26725 L 9544,26790 9544,26794 C 9547,26814 9558,26823 9577,26823 Z M 9488,26824 C 9508,26824 9527,26814 9547,26795 L 9548,26785 C 9530,26793 9518,26798 9508,26798 9493,26798 9483,26789 9483,26770 9483,26748 9499,26734 9551,26728 L 9551,26714 C 9477,26722 9441,26743 9441,26779 9441,26807 9462,26824 9488,26824 Z "/>
    </g>
   </g>
   <g class="com.sun.star.drawing.ClosedBezierShape">
    <g id="id38">
     <rect class="BoundingBox" stroke="none" fill="none" x="9629" y="26626" width="153" height="195"/>
     <path fill="rgb(0,0,0)" stroke="none" d="M 9630,26819 C 9646,26819 9659,26819 9679,26819 9698,26819 9717,26819 9735,26819 9735,26815 9735,26811 9735,26807 9701,26806 9699,26805 9699,26775 L 9699,26691 9699,26669 9699,26629 9692,26626 C 9670,26635 9651,26640 9631,26644 9630,26647 9630,26651 9631,26654 9659,26658 9660,26661 9660,26692 L 9660,26779 C 9660,26804 9657,26806 9630,26807 9630,26811 9630,26816 9630,26819 Z M 9699,26691 C 9699,26673 9715,26657 9733,26657 9737,26668 9748,26673 9758,26673 9770,26673 9781,26665 9781,26651 9781,26639 9772,26628 9754,26628 9734,26628 9713,26642 9694,26669 L 9699,26691 Z "/>
    </g>
   </g>
   <g class="com.sun.star.drawing.ClosedBezierShape">
    <g id="id39">
     <rect class="BoundingBox" stroke="none" fill="none" x="9788" y="26706" width="105" height="32"/>
     <path fill="rgb(0,0,0)" stroke="none" d="M 9891,26736 C 9892,26726 9892,26716 9891,26706 L 9789,26706 C 9788,26716 9788,26726 9789,26736 L 9891,26736 Z "/>
    </g>
   </g>
   <g class="com.sun.star.drawing.ClosedBezierShape">
    <g id="id40">
     <rect class="BoundingBox" stroke="none" fill="none" x="9914" y="26526" width="102" height="295"/>
     <path fill="rgb(0,0,0)" stroke="none" d="M 9917,26819 C 9933,26819 9946,26819 9966,26819 9985,26819 9999,26819 10014,26819 10015,26816 10015,26811 10014,26807 9988,26806 9986,26805 9986,26775 L 9986,26571 C 9986,26554 9986,26540 9987,26528 L 9980,26526 C 9957,26536 9936,26541 9915,26544 9914,26547 9914,26551 9915,26554 9942,26556 9947,26560 9947,26584 L 9947,26779 C 9947,26804 9943,26806 9917,26807 9916,26811 9916,26816 9917,26819 Z "/>
    </g>
   </g>
   <g class="com.sun.star.drawing.ClosedBezierShape">
    <g id="id41">
     <rect class="BoundingBox" stroke="none" fill="none" x="10038" y="26628" width="164" height="197"/>
     <path fill="rgb(0,0,0)" stroke="none" d="M 10124,26824 C 10153,26824 10178,26812 10200,26788 10199,26784 10197,26781 10195,26779 10177,26790 10160,26796 10143,26796 10101,26796 10076,26765 10076,26714 10076,26667 10096,26643 10122,26643 10146,26643 10158,26664 10158,26692 10158,26696 10158,26698 10156,26701 L 10174,26695 10073,26697 10073,26712 10198,26713 C 10199,26710 10199,26706 10199,26701 10199,26658 10172,26628 10127,26628 10070,26628 10038,26676 10038,26729 10038,26781 10068,26824 10124,26824 Z "/>
    </g>
   </g>
   <g class="com.sun.star.drawing.ClosedBezierShape">
    <g id="id42">
     <rect class="BoundingBox" stroke="none" fill="none" x="10223" y="26526" width="172" height="295"/>
     <path fill="rgb(0,0,0)" stroke="none" d="M 10227,26819 C 10243,26819 10255,26819 10276,26819 10297,26819 10315,26819 10332,26819 10333,26815 10333,26811 10332,26807 10299,26806 10296,26805 10296,26775 L 10296,26613 C 10296,26563 10307,26543 10331,26543 10338,26543 10343,26545 10347,26547 L 10344,26541 C 10341,26556 10353,26576 10373,26576 10386,26576 10393,26568 10393,26556 10393,26534 10366,26526 10344,26526 10322,26526 10300,26534 10284,26549 10260,26572 10257,26605 10257,26622 10256,26637 10253,26639 10224,26643 10223,26646 10223,26649 10224,26653 L 10256,26653 10256,26779 C 10256,26804 10253,26806 10227,26807 10226,26812 10226,26816 10227,26819 Z M 10344,26653 C 10345,26647 10345,26641 10344,26635 L 10291,26635 10291,26653 10344,26653 Z "/>
    </g>
   </g>
   <g class="com.sun.star.drawing.ClosedBezierShape">
    <g id="id43">
     <rect class="BoundingBox" stroke="none" fill="none" x="10350" y="26589" width="133" height="236"/>
     <path fill="rgb(0,0,0)" stroke="none" d="M 10430,26824 C 10449,26824 10466,26818 10481,26807 10481,26803 10479,26798 10477,26795 10469,26800 10460,26802 10451,26802 10430,26802 10418,26791 10418,26771 10418,26704 10420,26635 10421,26590 10418,26590 10413,26590 10409,26590 10396,26614 10378,26632 10351,26643 10351,26646 10351,26649 10351,26653 L 10381,26653 C 10380,26693 10379,26735 10379,26781 10379,26809 10399,26824 10430,26824 Z M 10479,26653 C 10479,26647 10479,26641 10479,26635 L 10415,26635 10415,26653 10479,26653 Z "/>
    </g>
   </g>
  </g>
  <g class="Group">
   <g class="com.sun.star.drawing.ClosedBezierShape">
    <g id="id44">
     <rect class="BoundingBox" stroke="none" fill="none" x="12698" y="26526" width="172" height="295"/>
     <path fill="rgb(0,0,0)" stroke="none" d="M 12702,26819 C 12718,26819 12730,26819 12751,26819 12772,26819 12790,26819 12808,26819 12808,26815 12808,26811 12808,26807 12774,26806 12771,26805 12771,26775 L 12771,26613 C 12771,26563 12782,26543 12806,26543 12813,26543 12818,26545 12823,26547 L 12819,26541 C 12817,26556 12828,26576 12848,26576 12861,26576 12869,26568 12869,26556 12869,26534 12841,26526 12819,26526 12797,26526 12775,26534 12759,26549 12735,26572 12733,26605 12732,26622 12731,26637 12728,26639 12699,26643 12699,26646 12699,26649 12699,26653 L 12732,26653 12732,26779 C 12732,26804 12729,26806 12702,26807 12702,26812 12702,26816 12702,26819 Z M 12820,26653 C 12820,26647 12820,26641 12820,26635 L 12767,26635 12767,26653 12820,26653 Z "/>
    </g>
   </g>
   <g class="com.sun.star.drawing.ClosedBezierShape">
    <g id="id45">
     <rect class="BoundingBox" stroke="none" fill="none" x="12840" y="26628" width="180" height="197"/>
     <path fill="rgb(0,0,0)" stroke="none" d="M 12977,26823 C 12991,26823 13006,26817 13018,26803 13018,26800 13017,26797 13015,26795 13006,26798 12999,26799 12994,26799 12986,26799 12983,26795 12983,26787 12983,26762 12985,26699 12985,26674 12985,26644 12960,26628 12931,26628 12900,26628 12845,26648 12845,26673 12845,26682 12852,26690 12864,26690 12884,26690 12897,26664 12894,26645 L 12892,26651 C 12896,26648 12903,26646 12912,26646 12930,26646 12945,26657 12945,26675 12945,26694 12945,26710 12945,26725 L 12944,26790 12944,26794 C 12947,26814 12958,26823 12977,26823 Z M 12888,26824 C 12908,26824 12927,26814 12947,26795 L 12948,26785 C 12930,26793 12918,26798 12908,26798 12893,26798 12883,26789 12883,26770 12883,26748 12899,26734 12951,26728 L 12951,26714 C 12877,26722 12841,26743 12841,26779 12841,26807 12862,26824 12888,26824 Z "/>
    </g>
   </g>
   <g class="com.sun.star.drawing.ClosedBezierShape">
    <g id="id46">
     <rect class="BoundingBox" stroke="none" fill="none" x="13029" y="26626" width="153" height="195"/>
     <path fill="rgb(0,0,0)" stroke="none" d="M 13030,26819 C 13046,26819 13059,26819 13079,26819 13098,26819 13117,26819 13135,26819 13135,26815 13135,26811 13135,26807 13101,26806 13099,26805 13099,26775 L 13099,26691 13099,26669 13099,26629 13092,26626 C 13070,26635 13051,26640 13031,26644 13030,26647 13030,26651 13031,26654 13059,26658 13060,26661 13060,26692 L 13060,26779 C 13060,26804 13057,26806 13030,26807 13030,26811 13030,26816 13030,26819 Z M 13099,26691 C 13099,26673 13115,26657 13133,26657 13137,26668 13148,26673 13158,26673 13170,26673 13181,26665 13181,26651 13181,26639 13172,26628 13154,26628 13134,26628 13113,26642 13094,26669 L 13099,26691 Z "/>
    </g>
   </g>
   <g class="com.sun.star.drawing.ClosedBezierShape">
    <g id="id47">
     <rect class="BoundingBox" stroke="none" fill="none" x="13188" y="26706" width="105" height="32"/>
     <path fill="rgb(0,0,0)" stroke="none" d="M 13291,26736 C 13292,26726 13292,26716 13291,26706 L 13189,26706 C 13188,26716 13188,26726 13189,26736 L 13291,26736 Z "/>
    </g>
   </g>
   <g class="com.sun.star.drawing.ClosedBezierShape">
    <g id="id48">
     <rect class="BoundingBox" stroke="none" fill="none" x="13319" y="26626" width="153" height="195"/>
     <path fill="rgb(0,0,0)" stroke="none" d="M 13320,26819 C 13336,26819 13349,26819 13368,26819 13388,26819 13406,26819 13424,26819 13425,26815 13425,26811 13424,26807 13390,26806 13388,26805 13388,26775 L 13388,26691 13388,26669 13388,26629 13381,26626 C 13360,26635 13341,26640 13320,26644 13319,26647 13319,26651 13320,26654 13349,26658 13349,26661 13349,26692 L 13349,26779 C 13349,26804 13346,26806 13320,26807 13319,26811 13319,26816 13320,26819 Z M 13388,26691 C 13388,26673 13404,26657 13422,26657 13427,26668 13437,26673 13447,26673 13459,26673 13470,26665 13470,26651 13470,26639 13461,26628 13444,26628 13423,26628 13402,26642 13383,26669 L 13388,26691 Z "/>
    </g>
   </g>
   <g class="com.sun.star.drawing.ClosedBezierShape">
    <g id="id49">
     <rect class="BoundingBox" stroke="none" fill="none" x="13478" y="26533" width="101" height="288"/>
     <path fill="rgb(0,0,0)" stroke="none" d="M 13479,26819 C 13495,26819 13512,26819 13529,26819 13547,26819 13562,26819 13576,26819 13577,26816 13577,26811 13576,26807 13550,26806 13548,26805 13548,26775 L 13548,26671 C 13548,26658 13549,26645 13549,26629 L 13542,26626 C 13523,26634 13502,26640 13480,26644 13479,26647 13479,26651 13480,26654 13509,26658 13509,26661 13509,26692 L 13509,26779 C 13509,26804 13506,26806 13479,26807 13479,26811 13479,26816 13479,26819 Z M 13525,26587 C 13541,26587 13553,26573 13553,26560 13553,26545 13540,26533 13526,26533 13511,26533 13499,26545 13499,26560 13499,26575 13511,26587 13525,26587 Z "/>
    </g>
   </g>
   <g class="com.sun.star.drawing.ClosedBezierShape">
    <g id="id50">
     <rect class="BoundingBox" stroke="none" fill="none" x="13595" y="26628" width="206" height="291"/>
     <path fill="rgb(0,0,0)" stroke="none" d="M 13672,26918 C 13729,26918 13784,26892 13784,26840 13784,26809 13762,26789 13711,26789 13703,26789 13683,26789 13671,26789 13645,26789 13637,26787 13637,26774 13637,26765 13640,26759 13649,26751 L 13639,26746 C 13616,26761 13605,26775 13605,26790 13605,26811 13623,26825 13655,26825 13672,26825 13687,26825 13697,26825 13738,26825 13751,26833 13751,26855 13751,26891 13715,26900 13689,26900 13660,26900 13632,26889 13632,26862 13632,26848 13639,26835 13657,26822 L 13640,26821 C 13615,26836 13596,26849 13596,26873 13596,26901 13626,26918 13672,26918 Z M 13682,26761 C 13724,26761 13758,26736 13758,26694 13758,26655 13729,26628 13686,26628 13645,26628 13608,26654 13608,26697 13608,26736 13642,26761 13682,26761 Z M 13683,26747 C 13660,26747 13647,26726 13647,26693 13647,26660 13660,26642 13682,26642 13706,26642 13719,26662 13719,26695 13719,26728 13706,26747 13683,26747 Z M 13781,26664 C 13791,26664 13800,26657 13800,26646 13800,26634 13791,26628 13778,26628 13764,26628 13748,26635 13734,26647 L 13742,26656 C 13750,26651 13753,26649 13762,26647 13764,26658 13771,26664 13781,26664 Z "/>
    </g>
   </g>
   <g class="com.sun.star.drawing.ClosedBezierShape">
    <g id="id51">
     <rect class="BoundingBox" stroke="none" fill="none" x="13803" y="26526" width="222" height="295"/>
     <path fill="rgb(0,0,0)" stroke="none" d="M 13806,26819 C 13822,26819 13835,26819 13855,26819 13874,26819 13889,26819 13902,26819 13903,26816 13903,26811 13902,26807 13878,26806 13875,26805 13875,26775 L 13875,26571 C 13875,26554 13875,26540 13876,26528 L 13869,26526 C 13845,26536 13825,26541 13804,26544 13804,26547 13804,26551 13804,26554 13821,26556 13828,26558 13832,26563 13836,26568 13836,26577 13836,26592 L 13836,26779 C 13836,26804 13833,26806 13806,26807 13805,26811 13805,26816 13806,26819 Z M 13928,26819 C 13942,26819 13955,26819 13974,26819 13994,26819 14007,26819 14023,26819 14023,26816 14023,26811 14023,26807 13997,26806 13995,26805 13995,26775 L 13995,26687 C 13995,26649 13976,26628 13942,26628 13918,26628 13891,26639 13863,26669 L 13865,26684 C 13886,26661 13902,26654 13920,26654 13948,26654 13955,26669 13955,26700 L 13955,26779 C 13955,26804 13952,26806 13928,26807 13927,26811 13927,26816 13928,26819 Z "/>
    </g>
   </g>
   <g class="com.sun.star.drawing.ClosedBezierShape">
    <g id="id52">
     <rect class="BoundingBox" stroke="none" fill="none" x="14036" y="26589" width="133" height="236"/>
     <path fill="rgb(0,0,0)" stroke="none" d="M 14116,26824 C 14135,26824 14152,26818 14167,26807 14167,26803 14165,26798 14163,26795 14155,26800 14146,26802 14137,26802 14116,26802 14104,26791 14104,26771 14104,26704 14105,26635 14107,26590 14104,26590 14099,26590 14095,26590 14082,26614 14064,26632 14037,26643 14036,26646 14036,26649 14037,26653 L 14067,26653 C 14066,26693 14065,26735 14065,26781 14065,26809 14085,26824 14116,26824 Z M 14164,26653 C 14165,26647 14165,26641 14164,26635 L 14101,26635 14101,26653 14164,26653 Z "/>
    </g>
   </g>
  </g>
  <g class="Group">
   <g class="com.sun.star.drawing.ClosedBezierShape">
    <g id="id53">
     <rect class="BoundingBox" stroke="none" fill="none" x="11052" y="26633" width="158" height="192"/>
     <path fill="rgb(0,0,0)" stroke="none" d="M 11116,26824 C 11154,26824 11178,26799 11193,26772 11191,26769 11188,26767 11184,26765 11170,26784 11150,26797 11128,26797 11101,26797 11093,26778 11093,26756 11093,26711 11123,26646 11164,26649 L 11158,26642 C 11158,26670 11176,26680 11188,26680 11200,26680 11208,26672 11208,26661 11208,26645 11190,26633 11166,26633 11113,26633 11052,26687 11052,26755 11052,26797 11076,26824 11116,26824 Z "/>
    </g>
   </g>
   <g class="com.sun.star.drawing.ClosedBezierShape">
    <g id="id54">
     <rect class="BoundingBox" stroke="none" fill="none" x="11218" y="26632" width="159" height="193"/>
     <path fill="rgb(0,0,0)" stroke="none" d="M 11258,26734 C 11315,26729 11376,26706 11376,26665 11376,26645 11363,26633 11334,26633 11267,26633 11219,26698 11219,26756 11219,26797 11244,26824 11285,26824 11320,26824 11344,26804 11362,26774 11360,26771 11357,26768 11353,26766 11338,26785 11318,26798 11296,26798 11271,26798 11260,26782 11260,26756 11260,26712 11290,26649 11323,26649 11334,26649 11339,26657 11339,26668 11339,26701 11298,26717 11258,26721 L 11258,26734 Z "/>
    </g>
   </g>
   <g class="com.sun.star.drawing.ClosedBezierShape">
    <g id="id55">
     <rect class="BoundingBox" stroke="none" fill="none" x="11386" y="26632" width="220" height="193"/>
     <path fill="rgb(0,0,0)" stroke="none" d="M 11454,26748 C 11469,26684 11504,26655 11527,26655 11538,26655 11543,26663 11543,26673 11543,26696 11514,26772 11514,26798 11514,26813 11523,26824 11542,26824 11567,26824 11587,26806 11604,26783 11602,26780 11599,26777 11595,26775 11585,26788 11569,26799 11560,26799 11555,26799 11553,26793 11553,26790 11553,26774 11582,26696 11582,26668 11582,26648 11569,26633 11544,26633 11519,26633 11490,26649 11470,26680 L 11454,26680 11454,26748 Z M 11454,26748 L 11467,26695 C 11469,26680 11473,26665 11473,26656 11473,26644 11467,26634 11449,26634 11430,26634 11407,26646 11386,26670 11389,26673 11392,26676 11395,26678 11406,26666 11419,26657 11427,26657 11431,26657 11434,26660 11434,26667 11434,26670 11433,26673 11431,26681 L 11399,26819 11438,26819 11454,26748 Z "/>
    </g>
   </g>
   <g class="com.sun.star.drawing.ClosedBezierShape">
    <g id="id56">
     <rect class="BoundingBox" stroke="none" fill="none" x="11631" y="26586" width="118" height="240"/>
     <path fill="rgb(0,0,0)" stroke="none" d="M 11744,26659 C 11746,26653 11748,26648 11748,26642 L 11671,26642 11634,26648 C 11632,26651 11632,26655 11632,26659 L 11744,26659 Z M 11677,26590 C 11672,26611 11666,26636 11663,26651 L 11637,26768 C 11634,26780 11634,26788 11634,26793 11634,26806 11641,26824 11666,26824 11691,26824 11715,26809 11733,26783 11730,26780 11727,26778 11724,26776 11712,26791 11695,26800 11684,26800 11675,26800 11672,26795 11672,26787 11672,26783 11673,26775 11675,26765 L 11701,26653 C 11708,26621 11712,26605 11716,26588 L 11715,26586 C 11703,26588 11689,26590 11677,26590 Z "/>
    </g>
   </g>
   <g class="com.sun.star.drawing.ClosedBezierShape">
    <g id="id57">
     <rect class="BoundingBox" stroke="none" fill="none" x="11747" y="26632" width="175" height="188"/>
     <path fill="rgb(0,0,0)" stroke="none" d="M 11799,26819 C 11819,26725 11855,26670 11880,26659 L 11870,26647 C 11873,26667 11888,26675 11900,26675 11911,26675 11921,26668 11921,26655 11921,26644 11914,26633 11896,26633 11866,26633 11841,26664 11814,26729 L 11799,26727 11799,26819 Z M 11799,26819 L 11811,26734 11825,26688 C 11831,26667 11832,26660 11832,26654 11832,26643 11828,26634 11811,26634 11792,26634 11768,26646 11748,26670 11750,26673 11753,26676 11757,26678 11768,26666 11781,26657 11788,26657 11792,26657 11795,26660 11795,26667 11795,26670 11794,26673 11792,26681 L 11760,26819 11799,26819 Z "/>
    </g>
   </g>
   <g class="com.sun.star.drawing.ClosedBezierShape">
    <g id="id58">
     <rect class="BoundingBox" stroke="none" fill="none" x="11909" y="26632" width="159" height="193"/>
     <path fill="rgb(0,0,0)" stroke="none" d="M 11948,26734 C 12006,26729 12066,26706 12066,26665 12066,26645 12053,26633 12024,26633 11957,26633 11909,26698 11909,26756 11909,26797 11934,26824 11975,26824 12010,26824 12035,26804 12053,26774 12051,26771 12047,26768 12044,26766 12029,26785 12009,26798 11987,26798 11961,26798 11950,26782 11950,26756 11950,26712 11981,26649 12013,26649 12025,26649 12030,26657 12030,26668 12030,26701 11988,26717 11948,26721 L 11948,26734 Z "/>
    </g>
   </g>
   <g class="com.sun.star.drawing.PolyPolygonShape">
    <g id="id59">
     <rect class="BoundingBox" stroke="none" fill="none" x="11042" y="26709" width="1032" height="26"/>
     <path fill="rgb(0,0,0)" stroke="none" d="M 11042,26733 L 11042,26721 11042,26709 12073,26709 12073,26721 12073,26733 11042,26733 Z "/>
    </g>
   </g>
  </g>
 </g>
</svg>