<?xml version="1.0" encoding="UTF-8" standalone="no"?>
<!-- Created with Inkscape (http://www.inkscape.org/) -->

<svg
   width="75.54351mm"
   height="26.663198mm"
   viewBox="0 0 75.54351 26.663198"
   version="1.1"
   id="svg1"
   xmlns="http://www.w3.org/2000/svg"
   xmlns:svg="http://www.w3.org/2000/svg">
  <defs
     id="defs1">
    <marker
       style="overflow:visible"
       id="Triangle-1"
       refX="0"
       refY="0"
       orient="auto-start-reverse"
       markerWidth="1"
       markerHeight="1"
       viewBox="0 0 1 1"
       preserveAspectRatio="xMidYMid">
      <path
         transform="scale(0.5)"
         style="fill:context-stroke;fill-rule:evenodd;stroke:context-stroke;stroke-width:1pt"
         d="M 5.77,0 -2.88,5 V -5 Z"
         id="path135-2" />
    </marker>
    <marker
       style="overflow:visible"
       id="marker5-8"
       refX="0"
       refY="0"
       orient="auto-start-reverse"
       markerWidth="1"
       markerHeight="1"
       viewBox="0 0 1 1"
       preserveAspectRatio="xMidYMid">
      <path
         transform="scale(0.5)"
         style="fill:context-stroke;fill-rule:evenodd;stroke:context-stroke;stroke-width:1pt"
         d="M 5.77,0 -2.88,5 V -5 Z"
         id="path5-9" />
    </marker>
  </defs>
  <g
     id="layer1"
     transform="translate(-55.039026,-138.46165)">
    <path
       style="fill:#3095bd;fill-opacity:1;stroke:none;stroke-width:0.665001;stroke-opacity:1"
       d="m 129.34932,160.93265 c 0,0 -16.29854,-0.71782 -20.05058,-4.71689 -3.75203,-3.99906 -4.34346,-11.27938 -7.57312,-11.27938 -6.083923,0 -3.790096,13.89109 -8.851915,13.89109 -5.595968,0 -4.36664,-13.89109 -9.767601,-13.89109 -3.624805,0 -4.521466,8.11971 -8.174716,12.11877 -3.65325,3.99907 -18.533292,3.8775 -18.533292,3.8775"
       id="path3-6-2" />
    <path
       style="fill:#1a1a1a;fill-opacity:1;stroke:#000000;stroke-width:0.365;stroke-dasharray:none;stroke-opacity:1;marker-start:url(#Triangle-1);marker-end:url(#marker5-8)"
       d="M 129.2864,161.09343 H 56.335172"
       id="path3-0" />
    <path
       style="font-size:3.175px;font-family:Castoro;-inkscape-font-specification:'Castoro, Normal';stroke-width:0.365"
       d="m 82.114438,165.08949 c 0.136525,0 0.3683,-0.006 0.492125,-0.006 0.123825,0 0.37465,0.006 0.51435,0.006 0.0032,-0.0318 0.0032,-0.0699 0,-0.1016 -0.18415,-0.0127 -0.250825,-0.019 -0.295275,-0.0572 -0.04127,-0.0381 -0.04445,-0.10795 -0.04445,-0.23812 v -1.69545 c 0.06033,-0.01 0.123825,-0.0127 0.168275,-0.0127 0.320675,0 0.4826,0.18097 0.4826,0.47625 0,0.3048 -0.17145,0.51117 -0.45085,0.51117 -0.08572,0 -0.1651,-0.019 -0.225425,-0.0349 v 0.127 c 0.130175,0.0317 0.2286,0.0381 0.31115,0.0381 0.428625,0 0.752475,-0.23178 0.752475,-0.65723 0,-0.44132 -0.352425,-0.58737 -0.752475,-0.58737 -0.104775,0 -0.352425,0.01 -0.4699,0.01 -0.08572,0 -0.358775,-0.006 -0.4826,-0.006 -0.0032,0.0349 -0.0032,0.0699 0,0.1016 0.301625,0.0254 0.3175,0.0317 0.3175,0.29528 v 1.47637 c 0,0.2286 -0.0127,0.22543 -0.3175,0.254 -0.0032,0.0349 -0.0032,0.0699 0,0.1016 z m 2.565403,0.0349 c 0.47625,0 0.79375,-0.34925 0.79375,-0.81598 0,-0.45085 -0.3048,-0.78422 -0.765175,-0.78422 -0.473075,0 -0.796925,0.32702 -0.796925,0.81915 0,0.46037 0.301625,0.78105 0.76835,0.78105 z m 0.01588,-0.11748 c -0.282575,0 -0.42545,-0.26987 -0.42545,-0.70167 0,-0.41275 0.149225,-0.6604 0.422275,-0.6604 0.276225,0 0.422275,0.27305 0.422275,0.70167 0,0.40323 -0.149225,0.6604 -0.4191,0.6604 z m 0.968373,0.0826 c 0.127,0 0.238125,-0.006 0.396875,-0.006 0.155575,0 0.276225,0.006 0.40005,0.006 0.0032,-0.0318 0.0032,-0.0667 0,-0.0984 -0.212725,-0.0127 -0.231775,-0.0191 -0.231775,-0.2667 v -1.6637 c 0,-0.1397 0,-0.25718 0.0063,-0.35243 l -0.05398,-0.019 c -0.187325,0.0794 -0.365125,0.12065 -0.5334,0.14288 -0.0063,0.0318 -0.0063,0.0572 0,0.0857 0.22225,0.019 0.257175,0.0508 0.257175,0.24765 v 1.59068 c 0,0.20955 -0.0254,0.22225 -0.2413,0.23495 -0.0063,0.0317 -0.0063,0.0667 0,0.0984 z m 0.949324,0 c 0.127,0 0.2667,-0.006 0.403225,-0.006 0.14605,0 0.269875,0.006 0.390525,0.006 0.0063,-0.0318 0.0063,-0.0667 0,-0.0984 -0.212725,-0.0127 -0.231775,-0.0191 -0.231775,-0.2667 v -0.8509 c 0,-0.1016 0.0032,-0.21273 0.0063,-0.34608 l -0.05397,-0.019 c -0.155575,0.0603 -0.327025,0.11113 -0.511175,0.14605 -0.0063,0.0254 -0.0063,0.054 0,0.0825 0.238125,0.0317 0.238125,0.0603 0.238125,0.30798 v 0.7112 c 0,0.20955 -0.0254,0.22225 -0.2413,0.23495 -0.0063,0.0317 -0.0063,0.0667 0,0.0984 z m 0.37465,-1.905 c 0.130175,0 0.225425,-0.10795 0.225425,-0.21907 0,-0.11748 -0.1016,-0.2159 -0.219075,-0.2159 -0.123825,0 -0.22225,0.0984 -0.22225,0.21907 0,0.11748 0.09525,0.2159 0.2159,0.2159 z m 1.181101,1.93993 c 0.155575,0 0.29845,-0.0476 0.422275,-0.1397 -0.0032,-0.0318 -0.01587,-0.0699 -0.03492,-0.0953 -0.06668,0.0413 -0.1397,0.0603 -0.212725,0.0603 -0.174625,0 -0.2667,-0.0889 -0.2667,-0.25717 0,-0.54928 0.0095,-1.10808 0.01905,-1.47638 -0.0254,-0.003 -0.06032,-0.006 -0.09525,-0.006 -0.104775,0.20003 -0.257175,0.3429 -0.473075,0.43498 -0.0064,0.0254 -0.0064,0.054 0,0.0857 h 0.2413 c -0.0032,0.32385 -0.0127,0.66993 -0.0127,1.0414 0,0.2286 0.15875,0.35243 0.41275,0.35243 z m 0.40005,-1.39383 c 0.0063,-0.0508 0.0063,-0.0984 0,-0.14605 h -0.517525 v 0.14605 z m 0.139699,1.3589 c 0.127,0 0.2667,-0.006 0.403225,-0.006 0.14605,0 0.269875,0.006 0.390525,0.006 0.0063,-0.0318 0.0063,-0.0667 0,-0.0984 -0.212725,-0.0127 -0.231775,-0.0191 -0.231775,-0.2667 v -0.8509 c 0,-0.1016 0.0032,-0.21273 0.0063,-0.34608 l -0.05397,-0.019 c -0.155575,0.0603 -0.327025,0.11113 -0.511175,0.14605 -0.0063,0.0254 -0.0063,0.054 0,0.0825 0.238125,0.0317 0.238125,0.0603 0.238125,0.30798 v 0.7112 c 0,0.20955 -0.0254,0.22225 -0.2413,0.23495 -0.0063,0.0317 -0.0063,0.0667 0,0.0984 z m 0.37465,-1.905 c 0.130175,0 0.225425,-0.10795 0.225425,-0.21907 0,-0.11748 -0.1016,-0.2159 -0.219075,-0.2159 -0.123825,0 -0.22225,0.0984 -0.22225,0.21907 0,0.11748 0.09525,0.2159 0.2159,0.2159 z m 1.308101,1.93993 c 0.2286,0 0.428625,-0.0921 0.60325,-0.27305 -0.0095,-0.0222 -0.02857,-0.0508 -0.04762,-0.073 -0.142875,0.0889 -0.269875,0.12383 -0.403225,0.12383 -0.34925,0 -0.530225,-0.26353 -0.530225,-0.61913 0,-0.2794 0.111125,-0.62865 0.41275,-0.62865 0.06985,0 0.142875,0.019 0.1778,0.0572 l -0.02222,-0.073 c -0.02223,0.2286 0.0889,0.37465 0.225425,0.37465 0.09208,0 0.17145,-0.0603 0.17145,-0.17463 0,-0.2159 -0.288925,-0.31432 -0.523875,-0.31432 -0.454025,0 -0.762,0.36512 -0.762,0.82867 0,0.42545 0.26035,0.77153 0.6985,0.77153 z m 1.889127,-0.006 c 0.117475,0 0.238125,-0.0476 0.3429,-0.16193 -0.0032,-0.0222 -0.0095,-0.0476 -0.0254,-0.0699 -0.07937,0.0254 -0.13335,0.0381 -0.174625,0.0381 -0.0635,0 -0.0889,-0.0349 -0.0889,-0.1016 0,-0.20637 0.01587,-0.72072 0.01587,-0.92075 0,-0.24447 -0.206375,-0.37782 -0.441325,-0.37782 -0.257175,0 -0.701675,0.16192 -0.701675,0.3683 0,0.0762 0.05715,0.13652 0.149225,0.13652 0.168275,0 0.269875,-0.21272 0.250825,-0.36512 l -0.02223,0.0476 c 0.03493,-0.0222 0.09208,-0.0381 0.1651,-0.0381 0.1524,0 0.276225,0.0857 0.276225,0.23495 0,0.1524 -0.0032,0.28893 -0.0032,0.40958 l -0.0063,0.52705 -0.0064,0.0381 c 0.03175,0.15875 0.12065,0.23495 0.269875,0.23495 z m -0.7239,0.006 c 0.1651,0 0.320675,-0.0762 0.479425,-0.23495 l 0.0095,-0.0794 c -0.14605,0.0667 -0.24765,0.10795 -0.327025,0.10795 -0.12065,0 -0.206375,-0.0794 -0.206375,-0.2286 0,-0.18415 0.13335,-0.30162 0.561975,-0.34925 l -0.0063,-0.1143 c -0.60325,0.0699 -0.898525,0.2413 -0.898525,0.5334 0,0.2286 0.17145,0.36513 0.38735,0.36513 z m 1.13665,-0.0349 c 0.127,0 0.238125,-0.006 0.396875,-0.006 0.155575,0 0.276225,0.006 0.40005,0.006 0.0032,-0.0318 0.0032,-0.0667 0,-0.0984 -0.212725,-0.0127 -0.231775,-0.0191 -0.231775,-0.2667 v -1.6637 c 0,-0.1397 0,-0.25718 0.0063,-0.35243 l -0.05397,-0.019 c -0.187325,0.0794 -0.365125,0.12065 -0.5334,0.14288 -0.0063,0.0318 -0.0063,0.0572 0,0.0857 0.22225,0.019 0.257175,0.0508 0.257175,0.24765 v 1.59068 c 0,0.20955 -0.0254,0.22225 -0.2413,0.23495 -0.0063,0.0317 -0.0063,0.0667 0,0.0984 z m 2.441572,-0.0191 0.511175,-1.19062 c 0.05715,-0.13018 0.09525,-0.19368 0.27305,-0.20638 0.0032,-0.0317 0.0032,-0.0667 0,-0.1016 -0.155575,0.006 -0.187325,0.006 -0.250825,0.006 -0.1397,0 -0.2286,-0.006 -0.33655,-0.006 -0.0032,0.0349 -0.0032,0.0667 0,0.1016 0.142875,0.0127 0.1905,0.0317 0.1905,0.0921 0,0.0317 -0.01588,0.0794 -0.0381,0.1397 -0.130175,0.3302 -0.28575,0.6731 -0.371475,0.87312 l 0.04762,-0.0222 c -0.04445,-0.0857 -0.3048,-0.76835 -0.3429,-0.86678 -0.0127,-0.0349 -0.03175,-0.0921 -0.03175,-0.127 0,-0.0667 0.04127,-0.0794 0.187325,-0.0889 0.0064,-0.0349 0.0064,-0.0667 0,-0.1016 -0.09842,0 -0.257175,0.006 -0.381,0.006 -0.13335,0 -0.269875,-0.006 -0.390525,-0.006 -0.0032,0.0381 -0.0032,0.073 0,0.1016 0.174625,0.0222 0.20955,0.054 0.263525,0.1905 l 0.4953,1.24143 z m 0.800102,0.0191 c 0.127,0 0.2667,-0.006 0.403225,-0.006 0.14605,0 0.269875,0.006 0.390525,0.006 0.0063,-0.0318 0.0063,-0.0667 0,-0.0984 -0.212725,-0.0127 -0.231775,-0.0191 -0.231775,-0.2667 v -0.8509 c 0,-0.1016 0.0032,-0.21273 0.0063,-0.34608 l -0.05397,-0.019 c -0.155575,0.0603 -0.327025,0.11113 -0.511175,0.14605 -0.0063,0.0254 -0.0063,0.054 0,0.0825 0.238125,0.0317 0.238125,0.0603 0.238125,0.30798 v 0.7112 c 0,0.20955 -0.0254,0.22225 -0.2413,0.23495 -0.0063,0.0317 -0.0063,0.0667 0,0.0984 z m 0.37465,-1.905 c 0.130175,0 0.225425,-0.10795 0.225425,-0.21907 0,-0.11748 -0.1016,-0.2159 -0.219075,-0.2159 -0.123825,0 -0.22225,0.0984 -0.22225,0.21907 0,0.11748 0.09525,0.2159 0.2159,0.2159 z m 1.308102,1.93993 c 0.238125,0 0.447675,-0.0984 0.62865,-0.29528 -0.0127,-0.0286 -0.02858,-0.0508 -0.04762,-0.073 -0.142875,0.0952 -0.2794,0.1397 -0.42545,0.1397 -0.3429,0 -0.542925,-0.25083 -0.542925,-0.66675 0,-0.38735 0.1651,-0.5842 0.37465,-0.5842 0.193675,0 0.295275,0.17145 0.295275,0.40005 0,0.0318 -0.0032,0.0508 -0.0127,0.073 l 0.1397,-0.0445 -0.8255,0.0159 v 0.11747 l 1.0287,0.01 c 0.0032,-0.0191 0.0063,-0.054 0.0063,-0.0953 0,-0.35243 -0.22225,-0.5969 -0.593725,-0.5969 -0.466725,0 -0.7239,0.39052 -0.7239,0.8255 0,0.42862 0.24765,0.7747 0.6985,0.7747 z m 2.463798,-0.0508 0.51435,-1.1938 c 0.0572,-0.13018 0.0984,-0.19368 0.27305,-0.20638 0.003,-0.0317 0.003,-0.0667 0,-0.1016 -0.0984,0.003 -0.14923,0.006 -0.25718,0.006 -0.12382,0 -0.22542,-0.006 -0.32702,-0.006 -0.003,0.0349 -0.003,0.0667 0,0.1016 0.14605,0.0127 0.1905,0.0349 0.1905,0.0921 0,0.0317 -0.0159,0.0794 -0.0381,0.13652 -0.1143,0.3048 -0.2413,0.59373 -0.381,0.90805 l 0.0794,0.003 c -0.127,-0.32068 -0.21907,-0.61595 -0.323845,-0.92075 -0.02223,-0.0603 -0.03175,-0.10478 -0.03175,-0.13335 0,-0.0635 0.04762,-0.0762 0.187325,-0.0857 0.0063,-0.0349 0.0063,-0.0667 0,-0.1016 -0.09208,0 -0.2413,0.006 -0.34925,0.006 -0.130175,0 -0.254,-0.006 -0.37465,-0.006 -0.0032,0.0381 -0.0032,0.073 0,0.1016 0.161925,0.0222 0.18415,0.054 0.23495,0.1905 l 0.45085,1.24143 z m -0.84455,-0.003 c 0.1397,-0.35242 0.27305,-0.64452 0.409575,-0.97155 l -0.06667,-0.14605 -0.390525,0.89853 0.1016,-0.0381 c -0.13335,-0.32068 -0.238125,-0.61913 -0.34925,-0.92075 -0.02223,-0.0603 -0.03175,-0.10478 -0.03175,-0.13335 0,-0.0635 0.04762,-0.0762 0.18415,-0.0857 0.0032,-0.0349 0.0032,-0.0667 0,-0.1016 -0.09525,0 -0.250825,0.006 -0.3683,0.006 -0.1397,0 -0.269875,-0.006 -0.3937,-0.006 -0.0032,0.0381 -0.0032,0.073 0,0.1016 0.17145,0.0222 0.20955,0.054 0.26035,0.1905 l 0.4699,1.24143 z m 2.21615,0.054 c 0.28575,0 0.5715,-0.14288 0.5715,-0.47625 0,-0.30798 -0.24764,-0.4064 -0.49213,-0.50483 -0.13652,-0.0508 -0.31432,-0.11747 -0.31432,-0.28257 0,-0.13335 0.11112,-0.2159 0.28575,-0.2159 0.19367,0 0.29527,0.1016 0.34925,0.33972 0.0318,0.003 0.0667,0 0.11112,-0.003 -0.0127,-0.15558 -0.0159,-0.2921 -0.0159,-0.42863 -0.10478,0.0159 -0.31433,-0.0286 -0.4445,-0.0286 -0.2921,0 -0.56515,0.14922 -0.56515,0.45402 0,0.26988 0.21907,0.36513 0.45402,0.46038 0.2032,0.0826 0.3556,0.14287 0.3556,0.3302 0,0.16827 -0.13017,0.24447 -0.29527,0.24447 -0.22225,0 -0.35878,-0.14922 -0.42228,-0.42862 -0.0286,-0.003 -0.0603,0 -0.10477,0.003 0.0127,0.19368 0.0254,0.3556 0.0254,0.48578 0.13335,0 0.3556,0.0508 0.50165,0.0508 z"
       id="text5-1"
       aria-label="Political views" />
    <path
       style="font-size:3.175px;font-family:Castoro;-inkscape-font-specification:'Castoro, Normal';stroke-width:0.365"
       d="m 64.85806,140.90346 c 0.276225,0 0.508,-0.0667 0.74295,-0.13335 0.0127,-0.19685 0.03175,-0.38418 0.05715,-0.56833 -0.04127,-0.003 -0.0762,-0.003 -0.111125,-0.003 -0.09207,0.3937 -0.295275,0.57467 -0.6477,0.57467 -0.561975,0 -0.8001,-0.46672 -0.8001,-1.0287 0,-0.5207 0.20955,-1.016 0.777875,-1.016 0.3556,0 0.568325,0.1905 0.650875,0.57468 0.03175,0.003 0.06985,0 0.10795,-0.006 -0.01588,-0.2159 -0.0254,-0.41275 -0.03175,-0.60008 -0.01905,0.003 -0.04445,0.006 -0.06668,0.006 -0.06668,0 -0.127,-0.019 -0.20955,-0.0381 -0.187325,-0.0413 -0.295275,-0.0635 -0.466725,-0.0635 -0.70485,0 -1.158875,0.4826 -1.158875,1.17475 0,0.6858 0.45085,1.12713 1.1557,1.12713 z m 2.190752,-0.0127 c 0.117475,0 0.238125,-0.0476 0.3429,-0.16193 -0.0032,-0.0222 -0.0095,-0.0476 -0.0254,-0.0698 -0.07937,0.0254 -0.13335,0.0381 -0.174625,0.0381 -0.0635,0 -0.0889,-0.0349 -0.0889,-0.1016 0,-0.20637 0.01587,-0.72072 0.01587,-0.92075 0,-0.24447 -0.206375,-0.37782 -0.441324,-0.37782 -0.257175,0 -0.701675,0.16192 -0.701675,0.3683 0,0.0762 0.05715,0.13652 0.149225,0.13652 0.168275,0 0.269875,-0.21272 0.250825,-0.36512 l -0.02223,0.0476 c 0.03493,-0.0222 0.09208,-0.0381 0.1651,-0.0381 0.1524,0 0.276224,0.0857 0.276224,0.23495 0,0.1524 -0.0032,0.28893 -0.0032,0.40958 l -0.0063,0.52705 -0.0063,0.0381 c 0.03175,0.15875 0.12065,0.23495 0.269875,0.23495 z m -0.723899,0.006 c 0.1651,0 0.320675,-0.0762 0.479424,-0.23495 l 0.0095,-0.0794 c -0.146049,0.0667 -0.247649,0.10795 -0.327024,0.10795 -0.12065,0 -0.206375,-0.0794 -0.206375,-0.2286 0,-0.18415 0.13335,-0.30162 0.561974,-0.34925 l -0.0063,-0.1143 c -0.603249,0.0699 -0.898524,0.2413 -0.898524,0.5334 0,0.2286 0.17145,0.36513 0.38735,0.36513 z m 2.15265,-0.0349 c 0.117475,0 0.225425,-0.006 0.381,-0.006 0.161925,0 0.269875,0.006 0.396875,0.006 0.0032,-0.0317 0.0032,-0.0667 0,-0.0984 -0.20955,-0.0127 -0.2286,-0.019 -0.2286,-0.2667 v -0.72073 c 0,-0.30797 -0.1524,-0.47942 -0.4318,-0.47942 -0.19685,0 -0.4191,0.0857 -0.644525,0.33655 l 0.0127,0.11747 c 0.174625,-0.18732 0.301625,-0.2413 0.447675,-0.2413 0.231775,0 0.2921,0.12383 0.2921,0.37783 v 0.64135 c 0,0.20955 -0.02858,0.22225 -0.225425,0.23495 -0.0032,0.0318 -0.0032,0.0667 0,0.0984 z m -0.993775,0 c 0.127,0 0.257175,-0.006 0.3937,-0.006 0.14605,0 0.27305,0.006 0.3937,0.006 0.0032,-0.0317 0.0032,-0.0667 0,-0.0984 -0.2032,-0.0127 -0.225425,-0.019 -0.225425,-0.2667 v -0.8636 l -0.0032,-0.054 v -0.2794 l -0.05397,-0.0191 c -0.149225,0.0603 -0.32385,0.11113 -0.50165,0.14605 -0.0063,0.0254 -0.0063,0.054 0,0.0825 0.23495,0.0318 0.238125,0.0603 0.238125,0.30798 v 0.7112 c 0,0.20955 -0.0254,0.22225 -0.2413,0.23495 -0.0063,0.0318 -0.0063,0.0667 0,0.0984 z m 3.149602,0.0381 c 0.149225,-0.0445 0.307975,-0.073 0.479425,-0.0984 0.0063,-0.0286 0.0063,-0.0572 0,-0.0857 -0.2286,-0.0349 -0.2286,-0.0667 -0.2286,-0.30797 v -1.5748 c 0,-0.1397 0,-0.25718 0.0063,-0.35243 l -0.05397,-0.019 c -0.187325,0.0794 -0.365125,0.12065 -0.5334,0.14288 -0.0063,0.0317 -0.0063,0.0572 0,0.0857 0.117475,0.01 0.18415,0.0222 0.219075,0.0635 0.03175,0.0349 0.04127,0.0921 0.04127,0.18415 v 0.4572 l 0.0032,0.16828 v 1.0414 l 0.01587,0.27305 z m -0.5461,-0.003 c 0.200025,0 0.352425,-0.0889 0.511175,-0.26988 l -0.0095,-0.14922 c -0.08572,0.14287 -0.2032,0.21907 -0.36195,0.21907 -0.339725,0 -0.460375,-0.33655 -0.460375,-0.66675 0,-0.37782 0.149225,-0.60325 0.441325,-0.60325 0.1651,0 0.295275,0.0762 0.390525,0.23495 l 0.01905,-0.29845 c -0.136525,-0.0508 -0.257175,-0.0667 -0.371475,-0.0667 -0.492125,0 -0.809625,0.38417 -0.809625,0.84455 0,0.40005 0.254,0.75565 0.650875,0.75565 z m 1.181102,-0.0349 c 0.127,0 0.2667,-0.006 0.403225,-0.006 0.14605,0 0.269875,0.006 0.390525,0.006 0.0064,-0.0317 0.0064,-0.0667 0,-0.0984 -0.212725,-0.0127 -0.231775,-0.019 -0.231775,-0.2667 v -0.8509 c 0,-0.1016 0.0032,-0.21273 0.0063,-0.34608 l -0.05397,-0.0191 c -0.155575,0.0603 -0.327025,0.11113 -0.511175,0.14605 -0.0063,0.0254 -0.0063,0.054 0,0.0825 0.238125,0.0318 0.238125,0.0603 0.238125,0.30798 v 0.7112 c 0,0.20955 -0.0254,0.22225 -0.2413,0.23495 -0.0064,0.0318 -0.0064,0.0667 0,0.0984 z m 0.37465,-1.905 c 0.130175,0 0.225425,-0.10795 0.225425,-0.21907 0,-0.11748 -0.1016,-0.2159 -0.219075,-0.2159 -0.123825,0 -0.22225,0.0984 -0.22225,0.21907 0,0.11748 0.09525,0.2159 0.2159,0.2159 z m 1.806576,1.9431 c 0.149225,-0.0445 0.307975,-0.073 0.479425,-0.0984 0.0064,-0.0286 0.0064,-0.0572 0,-0.0857 -0.2286,-0.0349 -0.2286,-0.0667 -0.2286,-0.30797 v -1.5748 c 0,-0.1397 0,-0.25718 0.0063,-0.35243 l -0.05398,-0.019 c -0.187325,0.0794 -0.365125,0.12065 -0.5334,0.14288 -0.0063,0.0317 -0.0063,0.0572 0,0.0857 0.117475,0.01 0.18415,0.0222 0.219075,0.0635 0.03175,0.0349 0.04127,0.0921 0.04127,0.18415 v 0.4572 l 0.0032,0.16828 v 1.0414 l 0.01588,0.27305 z m -0.5461,-0.003 c 0.200025,0 0.352425,-0.0889 0.511175,-0.26988 l -0.0095,-0.14922 c -0.08572,0.14287 -0.2032,0.21907 -0.36195,0.21907 -0.339725,0 -0.460375,-0.33655 -0.460375,-0.66675 0,-0.37782 0.149225,-0.60325 0.441325,-0.60325 0.1651,0 0.295275,0.0762 0.390525,0.23495 l 0.01905,-0.29845 c -0.136525,-0.0508 -0.257175,-0.0667 -0.371475,-0.0667 -0.492125,0 -0.809625,0.38417 -0.809625,0.84455 0,0.40005 0.254,0.75565 0.650875,0.75565 z m 2.311403,-0.006 c 0.117475,0 0.238125,-0.0476 0.3429,-0.16193 -0.0032,-0.0222 -0.0095,-0.0476 -0.0254,-0.0698 -0.07937,0.0254 -0.13335,0.0381 -0.174625,0.0381 -0.0635,0 -0.0889,-0.0349 -0.0889,-0.1016 0,-0.20637 0.01588,-0.72072 0.01588,-0.92075 0,-0.24447 -0.206375,-0.37782 -0.441325,-0.37782 -0.257175,0 -0.701675,0.16192 -0.701675,0.3683 0,0.0762 0.05715,0.13652 0.149225,0.13652 0.168275,0 0.269875,-0.21272 0.250825,-0.36512 l -0.02222,0.0476 c 0.03492,-0.0222 0.09207,-0.0381 0.1651,-0.0381 0.1524,0 0.276225,0.0857 0.276225,0.23495 0,0.1524 -0.0032,0.28893 -0.0032,0.40958 l -0.0063,0.52705 -0.0063,0.0381 c 0.03175,0.15875 0.12065,0.23495 0.269875,0.23495 z m -0.7239,0.006 c 0.1651,0 0.320675,-0.0762 0.479425,-0.23495 l 0.0095,-0.0794 c -0.14605,0.0667 -0.24765,0.10795 -0.327025,0.10795 -0.12065,0 -0.206375,-0.0794 -0.206375,-0.2286 0,-0.18415 0.13335,-0.30162 0.561975,-0.34925 l -0.0063,-0.1143 c -0.60325,0.0699 -0.898525,0.2413 -0.898525,0.5334 0,0.2286 0.17145,0.36513 0.38735,0.36513 z m 1.768475,0 c 0.155575,0 0.29845,-0.0476 0.422275,-0.1397 -0.0032,-0.0317 -0.01587,-0.0699 -0.03493,-0.0952 -0.06667,0.0413 -0.1397,0.0603 -0.212725,0.0603 -0.174625,0 -0.2667,-0.0889 -0.2667,-0.25717 0,-0.54928 0.0095,-1.10808 0.01905,-1.47638 -0.0254,-0.003 -0.06032,-0.006 -0.09525,-0.006 -0.104775,0.20003 -0.257175,0.3429 -0.473075,0.43498 -0.0063,0.0254 -0.0063,0.054 0,0.0857 h 0.2413 c -0.0032,0.32385 -0.0127,0.66993 -0.0127,1.0414 0,0.2286 0.15875,0.35243 0.41275,0.35243 z m 0.40005,-1.39383 c 0.0063,-0.0508 0.0063,-0.0984 0,-0.14605 h -0.517525 v 0.14605 z m 0.844547,1.39383 c 0.238125,0 0.447675,-0.0984 0.62865,-0.29528 -0.0127,-0.0286 -0.02858,-0.0508 -0.04763,-0.073 -0.142875,0.0952 -0.2794,0.1397 -0.42545,0.1397 -0.3429,0 -0.542925,-0.25083 -0.542925,-0.66675 0,-0.38735 0.1651,-0.5842 0.37465,-0.5842 0.193675,0 0.295275,0.17145 0.295275,0.40005 0,0.0317 -0.0032,0.0508 -0.0127,0.073 l 0.1397,-0.0444 -0.8255,0.0159 v 0.11747 l 1.0287,0.01 c 0.0032,-0.019 0.0063,-0.054 0.0063,-0.0952 0,-0.35243 -0.22225,-0.5969 -0.593725,-0.5969 -0.466725,0 -0.7239,0.39052 -0.7239,0.8255 0,0.42862 0.24765,0.7747 0.6985,0.7747 z m 4.860911,-0.0349 c 0.127,0 0.2286,-0.006 0.34925,-0.006 0.142875,0 0.282575,0.006 0.42545,0.006 0.0032,-0.0317 0.0032,-0.0667 0,-0.1016 -0.200025,-0.019 -0.2794,-0.0286 -0.2794,-0.12065 0,-0.0413 0.01587,-0.0889 0.04445,-0.17145 l 0.530225,-1.4605 h -0.03175 l 0.555625,1.5113 c 0.02222,0.0635 0.03493,0.10478 0.03493,0.13653 0,0.0794 -0.06985,0.0857 -0.276225,0.10477 -0.0064,0.0349 -0.0064,0.0699 0,0.1016 0.161925,0 0.32385,-0.006 0.485775,-0.006 0.155575,0 0.314325,0.006 0.46355,0.006 0.0032,-0.0317 0.0032,-0.0699 0,-0.1016 -0.250825,-0.0254 -0.26035,-0.0254 -0.37465,-0.33337 l -0.682625,-1.81293 c -0.04763,0 -0.123825,0.01 -0.168275,0.0254 l -0.6858,1.75895 c -0.127,0.32703 -0.155575,0.33655 -0.390525,0.36195 -0.0032,0.0317 -0.0032,0.0699 0,0.1016 z m 1.4478,-0.83185 -0.04762,-0.13335 h -0.688975 l -0.04763,0.13335 z m 7.883505,0.83185 c 0.123825,0 0.38735,-0.006 0.48895,-0.006 0.123825,0 0.2921,0.01 0.441325,0.01 0.1524,0 0.288925,-0.01 0.4064,-0.0413 0.269875,-0.073 0.47625,-0.2794 0.47625,-0.58102 0,-0.35243 -0.28575,-0.53658 -0.625475,-0.56515 v -0.003 c 0.333375,-0.0953 0.498475,-0.2794 0.498475,-0.5461 0,-0.32067 -0.24765,-0.4953 -0.762,-0.4953 -0.1016,0 -0.301625,0.006 -0.4318,0.006 -0.123825,0 -0.358775,-0.006 -0.492125,-0.006 -0.0032,0.0349 -0.0032,0.0699 0,0.1016 0.2921,0.0254 0.307975,0.0318 0.307975,0.29528 v 1.47637 c 0,0.22543 -0.0127,0.22543 -0.307975,0.254 -0.0032,0.0349 -0.0032,0.0699 0,0.1016 z m 0.911225,-0.12065 c -0.07937,0 -0.15875,-0.01 -0.250825,-0.0286 -0.0032,-0.0445 -0.0032,-0.11748 -0.0032,-0.22225 v -1.71133 c 0.07303,-0.01 0.123825,-0.0159 0.187325,-0.0159 0.307975,0 0.460375,0.14287 0.460375,0.4445 0,0.29845 -0.155575,0.44132 -0.561975,0.44132 -0.03493,0 -0.0762,0 -0.127,-0.01 v 0.1524 c 0.08255,-0.0127 0.168275,-0.0159 0.2286,-0.0159 0.40005,0 0.581025,0.14605 0.581025,0.4699 0,0.33338 -0.187325,0.4953 -0.51435,0.4953 z m 9.305896,0.16193 c 0.27623,0 0.508,-0.0667 0.74295,-0.13335 0.0127,-0.19685 0.0318,-0.38418 0.0572,-0.56833 -0.0413,-0.003 -0.0762,-0.003 -0.11112,-0.003 -0.0921,0.3937 -0.29528,0.57467 -0.6477,0.57467 -0.56198,0 -0.8001,-0.46672 -0.8001,-1.0287 0,-0.5207 0.20955,-1.016 0.77787,-1.016 0.3556,0 0.56833,0.1905 0.65088,0.57468 0.0318,0.003 0.0699,0 0.10795,-0.006 -0.0159,-0.2159 -0.0254,-0.41275 -0.0318,-0.60008 -0.019,0.003 -0.0444,0.006 -0.0667,0.006 -0.0667,0 -0.127,-0.019 -0.20955,-0.0381 -0.18732,-0.0413 -0.29527,-0.0635 -0.46672,-0.0635 -0.70485,0 -1.15888,0.4826 -1.15888,1.17475 0,0.6858 0.45085,1.12713 1.1557,1.12713 z"
       id="text5-7-5"
       aria-label="        Candidate      A          B          C" />
    <path
       style="fill:#000000;fill-opacity:1;stroke:#000000;stroke-width:0.365001;stroke-dasharray:1.46, 0.730002;stroke-dashoffset:0;stroke-opacity:1"
       d="m 83.346845,141.77342 v 19.45857"
       id="path6-1" />
    <path
       style="fill:#000000;fill-opacity:1;stroke:#000000;stroke-width:0.365001;stroke-dasharray:1.46, 0.730002;stroke-dashoffset:0;stroke-opacity:1"
       d="m 101.61467,141.73306 v 19.45857"
       id="path6-5-0" />
    <path
       style="fill:#000000;fill-opacity:1;stroke:#000000;stroke-width:0.365001;stroke-dasharray:1.46, 0.730002;stroke-dashoffset:0;stroke-opacity:1"
       d="m 92.628913,141.74304 v 19.45857"
       id="path6-5-9-8" />
  </g>
</svg>
